<svg xmlns="http://www.w3.org/2000/svg" version="1.1" xmlns:xlink="http://www.w3.org/1999/xlink" xmlns:svgjs="http://svgjs.dev/svgjs" viewBox="0 -2.338594121176251 721.57861328125 251.36398474617624"><style>text.label { fill:gray; }</style><path d="M295.79715078125 15.0763C301.27065078125 16.8352 306.74415078125 16.8313 312.21765078125003 15.065M296.50045078125004 4.568C302.11545078125005 6.026 307.54545078125 5.936 312.65145078125005 4.641M294.72635078125 9.995899999999999C301.30345078125004 11.707799999999999 307.70815078125 11.2942 314.04025078125005 9.9846M314.04025078125005 9.9846C314.04025078125005 15.5074 309.93205078125004 19.6157 304.40915078125005 19.6157C298.88635078125003 19.6157 294.74735078125 15.5075 294.74735078125 9.9846C294.74735078125 4.4618 298.88635078125003 0.38429999999999964 304.40915078125005 0.38429999999999964C309.93205078125004 0.38429999999999964 314.04025078125005 4.4618 314.04025078125005 9.9846Z " fill="white" stroke="black"></path><svg width="2" height="0" style="opacity: 0; position: absolute; left: -100%; top: -100%; overflow: hidden;" focusable="false" aria-hidden="true"><path d="M286.71939422720016 0C286.6873942272002 -3.3343 306.74469422720017 -2.8621 306.76339422720014 -0.1028C306.68729422720014 4.334099999999999 286.62019422720016 4.140499999999999 286.71939422720016 0ZM286.74879422720016 0.6461C288.89949422720014 3.7064 304.14349422720016 4.0184 306.74879422720016 0.6461V20.6461C300.21559422720014 23.314500000000002 293.56229422720014 23.5819 286.74879422720016 20.6461Z "></path></svg><text x="319.06878281250005" y="14.20703125" font-family="Helvetica" font-size="11" svgjs:data="{&quot;leading&quot;:&quot;1.3&quot;}"><tspan dy="0" x="319.06878281250005" svgjs:data="{&quot;newLined&quot;:true}">Users</tspan></text><rect width="73.255859375" height="26.341796875" x="267.75537109375" y="70" fill="white" stroke="black"></rect><text x="278.87939453125" y="87.3779296875" font-family="Helvetica" font-size="12" svgjs:data="{&quot;leading&quot;:&quot;1.3&quot;}"><tspan dy="0" x="278.87939453125" svgjs:data="{&quot;newLined&quot;:true}">Client API</tspan></text><path d="M626.4690257812499 15.0763C631.9425257812499 16.8352 637.4160257812499 16.8313 642.8895257812499 15.065M627.1723257812499 4.568C632.7873257812499 6.026 638.2173257812499 5.936 643.3233257812499 4.641M625.39822578125 9.995899999999999C631.9753257812499 11.707799999999999 638.38002578125 11.2942 644.7121257812499 9.9846M644.7121257812499 9.9846C644.7121257812499 15.5074 640.6039257812499 19.6157 635.0810257812499 19.6157C629.5582257812499 19.6157 625.4192257812499 15.5075 625.4192257812499 9.9846C625.4192257812499 4.4618 629.5582257812499 0.38429999999999964 635.0810257812499 0.38429999999999964C640.6039257812499 0.38429999999999964 644.7121257812499 4.4618 644.7121257812499 9.9846Z " fill="white" stroke="black"></path><text x="647.57024765625" y="14.20703125" font-family="Helvetica" font-size="11" svgjs:data="{&quot;leading&quot;:&quot;1.3&quot;}"><tspan dy="0" x="647.57024765625" svgjs:data="{&quot;newLined&quot;:true}">Admins</tspan></text><rect width="77.791015625" height="26.341796875" x="596.15966796875" y="70" fill="white" stroke="black"></rect><text x="605.52783203125" y="87.3779296875" font-family="Helvetica" font-size="12" svgjs:data="{&quot;leading&quot;:&quot;1.3&quot;}"><tspan dy="0" x="605.52783203125" svgjs:data="{&quot;newLined&quot;:true}">Admin API</tspan></text><rect width="89.38671875" height="26.341796875" x="409.14501953125" y="146.341796875" fill="white" stroke="black"></rect><text x="419.58056640625" y="163.7197265625" font-family="Helvetica" font-size="12" svgjs:data="{&quot;leading&quot;:&quot;1.3&quot;}"><tspan dy="0" x="419.58056640625" svgjs:data="{&quot;newLined&quot;:true}">Auth Service</tspan></text><rect width="38.69140625" height="26.341796875" x="0" y="222.68359375" fill="white" stroke="black"></rect><text x="8.884765625" y="240.0615234375" font-family="Helvetica" font-size="12" svgjs:data="{&quot;leading&quot;:&quot;1.3&quot;}"><tspan dy="0" x="8.884765625" svgjs:data="{&quot;newLined&quot;:true}">QQ</tspan></text><rect width="112.91796875" height="26.341796875" x="66.70361328125" y="146.341796875" fill="white" stroke="black"></rect><text x="76.21728515625" y="163.7197265625" font-family="Helvetica" font-size="12" svgjs:data="{&quot;leading&quot;:&quot;1.3&quot;}"><tspan dy="0" x="76.21728515625" svgjs:data="{&quot;newLined&quot;:true}">Query Processor</tspan></text><rect width="129.5234375" height="26.341796875" x="229.62158203125" y="146.341796875" fill="white" stroke="black"></rect><text x="239.36767578125" y="163.7197265625" font-family="Helvetica" font-size="12" svgjs:data="{&quot;leading&quot;:&quot;1.3&quot;}"><tspan dy="0" x="239.36767578125" svgjs:data="{&quot;newLined&quot;:true}">Mutation Processor</tspan></text><rect width="93.658203125" height="26.341796875" x="88.69140625" y="222.68359375" fill="white" stroke="black"></rect><text x="98.4150390625" y="240.0615234375" font-family="Helvetica" font-size="12" svgjs:data="{&quot;leading&quot;:&quot;1.3&quot;}"><tspan dy="0" x="98.4150390625" svgjs:data="{&quot;newLined&quot;:true}">Query Parser</tspan></text><path d="M286.71939422720016 225.64935435930232C286.6873942272002 222.3150543593023 306.74469422720017 222.78725435930232 306.76339422720014 225.54655435930232C306.68729422720014 229.98345435930233 286.62019422720016 229.78985435930232 286.71939422720016 225.64935435930232ZM286.74879422720016 226.2954543593023C288.89949422720014 229.35575435930232 304.14349422720016 229.6677543593023 306.74879422720016 226.2954543593023V246.2954543593023C300.21559422720014 248.96385435930233 293.56229422720014 249.2312543593023 286.74879422720016 246.2954543593023Z " fill="white" stroke="black"></path><rect width="173.046875" height="26.341796875" x="548.53173828125" y="146.341796875" fill="white" stroke="black"></rect><text x="557.02392578125" y="163.7197265625" font-family="Helvetica" font-size="12" svgjs:data="{&quot;leading&quot;:&quot;1.3&quot;}"><tspan dy="0" x="557.02392578125" svgjs:data="{&quot;newLined&quot;:true}">Client Management System</tspan></text><g><polyline points="304.38330078125,20 304.38330078125,45 304.38330078125,70" stroke-width="0.25" stroke="black" fill="none" marker-end="url(#SvgjsMarker1000)"></polyline></g><defs><marker markerWidth="40" markerHeight="30" refX="20" refY="15" viewBox="0 0 40 30" orient="auto" id="SvgjsMarker1000"><path d="m 0 0 l 20 15 l -20 15 a 7.5 1 90 0 0 0 -30 z" fill="black" stroke-width="0.1" stroke="black"></path></marker><marker markerWidth="40" markerHeight="30" refX="20" refY="15" viewBox="0 0 40 30" orient="auto" id="SvgjsMarker1001"><path d="m 0 0 l 20 15 l -20 15 a 7.5 1 90 0 0 0 -30 z" fill="black" stroke-width="0.1" stroke="black"></path></marker><marker markerWidth="40" markerHeight="30" refX="20" refY="15" viewBox="0 0 40 30" orient="auto" id="SvgjsMarker1002"><path d="m 0 0 l 20 15 l -20 15 a 7.5 1 90 0 0 0 -30 z" fill="black" stroke-width="0.1" stroke="black"></path></marker><marker markerWidth="40" markerHeight="30" refX="20" refY="15" viewBox="0 0 40 30" orient="auto" id="SvgjsMarker1003"><path d="m 0 0 l 20 15 l -20 15 a 7.5 1 90 0 0 0 -30 z" fill="black" stroke-width="0.1" stroke="black"></path></marker><marker markerWidth="40" markerHeight="30" refX="20" refY="15" viewBox="0 0 40 30" orient="auto" id="SvgjsMarker1004"><path d="m 0 0 l 20 15 l -20 15 a 7.5 1 90 0 0 0 -30 z" fill="black" stroke-width="0.1" stroke="black"></path></marker><marker markerWidth="40" markerHeight="30" refX="20" refY="15" viewBox="0 0 40 30" orient="auto" id="SvgjsMarker1005"><path d="m 0 0 l 20 15 l -20 15 a 7.5 1 90 0 0 0 -30 z" fill="black" stroke-width="0.1" stroke="black"></path></marker><marker markerWidth="40" markerHeight="30" refX="20" refY="15" viewBox="0 0 40 30" orient="auto" id="SvgjsMarker1006"><path d="m 0 0 l 20 15 l -20 15 a 7.5 1 90 0 0 0 -30 z" fill="black" stroke-width="0.1" stroke="black"></path></marker><marker markerWidth="40" markerHeight="30" refX="20" refY="15" viewBox="0 0 40 30" orient="auto" id="SvgjsMarker1007"><path d="m 0 0 l 20 15 l -20 15 a 7.5 1 90 0 0 0 -30 z" fill="black" stroke-width="0.1" stroke="black"></path></marker><marker markerWidth="40" markerHeight="30" refX="20" refY="15" viewBox="0 0 40 30" orient="auto" id="SvgjsMarker1008"><path d="m 0 0 l 20 15 l -20 15 a 7.5 1 90 0 0 0 -30 z" fill="black" stroke-width="0.1" stroke="black"></path></marker><marker markerWidth="40" markerHeight="30" refX="20" refY="15" viewBox="0 0 40 30" orient="auto" id="SvgjsMarker1009"><path d="m 0 0 l 20 15 l -20 15 a 7.5 1 90 0 0 0 -30 z" fill="black" stroke-width="0.1" stroke="black"></path></marker><marker markerWidth="40" markerHeight="30" refX="20" refY="15" viewBox="0 0 40 30" orient="auto" id="SvgjsMarker1010"><path d="m 0 0 l 20 15 l -20 15 a 7.5 1 90 0 0 0 -30 z" fill="black" stroke-width="0.1" stroke="black"></path></marker><marker markerWidth="40" markerHeight="30" refX="20" refY="15" viewBox="0 0 40 30" orient="auto" id="SvgjsMarker1011"><path d="m 0 0 l 20 15 l -20 15 a 7.5 1 90 0 0 0 -30 z" fill="black" stroke-width="0.1" stroke="black"></path></marker><marker markerWidth="40" markerHeight="30" refX="20" refY="15" viewBox="0 0 40 30" orient="auto" id="SvgjsMarker1012"><path d="m 0 0 l 20 15 l -20 15 a 7.5 1 90 0 0 0 -30 z" fill="black" stroke-width="0.1" stroke="black"></path></marker><marker markerWidth="40" markerHeight="30" refX="20" refY="15" viewBox="0 0 40 30" orient="auto" id="SvgjsMarker1013"><path d="m 0 0 l 20 15 l -20 15 a 7.5 1 90 0 0 0 -30 z" fill="black" stroke-width="0.1" stroke="black"></path></marker><marker markerWidth="40" markerHeight="30" refX="20" refY="15" viewBox="0 0 40 30" orient="auto" id="SvgjsMarker1014"><path d="m 0 0 l 20 15 l -20 15 a 7.5 1 90 0 0 0 -30 z" fill="black" stroke-width="0.1" stroke="black"></path></marker><marker markerWidth="40" markerHeight="30" refX="20" refY="15" viewBox="0 0 40 30" orient="auto" id="SvgjsMarker1015"><path d="m 0 0 l 20 15 l -20 15 a 7.5 1 90 0 0 0 -30 z" fill="black" stroke-width="0.1" stroke="black"></path></marker><marker markerWidth="40" markerHeight="30" refX="20" refY="15" viewBox="0 0 40 30" orient="auto" id="SvgjsMarker1016"><path d="m 0 0 l 20 15 l -20 15 a 7.5 1 90 0 0 0 -30 z" fill="black" stroke-width="0.1" stroke="black"></path></marker></defs><g><polyline points="635.05517578125,20 635.05517578125,45 635.05517578125,70" stroke-width="0.25" stroke="black" fill="none" marker-end="url(#SvgjsMarker1001)"></polyline></g><g><polyline points="598.3401690084979,96.341796875 532.44677734375,121.341796875 479.6523699960385,146.341796875" stroke-width="0.25" stroke="black" fill="none" marker-end="url(#SvgjsMarker1002)"></polyline><polyline points="483.6523699960385,146.341796875 536.44677734375,121.341796875 602.3401690084979,96.341796875" stroke-width="0.25" stroke="black" fill="none" stroke-dasharray="2" marker-end="url(#SvgjsMarker1003)"></polyline></g><g><polyline points="267.75537109375,87.90968764668551 9.345703125,121.341796875 9.345703125,159.5126953125 9.345703125,197.68359375 15.895195283518177,222.68359375" stroke-width="0.25" stroke="black" fill="none" marker-end="url(#SvgjsMarker1004)"></polyline></g><g><polyline points="103.1194939284081,172.68359375 65.0751953125,197.68359375 35.12470026299505,222.68359375" stroke-width="0.25" stroke="black" fill="none" marker-end="url(#SvgjsMarker1005)"></polyline></g><g><polyline points="298.9327929397682,96.341796875 292.38330078125,121.341796875 292.38330078125,146.341796875" stroke-width="0.25" stroke="black" fill="none" marker-end="url(#SvgjsMarker1006)"></polyline><polyline points="296.38330078125,146.341796875 296.38330078125,121.341796875 302.9327929397682,96.341796875" stroke-width="0.25" stroke="black" fill="none" stroke-dasharray="2" marker-end="url(#SvgjsMarker1007)"></polyline></g><g><polyline points="125.42670424609685,172.68359375 133.5205078125,197.68359375 133.5205078125,222.68359375" stroke-width="0.25" stroke="black" fill="none" marker-end="url(#SvgjsMarker1008)"></polyline><polyline points="137.5205078125,222.68359375 137.5205078125,197.68359375 129.42670424609685,172.68359375" stroke-width="0.25" stroke="black" fill="none" stroke-dasharray="2" marker-end="url(#SvgjsMarker1009)"></polyline></g><g><polyline points="329.89335065297047,96.341796875 382.11083984375,121.341796875 427.7788368760114,146.341796875" stroke-width="0.25" stroke="black" fill="none" marker-end="url(#SvgjsMarker1010)"></polyline><polyline points="431.7788368760114,146.341796875 386.11083984375,121.341796875 333.89335065297047,96.341796875" stroke-width="0.25" stroke="black" fill="none" stroke-dasharray="2" marker-end="url(#SvgjsMarker1011)"></polyline></g><g><polyline points="152.70251659409217,172.68359375 208.77294921875,197.68359375 286.7412109375,231.51532511841103" stroke-width="0.25" stroke="black" fill="none" marker-end="url(#SvgjsMarker1012)"></polyline><text x="209.6290903282961" y="208.30649068420553" font-family="Helvetica" font-size="10" class="label" svgjs:data="{&quot;leading&quot;:&quot;1.3&quot;}"><tspan dy="0" x="209.6290903282961" svgjs:data="{&quot;newLined&quot;:true}">SELECT</tspan></text></g><g><polyline points="633.05517578125,96.341796875 633.05517578125,121.341796875 633.05517578125,146.341796875" stroke-width="0.25" stroke="black" fill="none" marker-end="url(#SvgjsMarker1013)"></polyline><polyline points="637.05517578125,146.341796875 637.05517578125,121.341796875 637.05517578125,96.341796875" stroke-width="0.25" stroke="black" fill="none" stroke-dasharray="2" marker-end="url(#SvgjsMarker1014)"></polyline></g><g><polyline points="294.38330078125,172.68359375 294.38330078125,197.68359375 296.123486374346,225.8544921875" stroke-width="0.25" stroke="black" fill="none" marker-end="url(#SvgjsMarker1015)"></polyline><text x="283.84958498404797" y="205.47607421875" font-family="Helvetica" font-size="10" class="label" svgjs:data="{&quot;leading&quot;:&quot;1.3&quot;}"><tspan dy="0" x="283.84958498404797" svgjs:data="{&quot;newLined&quot;:true}">UPDATE</tspan></text></g><g><polyline points="635.05517578125,172.68359375 635.05517578125,197.68359375 306.7412109375,234.72622370307226" stroke-width="0.25" stroke="black" fill="none" marker-end="url(#SvgjsMarker1016)"></polyline><text x="460.256103515625" y="209.91193997653613" font-family="Helvetica" font-size="10" class="label" svgjs:data="{&quot;leading&quot;:&quot;1.3&quot;}"><tspan dy="0" x="460.256103515625" svgjs:data="{&quot;newLined&quot;:true}">CREATE</tspan></text></g></svg>