<svg xmlns="http://www.w3.org/2000/svg" version="1.1" xmlns:xlink="http://www.w3.org/1999/xlink" xmlns:svgjs="http://svgjs.dev/svgjs" viewBox="0 0 3910 490"><rect width="250" height="40" x="2192.5" y="0" fill="white" stroke="black"></rect><text x="2226.13671875" y="26.20703125" svgjs:data="{&quot;leading&quot;:&quot;1.3&quot;}"><tspan dy="0" x="2226.13671875" svgjs:data="{&quot;newLined&quot;:true}">Coeus formerly Tag4You</tspan></text><rect width="100" height="40" x="822.5" y="90" fill="white" stroke="black"></rect><text x="843.27734375" y="116.20703125" svgjs:data="{&quot;leading&quot;:&quot;1.3&quot;}"><tspan dy="0" x="843.27734375" svgjs:data="{&quot;newLined&quot;:true}">Queries</tspan></text><rect width="150" height="40" x="485" y="180" fill="white" stroke="black"></rect><text x="509.47265625" y="206.20703125" svgjs:data="{&quot;leading&quot;:&quot;1.3&quot;}"><tspan dy="0" x="509.47265625" svgjs:data="{&quot;newLined&quot;:true}">Query format</tspan></text><rect width="390" height="40" x="0" y="270" fill="white" stroke="black"></rect><text x="55.9140625" y="296.20703125" svgjs:data="{&quot;leading&quot;:&quot;1.3&quot;}"><tspan dy="0" x="55.9140625" svgjs:data="{&quot;newLined&quot;:true}">Natural language-like query language</tspan></text><rect width="240" height="40" x="440" y="270" fill="white" stroke="black"></rect><text x="474.109375" y="296.20703125" svgjs:data="{&quot;leading&quot;:&quot;1.3&quot;}"><tspan dy="0" x="474.109375" svgjs:data="{&quot;newLined&quot;:true}">Formal query language</tspan></text><rect width="270" height="40" x="730" y="270" fill="white" stroke="black"></rect><text x="764.14453125" y="296.20703125" svgjs:data="{&quot;leading&quot;:&quot;1.3&quot;}"><tspan dy="0" x="764.14453125" svgjs:data="{&quot;newLined&quot;:true}">Computer-readable format</tspan></text><rect width="70" height="40" x="747.5" y="360" fill="white" stroke="black"></rect><text x="763.7109375" y="386.20703125" svgjs:data="{&quot;leading&quot;:&quot;1.3&quot;}"><tspan dy="0" x="763.7109375" svgjs:data="{&quot;newLined&quot;:true}">JSON</tspan></text><rect width="160" height="40" x="967.5" y="360" fill="white" stroke="black"></rect><text x="992.96875" y="386.20703125" svgjs:data="{&quot;leading&quot;:&quot;1.3&quot;}"><tspan dy="0" x="992.96875" svgjs:data="{&quot;newLined&quot;:true}">Custom binary</tspan></text><rect width="150" height="40" x="1072.5" y="180" fill="white" stroke="black"></rect><text x="1098.95703125" y="206.20703125" svgjs:data="{&quot;leading&quot;:&quot;1.3&quot;}"><tspan dy="0" x="1098.95703125" svgjs:data="{&quot;newLined&quot;:true}">Query length</tspan></text><rect width="120" height="40" x="1050" y="270" fill="white" stroke="black"></rect><text x="1073.5390625" y="296.20703125" svgjs:data="{&quot;leading&quot;:&quot;1.3&quot;}"><tspan dy="0" x="1073.5390625" svgjs:data="{&quot;newLined&quot;:true}">Unlimited</tspan></text><rect width="100" height="40" x="1220" y="270" fill="white" stroke="black"></rect><text x="1235.87109375" y="296.20703125" svgjs:data="{&quot;leading&quot;:&quot;1.3&quot;}"><tspan dy="0" x="1235.87109375" svgjs:data="{&quot;newLined&quot;:true}">Bounded</tspan></text><rect width="180" height="40" x="2015" y="180" fill="white" stroke="black"></rect><text x="2044.12890625" y="206.20703125" svgjs:data="{&quot;leading&quot;:&quot;1.3&quot;}"><tspan dy="0" x="2044.12890625" svgjs:data="{&quot;newLined&quot;:true}">Content Tagging</tspan></text><rect width="140" height="40" x="1370" y="270" fill="white" stroke="black"></rect><text x="1398.5859375" y="296.20703125" svgjs:data="{&quot;leading&quot;:&quot;1.3&quot;}"><tspan dy="0" x="1398.5859375" svgjs:data="{&quot;newLined&quot;:true}">Binary tags</tspan></text><rect width="160" height="40" x="1360" y="360" fill="white" stroke="black"></rect><text x="1387.0234375" y="386.20703125" svgjs:data="{&quot;leading&quot;:&quot;1.3&quot;}"><tspan dy="0" x="1387.0234375" svgjs:data="{&quot;newLined&quot;:true}">Weighted tags</tspan></text><rect width="280" height="40" x="3182.5" y="450" fill="white" stroke="black"></rect><text x="3225.83203125" y="476.20703125" svgjs:data="{&quot;leading&quot;:&quot;1.3&quot;}"><tspan dy="0" x="3225.83203125" svgjs:data="{&quot;newLined&quot;:true}">Numeric tags e.g. runtime</tspan></text><rect width="140" height="40" x="1560" y="270" fill="white" stroke="black"></rect><text x="1589.59765625" y="296.20703125" svgjs:data="{&quot;leading&quot;:&quot;1.3&quot;}"><tspan dy="0" x="1589.59765625" svgjs:data="{&quot;newLined&quot;:true}">Tag aliases</tspan></text><rect width="220" height="40" x="1750" y="270" fill="white" stroke="black"></rect><text x="1786.43359375" y="296.20703125" svgjs:data="{&quot;leading&quot;:&quot;1.3&quot;}"><tspan dy="0" x="1786.43359375" svgjs:data="{&quot;newLined&quot;:true}">Sub-tags/categories</tspan></text><rect width="170" height="40" x="2020" y="270" fill="white" stroke="black"></rect><text x="2053.73046875" y="296.20703125" svgjs:data="{&quot;leading&quot;:&quot;1.3&quot;}"><tspan dy="0" x="2053.73046875" svgjs:data="{&quot;newLined&quot;:true}">Exclusive tags</tspan></text><rect width="300" height="40" x="2240" y="270" fill="white" stroke="black"></rect><text x="2295.69921875" y="296.20703125" svgjs:data="{&quot;leading&quot;:&quot;1.3&quot;}"><tspan dy="0" x="2295.69921875" svgjs:data="{&quot;newLined&quot;:true}">Tag attributes e.g. spoiler</tspan></text><rect width="190" height="40" x="2590" y="270" fill="white" stroke="black"></rect><text x="2624.05078125" y="296.20703125" svgjs:data="{&quot;leading&quot;:&quot;1.3&quot;}"><tspan dy="0" x="2624.05078125" svgjs:data="{&quot;newLined&quot;:true}">Tag descriptions</tspan></text><rect width="200" height="40" x="2465" y="90" fill="white" stroke="black"></rect><text x="2498.5859375" y="116.20703125" svgjs:data="{&quot;leading&quot;:&quot;1.3&quot;}"><tspan dy="0" x="2498.5859375" svgjs:data="{&quot;newLined&quot;:true}">Data modification</tspan></text><rect width="150" height="40" x="2395" y="180" fill="white" stroke="black"></rect><text x="2425.2109375" y="206.20703125" svgjs:data="{&quot;leading&quot;:&quot;1.3&quot;}"><tspan dy="0" x="2425.2109375" svgjs:data="{&quot;newLined&quot;:true}">Default tags</tspan></text><rect width="170" height="40" x="2595" y="180" fill="white" stroke="black"></rect><text x="2626.625" y="206.20703125" svgjs:data="{&quot;leading&quot;:&quot;1.3&quot;}"><tspan dy="0" x="2626.625" svgjs:data="{&quot;newLined&quot;:true}">Access control</tspan></text><rect width="220" height="40" x="3155" y="90" fill="white" stroke="black"></rect><text x="3192.1796875" y="116.20703125" svgjs:data="{&quot;leading&quot;:&quot;1.3&quot;}"><tspan dy="0" x="3192.1796875" svgjs:data="{&quot;newLined&quot;:true}">Result presentation</tspan></text><rect width="130" height="40" x="2815" y="180" fill="white" stroke="black"></rect><text x="2847.328125" y="206.20703125" svgjs:data="{&quot;leading&quot;:&quot;1.3&quot;}"><tspan dy="0" x="2847.328125" svgjs:data="{&quot;newLined&quot;:true}">Tag filter</tspan></text><rect width="100" height="40" x="3215" y="180" fill="white" stroke="black"></rect><text x="3238.37109375" y="206.20703125" svgjs:data="{&quot;leading&quot;:&quot;1.3&quot;}"><tspan dy="0" x="3238.37109375" svgjs:data="{&quot;newLined&quot;:true}">Sorting</tspan></text><rect width="200" height="40" x="3255" y="360" fill="white" stroke="black"></rect><text x="3287.33984375" y="386.20703125" svgjs:data="{&quot;leading&quot;:&quot;1.3&quot;}"><tspan dy="0" x="3287.33984375" svgjs:data="{&quot;newLined&quot;:true}">Numeric tag value</tspan></text><rect width="260" height="40" x="3390" y="270" fill="white" stroke="black"></rect><text x="3427.66796875" y="296.20703125" svgjs:data="{&quot;leading&quot;:&quot;1.3&quot;}"><tspan dy="0" x="3427.66796875" svgjs:data="{&quot;newLined&quot;:true}">Numeric tags expression</tspan></text><rect width="130" height="40" x="2850" y="270" fill="white" stroke="black"></rect><text x="2874.8125" y="296.20703125" svgjs:data="{&quot;leading&quot;:&quot;1.3&quot;}"><tspan dy="0" x="2874.8125" svgjs:data="{&quot;newLined&quot;:true}">Tag weight</tspan></text><rect width="290" height="40" x="3030" y="270" fill="white" stroke="black"></rect><text x="3080.734375" y="296.20703125" svgjs:data="{&quot;leading&quot;:&quot;1.3&quot;}"><tspan dy="0" x="3080.734375" svgjs:data="{&quot;newLined&quot;:true}">Client-supplied attributes</tspan></text><rect width="90" height="40" x="3760" y="180" fill="white" stroke="black"></rect><text x="3780.03515625" y="206.20703125" svgjs:data="{&quot;leading&quot;:&quot;1.3&quot;}"><tspan dy="0" x="3780.03515625" svgjs:data="{&quot;newLined&quot;:true}">Paging</tspan></text><rect width="210" height="40" x="3700" y="270" fill="white" stroke="black"></rect><text x="3738.1875" y="296.20703125" svgjs:data="{&quot;leading&quot;:&quot;1.3&quot;}"><tspan dy="0" x="3738.1875" svgjs:data="{&quot;newLined&quot;:true}">Variable page size</tspan></text><polygon points="635,230 560,221 485,230" fill="black" stroke="black"></polygon><polygon points="946.1111111111111,320 887.2222222222222,311 828.3333333333334,320" fill="black" stroke="black"></polygon><polygon points="1201.9444444444443,230 1166.3888888888887,221 1130.8333333333333,230" fill="white" stroke="black"></polygon><polygon points="2195,230 2105,221 2015,230" fill="black" stroke="black"></polygon><polygon points="3315,230 3265,221 3215,230" fill="black" stroke="black"></polygon><polyline points="485,230 195,245 195,270" stroke="black" fill="none"></polyline><polyline points="560,230 560,245 560,270" stroke="black" fill="none"></polyline><polyline points="828.3333333333334,320 782.5,335 782.5,360" stroke="black" fill="none"></polyline><polyline points="946.1111111111111,320 1047.5,335 1047.5,360" stroke="black" fill="none"></polyline><polyline points="635,230 865,245 865,270" stroke="black" fill="none"></polyline><polyline points="822.5,117.2 560,155 560,180" stroke="black" fill="none" marker-end="url(#SvgjsMarker1000)"></polyline><defs><marker markerWidth="14" markerHeight="14" refX="7" refY="7" viewBox="0 0 14 14" orient="auto" id="SvgjsMarker1000"><circle r="5" cx="7" cy="7" fill="black" stroke-width="2" stroke="black"></circle></marker><marker markerWidth="14" markerHeight="14" refX="7" refY="7" viewBox="0 0 14 14" orient="auto" id="SvgjsMarker1001"><circle r="5" cx="7" cy="7" fill="black" stroke-width="2" stroke="black"></circle></marker><marker markerWidth="14" markerHeight="14" refX="7" refY="7" viewBox="0 0 14 14" orient="auto" id="SvgjsMarker1002"><circle r="5" cx="7" cy="7" fill="white" stroke-width="2" stroke="black"></circle></marker><marker markerWidth="14" markerHeight="14" refX="7" refY="7" viewBox="0 0 14 14" orient="auto" id="SvgjsMarker1003"><circle r="5" cx="7" cy="7" fill="black" stroke-width="2" stroke="black"></circle></marker><marker markerWidth="14" markerHeight="14" refX="7" refY="7" viewBox="0 0 14 14" orient="auto" id="SvgjsMarker1004"><circle r="5" cx="7" cy="7" fill="black" stroke-width="2" stroke="black"></circle></marker><marker markerWidth="14" markerHeight="14" refX="7" refY="7" viewBox="0 0 14 14" orient="auto" id="SvgjsMarker1005"><circle r="5" cx="7" cy="7" fill="white" stroke-width="2" stroke="black"></circle></marker><marker markerWidth="14" markerHeight="14" refX="7" refY="7" viewBox="0 0 14 14" orient="auto" id="SvgjsMarker1006"><circle r="5" cx="7" cy="7" fill="black" stroke-width="2" stroke="black"></circle></marker><marker markerWidth="14" markerHeight="14" refX="7" refY="7" viewBox="0 0 14 14" orient="auto" id="SvgjsMarker1007"><circle r="5" cx="7" cy="7" fill="black" stroke-width="2" stroke="black"></circle></marker><marker markerWidth="14" markerHeight="14" refX="7" refY="7" viewBox="0 0 14 14" orient="auto" id="SvgjsMarker1008"><circle r="5" cx="7" cy="7" fill="white" stroke-width="2" stroke="black"></circle></marker><marker markerWidth="14" markerHeight="14" refX="7" refY="7" viewBox="0 0 14 14" orient="auto" id="SvgjsMarker1009"><circle r="5" cx="7" cy="7" fill="black" stroke-width="2" stroke="black"></circle></marker><marker markerWidth="14" markerHeight="14" refX="7" refY="7" viewBox="0 0 14 14" orient="auto" id="SvgjsMarker1010"><circle r="5" cx="7" cy="7" fill="white" stroke-width="2" stroke="black"></circle></marker><marker markerWidth="14" markerHeight="14" refX="7" refY="7" viewBox="0 0 14 14" orient="auto" id="SvgjsMarker1011"><circle r="5" cx="7" cy="7" fill="black" stroke-width="2" stroke="black"></circle></marker><marker markerWidth="14" markerHeight="14" refX="7" refY="7" viewBox="0 0 14 14" orient="auto" id="SvgjsMarker1012"><circle r="5" cx="7" cy="7" fill="black" stroke-width="2" stroke="black"></circle></marker><marker markerWidth="14" markerHeight="14" refX="7" refY="7" viewBox="0 0 14 14" orient="auto" id="SvgjsMarker1013"><polygon points="0,14 7,7 0,0 2,7" fill="black" stroke-width="1" stroke="black"></polygon></marker><marker markerWidth="14" markerHeight="14" refX="7" refY="7" viewBox="0 0 14 14" orient="auto" id="SvgjsMarker1014"><polygon points="0,14 7,7 0,0 2,7" fill="black" stroke-width="1" stroke="black"></polygon></marker><marker markerWidth="14" markerHeight="14" refX="7" refY="7" viewBox="0 0 14 14" orient="auto" id="SvgjsMarker1015"><polygon points="0,14 7,7 0,0 2,7" fill="black" stroke-width="1" stroke="black"></polygon></marker><marker markerWidth="14" markerHeight="14" refX="7" refY="7" viewBox="0 0 14 14" orient="auto" id="SvgjsMarker1016"><polygon points="0,14 7,7 0,0 2,7" fill="black" stroke-width="1" stroke="black"></polygon></marker><marker markerWidth="14" markerHeight="14" refX="7" refY="7" viewBox="0 0 14 14" orient="auto" id="SvgjsMarker1017"><polygon points="14,0 7,7 14,14 12,7" fill="black" stroke-width="1" stroke="black"></polygon></marker></defs><polyline points="1130.8333333333333,230 1110,245 1110,270" stroke="black" fill="none"></polyline><polyline points="1201.9444444444443,230 1270,245 1270,270" stroke="black" fill="none"></polyline><polyline points="922.5,118.18181818181819 1147.5,155 1147.5,180" stroke="black" fill="none"></polyline><polyline points="2192.5,23.89273356401384 872.5,65 872.5,90" stroke="black" fill="none" marker-end="url(#SvgjsMarker1001)"></polyline><polyline points="1440,310 1440,335 1440,360" stroke="black" fill="none" marker-end="url(#SvgjsMarker1002)"></polyline><polyline points="2015,230 1440,245 1440,270" stroke="black" fill="none" marker-end="url(#SvgjsMarker1003)"></polyline><polyline points="2195,230 2815,245 2815,290 2815,335 2815,380 2815,425 3182.5,457.58620689655174" stroke="black" fill="none"></polyline><polyline points="2015,230 1630,245 1630,270" stroke="black" fill="none"></polyline><polyline points="2015,230 1860,245 1860,270" stroke="black" fill="none"></polyline><polyline points="2105,230 2105,245 2105,270" stroke="black" fill="none"></polyline><polyline points="2195,230 2390,245 2390,270" stroke="black" fill="none"></polyline><polyline points="2195,230 2685,245 2685,270" stroke="black" fill="none"></polyline><polyline points="2223.0555555555557,40 2105,65 2105,110 2105,155 2105,180" stroke="black" fill="none" marker-end="url(#SvgjsMarker1004)"></polyline><polyline points="2522.777777777778,130 2470,155 2470,180" stroke="black" fill="none" marker-end="url(#SvgjsMarker1005)"></polyline><polyline points="2616.1111111111113,130 2680,155 2680,180" stroke="black" fill="none" marker-end="url(#SvgjsMarker1006)"></polyline><polyline points="2427.5,40 2565,65 2565,90" stroke="black" fill="none" marker-end="url(#SvgjsMarker1007)"></polyline><polyline points="3155,122.85714285714286 2880,155 2880,180" stroke="black" fill="none" marker-end="url(#SvgjsMarker1008)"></polyline><polyline points="3305,230 3355,245 3355,290 3355,335 3355,360" stroke="black" fill="none"></polyline><polyline points="3315,230 3520,245 3520,270" stroke="black" fill="none"></polyline><polyline points="3215,230 2915,245 2915,270" stroke="black" fill="none"></polyline><polyline points="3225,230 3175,245 3175,270" stroke="black" fill="none"></polyline><polyline points="3265,130 3265,155 3265,180" stroke="black" fill="none" marker-end="url(#SvgjsMarker1009)"></polyline><polyline points="3805,220 3805,245 3805,270" stroke="black" fill="none" marker-end="url(#SvgjsMarker1010)"></polyline><polyline points="3375,119.16666666666667 3805,155 3805,180" stroke="black" fill="none" marker-end="url(#SvgjsMarker1011)"></polyline><polyline points="2442.5,25.936675461741423 3265,65 3265,90" stroke="black" fill="none" marker-end="url(#SvgjsMarker1012)"></polyline><polyline points="3355,400 3355,425 3336.9444444444443,450" stroke="black" fill="none" stroke-dasharray="4" marker-end="url(#SvgjsMarker1013)"></polyline><polyline points="3524.4444444444443,310 3530,335 3530,380 3530,425 3414.722222222222,450" stroke="black" fill="none" stroke-dasharray="4" marker-end="url(#SvgjsMarker1014)"></polyline><polyline points="2915,310 2915,335 1520,377.5593220338983" stroke="black" fill="none" stroke-dasharray="4" marker-end="url(#SvgjsMarker1015)"></polyline><polyline points="3487.777777777778,310 3447.5,335 3396.1111111111113,360" stroke="black" fill="none" stroke-dasharray="4" marker-end="url(#SvgjsMarker1016)" marker-start="url(#SvgjsMarker1017)"></polyline></svg>