<?xml version="1.0" encoding="UTF-8" standalone="no"?><svg xmlns="http://www.w3.org/2000/svg" xmlns:xlink="http://www.w3.org/1999/xlink" contentScriptType="application/ecmascript" contentStyleType="text/css" height="582px" preserveAspectRatio="none" style="width:500px;height:582px;" version="1.1" viewBox="0 0 500 582" width="500px" zoomAndPan="magnify"><defs/><g><text fill="#000000" font-family="Courier" font-size="14" font-weight="bold" lengthAdjust="spacingAndGlyphs" textLength="224" x="142.5" y="22.9951">Middleware with control flow</text><rect fill="#FFFFFF" height="42" style="stroke: #383838; stroke-width: 1.0;" width="10" x="226" y="183.8906"/><rect fill="#FFFFFF" height="98" style="stroke: #383838; stroke-width: 1.0;" width="10" x="226" y="295.1875"/><rect fill="#FFFFFF" height="42" style="stroke: #383838; stroke-width: 1.0;" width="10" x="231" y="323.1875"/><rect fill="#FFFFFF" height="42" style="stroke: #383838; stroke-width: 1.0;" width="10" x="226" y="421.1875"/><rect fill="#FFFFFF" height="14" style="stroke: #383838; stroke-width: 1.0;" width="10" x="318" y="197.8906"/><rect fill="#FFFFFF" height="70" style="stroke: #383838; stroke-width: 1.0;" width="10" x="318" y="309.1875"/><rect fill="#FFFFFF" height="14" style="stroke: #383838; stroke-width: 1.0;" width="10" x="398" y="337.1875"/><rect fill="#FFFFFF" height="14" style="stroke: #383838; stroke-width: 1.0;" width="10" x="398" y="435.1875"/><line style="stroke: #383838; stroke-width: 1.0; stroke-dasharray: 5.0,5.0;" x1="47" x2="47" y1="112.5938" y2="495.1875"/><line style="stroke: #383838; stroke-width: 1.0; stroke-dasharray: 5.0,5.0;" x1="135" x2="135" y1="112.5938" y2="495.1875"/><line style="stroke: #383838; stroke-width: 1.0; stroke-dasharray: 5.0,5.0;" x1="231" x2="231" y1="112.5938" y2="495.1875"/><line style="stroke: #383838; stroke-width: 1.0; stroke-dasharray: 5.0,5.0;" x1="323" x2="323" y1="153.2422" y2="495.1875"/><line style="stroke: #383838; stroke-width: 1.0; stroke-dasharray: 5.0,5.0;" x1="403" x2="403" y1="264.5391" y2="495.1875"/><line style="stroke: #383838; stroke-width: 1.0; stroke-dasharray: 5.0,5.0;" x1="471" x2="471" y1="112.5938" y2="495.1875"/><rect fill="#F8F8F8" height="30.2969" style="stroke: #383838; stroke-width: 1.5;" width="78" x="8" y="81.2969"/><text fill="#000000" font-family="Courier" font-size="14" lengthAdjust="spacingAndGlyphs" textLength="64" x="15" y="101.292">Frontend</text><rect fill="#F8F8F8" height="30.2969" style="stroke: #383838; stroke-width: 1.5;" width="78" x="8" y="494.1875"/><text fill="#000000" font-family="Courier" font-size="14" lengthAdjust="spacingAndGlyphs" textLength="64" x="15" y="514.1826">Frontend</text><rect fill="#F8F8F8" height="30.2969" style="stroke: #383838; stroke-width: 1.5;" width="78" x="96" y="81.2969"/><text fill="#000000" font-family="Courier" font-size="14" lengthAdjust="spacingAndGlyphs" textLength="64" x="103" y="101.292">Frontend</text><rect fill="#F8F8F8" height="30.2969" style="stroke: #383838; stroke-width: 1.5;" width="78" x="96" y="494.1875"/><text fill="#000000" font-family="Courier" font-size="14" lengthAdjust="spacingAndGlyphs" textLength="64" x="103" y="514.1826">Frontend</text><rect fill="#F8F8F8" height="30.2969" style="stroke: #383838; stroke-width: 1.5;" width="94" x="184" y="81.2969"/><text fill="#000000" font-family="Courier" font-size="14" lengthAdjust="spacingAndGlyphs" textLength="80" x="191" y="101.292">Middleware</text><rect fill="#F8F8F8" height="30.2969" style="stroke: #383838; stroke-width: 1.5;" width="94" x="184" y="494.1875"/><text fill="#000000" font-family="Courier" font-size="14" lengthAdjust="spacingAndGlyphs" textLength="80" x="191" y="514.1826">Middleware</text><rect fill="#F8F8F8" height="30.2969" style="stroke: #383838; stroke-width: 1.5;" width="70" x="288" y="494.1875"/><text fill="#000000" font-family="Courier" font-size="14" lengthAdjust="spacingAndGlyphs" textLength="56" x="295" y="514.1826">Backend</text><rect fill="#F8F8F8" height="30.2969" style="stroke: #383838; stroke-width: 1.5;" width="70" x="368" y="494.1875"/><text fill="#000000" font-family="Courier" font-size="14" lengthAdjust="spacingAndGlyphs" textLength="56" x="375" y="514.1826">Backend</text><text fill="#000000" font-family="Courier" font-size="14" lengthAdjust="spacingAndGlyphs" textLength="40" x="448" y="109.292">admin</text><ellipse cx="471" cy="43.2969" fill="#F8F8F8" rx="8" ry="8" style="stroke: #383838; stroke-width: 2.0;"/><path d="M471,51.2969 L471,78.2969 M458,59.2969 L484,59.2969 M471,78.2969 L458,93.2969 M471,78.2969 L484,93.2969 " fill="none" style="stroke: #383838; stroke-width: 2.0;"/><text fill="#000000" font-family="Courier" font-size="14" lengthAdjust="spacingAndGlyphs" textLength="40" x="448" y="507.1826">admin</text><ellipse cx="471" cy="520.4844" fill="#F8F8F8" rx="8" ry="8" style="stroke: #383838; stroke-width: 2.0;"/><path d="M471,528.4844 L471,555.4844 M458,536.4844 L484,536.4844 M471,555.4844 L458,570.4844 M471,555.4844 L484,570.4844 " fill="none" style="stroke: #383838; stroke-width: 2.0;"/><rect fill="#FFFFFF" height="42" style="stroke: #383838; stroke-width: 1.0;" width="10" x="226" y="183.8906"/><rect fill="#FFFFFF" height="98" style="stroke: #383838; stroke-width: 1.0;" width="10" x="226" y="295.1875"/><rect fill="#FFFFFF" height="42" style="stroke: #383838; stroke-width: 1.0;" width="10" x="231" y="323.1875"/><rect fill="#FFFFFF" height="42" style="stroke: #383838; stroke-width: 1.0;" width="10" x="226" y="421.1875"/><rect fill="#FFFFFF" height="14" style="stroke: #383838; stroke-width: 1.0;" width="10" x="318" y="197.8906"/><rect fill="#FFFFFF" height="70" style="stroke: #383838; stroke-width: 1.0;" width="10" x="318" y="309.1875"/><rect fill="#FFFFFF" height="14" style="stroke: #383838; stroke-width: 1.0;" width="10" x="398" y="337.1875"/><rect fill="#FFFFFF" height="14" style="stroke: #383838; stroke-width: 1.0;" width="10" x="398" y="435.1875"/><polygon fill="#383838" points="369,124.5938,359,128.5938,369,132.5938,365,128.5938" style="stroke: #383838; stroke-width: 1.0;"/><line style="stroke: #383838; stroke-width: 1.0;" x1="363" x2="470" y1="128.5938" y2="128.5938"/><rect fill="#F8F8F8" height="30.2969" style="stroke: #383838; stroke-width: 1.5;" width="70" x="288" y="122.5938"/><text fill="#000000" font-family="Courier" font-size="14" lengthAdjust="spacingAndGlyphs" textLength="56" x="295" y="142.5889">Backend</text><ellipse cx="230.5" cy="169.1406" fill="none" rx="4" ry="4" style="stroke: #383838; stroke-width: 1.5;"/><polygon fill="#383838" points="247.5,165.8906,237.5,169.8906,247.5,173.8906,243.5,169.8906" style="stroke: #383838; stroke-width: 1.0;"/><line style="stroke: #383838; stroke-width: 1.0;" x1="245.5" x2="322" y1="169.8906" y2="169.8906"/><polygon fill="#383838" points="214,179.8906,224,183.8906,214,187.8906,218,183.8906" style="stroke: #383838; stroke-width: 1.0;"/><line style="stroke: #383838; stroke-width: 1.0;" x1="135" x2="220" y1="183.8906" y2="183.8906"/><polygon fill="#383838" points="306,193.8906,316,197.8906,306,201.8906,310,197.8906" style="stroke: #383838; stroke-width: 1.0;"/><line style="stroke: #383838; stroke-width: 1.0; stroke-dasharray: 2.0,2.0;" x1="236" x2="312" y1="197.8906" y2="197.8906"/><polygon fill="#383838" points="247,207.8906,237,211.8906,247,215.8906,243,211.8906" style="stroke: #383838; stroke-width: 1.0;"/><line style="stroke: #383838; stroke-width: 1.0; stroke-dasharray: 2.0,2.0;" x1="241" x2="322" y1="211.8906" y2="211.8906"/><polygon fill="#383838" points="146,221.8906,136,225.8906,146,229.8906,142,225.8906" style="stroke: #383838; stroke-width: 1.0;"/><line style="stroke: #383838; stroke-width: 1.0;" x1="140" x2="230" y1="225.8906" y2="225.8906"/><polygon fill="#383838" points="449,235.8906,439,239.8906,449,243.8906,445,239.8906" style="stroke: #383838; stroke-width: 1.0;"/><line style="stroke: #383838; stroke-width: 1.0;" x1="443" x2="470" y1="239.8906" y2="239.8906"/><rect fill="#F8F8F8" height="30.2969" style="stroke: #383838; stroke-width: 1.5;" width="70" x="368" y="233.8906"/><text fill="#000000" font-family="Courier" font-size="14" lengthAdjust="spacingAndGlyphs" textLength="56" x="375" y="253.8857">Backend</text><ellipse cx="230.5" cy="280.4375" fill="none" rx="4" ry="4" style="stroke: #383838; stroke-width: 1.5;"/><polygon fill="#383838" points="247.5,277.1875,237.5,281.1875,247.5,285.1875,243.5,281.1875" style="stroke: #383838; stroke-width: 1.0;"/><line style="stroke: #383838; stroke-width: 1.0;" x1="245.5" x2="402" y1="281.1875" y2="281.1875"/><polygon fill="#383838" points="214,291.1875,224,295.1875,214,299.1875,218,295.1875" style="stroke: #383838; stroke-width: 1.0;"/><line style="stroke: #383838; stroke-width: 1.0;" x1="135" x2="220" y1="295.1875" y2="295.1875"/><polygon fill="#383838" points="306,305.1875,316,309.1875,306,313.1875,310,309.1875" style="stroke: #383838; stroke-width: 1.0;"/><line style="stroke: #383838; stroke-width: 1.0; stroke-dasharray: 2.0,2.0;" x1="236" x2="312" y1="309.1875" y2="309.1875"/><polygon fill="#383838" points="219,319.1875,229,323.1875,219,327.1875,223,323.1875" style="stroke: #383838; stroke-width: 1.0;"/><line style="stroke: #383838; stroke-width: 1.0;" x1="47" x2="225" y1="323.1875" y2="323.1875"/><polygon fill="#383838" points="386,333.1875,396,337.1875,386,341.1875,390,337.1875" style="stroke: #383838; stroke-width: 1.0;"/><line style="stroke: #383838; stroke-width: 1.0; stroke-dasharray: 2.0,2.0;" x1="241" x2="392" y1="337.1875" y2="337.1875"/><polygon fill="#383838" points="252,347.1875,242,351.1875,252,355.1875,248,351.1875" style="stroke: #383838; stroke-width: 1.0;"/><line style="stroke: #383838; stroke-width: 1.0; stroke-dasharray: 2.0,2.0;" x1="246" x2="402" y1="351.1875" y2="351.1875"/><polygon fill="#383838" points="58,361.1875,48,365.1875,58,369.1875,54,365.1875" style="stroke: #383838; stroke-width: 1.0;"/><line style="stroke: #383838; stroke-width: 1.0;" x1="52" x2="225" y1="365.1875" y2="365.1875"/><polygon fill="#383838" points="247,375.1875,237,379.1875,247,383.1875,243,379.1875" style="stroke: #383838; stroke-width: 1.0;"/><line style="stroke: #383838; stroke-width: 1.0; stroke-dasharray: 2.0,2.0;" x1="241" x2="322" y1="379.1875" y2="379.1875"/><polygon fill="#383838" points="146,389.1875,136,393.1875,146,397.1875,142,393.1875" style="stroke: #383838; stroke-width: 1.0;"/><line style="stroke: #383838; stroke-width: 1.0;" x1="140" x2="230" y1="393.1875" y2="393.1875"/><polygon fill="#383838" points="311,403.1875,321,407.1875,311,411.1875,315,407.1875" style="stroke: #383838; stroke-width: 1.0;"/><line style="stroke: #383838; stroke-width: 1.0;" x1="231" x2="317" y1="407.1875" y2="407.1875"/><line style="stroke: #383838; stroke-width: 2.0;" x1="314" x2="332" y1="398.1875" y2="416.1875"/><line style="stroke: #383838; stroke-width: 2.0;" x1="314" x2="332" y1="416.1875" y2="398.1875"/><polygon fill="#383838" points="214,417.1875,224,421.1875,214,425.1875,218,421.1875" style="stroke: #383838; stroke-width: 1.0;"/><line style="stroke: #383838; stroke-width: 1.0;" x1="135" x2="220" y1="421.1875" y2="421.1875"/><polygon fill="#383838" points="386,431.1875,396,435.1875,386,439.1875,390,435.1875" style="stroke: #383838; stroke-width: 1.0;"/><line style="stroke: #383838; stroke-width: 1.0; stroke-dasharray: 2.0,2.0;" x1="236" x2="392" y1="435.1875" y2="435.1875"/><polygon fill="#383838" points="247,445.1875,237,449.1875,247,453.1875,243,449.1875" style="stroke: #383838; stroke-width: 1.0;"/><line style="stroke: #383838; stroke-width: 1.0; stroke-dasharray: 2.0,2.0;" x1="241" x2="402" y1="449.1875" y2="449.1875"/><polygon fill="#383838" points="146,459.1875,136,463.1875,146,467.1875,142,463.1875" style="stroke: #383838; stroke-width: 1.0;"/><line style="stroke: #383838; stroke-width: 1.0;" x1="140" x2="230" y1="463.1875" y2="463.1875"/><polygon fill="#383838" points="391,473.1875,401,477.1875,391,481.1875,395,477.1875" style="stroke: #383838; stroke-width: 1.0;"/><line style="stroke: #383838; stroke-width: 1.0;" x1="231" x2="397" y1="477.1875" y2="477.1875"/><line style="stroke: #383838; stroke-width: 2.0;" x1="394" x2="412" y1="468.1875" y2="486.1875"/><line style="stroke: #383838; stroke-width: 2.0;" x1="394" x2="412" y1="486.1875" y2="468.1875"/></g></svg>