<?xml version="1.0" encoding="UTF-8" standalone="no"?><svg xmlns="http://www.w3.org/2000/svg" xmlns:xlink="http://www.w3.org/1999/xlink" contentScriptType="application/ecmascript" contentStyleType="text/css" height="833px" preserveAspectRatio="none" style="width:904px;height:833px;" version="1.1" viewBox="0 0 904 833" width="904px" zoomAndPan="magnify"><defs/><g><rect fill="#FFFFFF" height="475" style="stroke: #444444; stroke-width: 1.0; stroke-dasharray: 7.0,7.0;" width="744" x="22" y="347"/><text fill="#000000" font-family="sans-serif" font-size="14" font-style="italic" lengthAdjust="spacingAndGlyphs" textLength="84" x="352" y="361.9951">«boundary»</text><text fill="#444444" font-family="sans-serif" font-size="16" font-weight="bold" lengthAdjust="spacingAndGlyphs" textLength="55" x="366.5" y="380.1484">Coeus</text><text fill="#444444" font-family="sans-serif" font-size="12" font-weight="bold" lengthAdjust="spacingAndGlyphs" textLength="62" x="363" y="395.0605">[System]</text><rect fill="#1168BD" height="52.5938" style="stroke: #3C7FC0; stroke-width: 1.5;" width="77" x="257.5" y="753"/><text fill="#FFFFFF" font-family="sans-serif" font-size="12" font-style="italic" lengthAdjust="spacingAndGlyphs" textLength="57" x="267.5" y="774.1387">«system»</text><text fill="#FFFFFF" font-family="sans-serif" font-size="16" font-weight="bold" lengthAdjust="spacingAndGlyphs" textLength="52" x="270" y="791.8203">DBMS</text><rect fill="#1168BD" height="52.5938" style="stroke: #3C7FC0; stroke-width: 1.5;" width="77" x="257.5" y="414"/><text fill="#FFFFFF" font-family="sans-serif" font-size="12" font-style="italic" lengthAdjust="spacingAndGlyphs" textLength="57" x="267.5" y="435.1387">«system»</text><text fill="#FFFFFF" font-family="sans-serif" font-size="16" font-weight="bold" lengthAdjust="spacingAndGlyphs" textLength="30" x="281" y="452.8203">API</text><rect fill="#1168BD" height="52.5938" style="stroke: #3C7FC0; stroke-width: 1.5;" width="171" x="578.5" y="599"/><text fill="#FFFFFF" font-family="sans-serif" font-size="12" font-style="italic" lengthAdjust="spacingAndGlyphs" textLength="57" x="635.5" y="620.1387">«system»</text><text fill="#FFFFFF" font-family="sans-serif" font-size="16" font-weight="bold" lengthAdjust="spacingAndGlyphs" textLength="151" x="588.5" y="637.8203">Management API</text><rect fill="#1168BD" height="52.5938" style="stroke: #3C7FC0; stroke-width: 1.5;" width="111" x="240.5" y="599"/><text fill="#FFFFFF" font-family="sans-serif" font-size="12" font-style="italic" lengthAdjust="spacingAndGlyphs" textLength="57" x="267.5" y="620.1387">«system»</text><text fill="#FFFFFF" font-family="sans-serif" font-size="16" font-weight="bold" lengthAdjust="spacingAndGlyphs" textLength="91" x="250.5" y="637.8203">Processor</text><rect fill="#1168BD" height="71.2188" style="stroke: #3C7FC0; stroke-width: 1.5;" width="156" x="387" y="590"/><text fill="#FFFFFF" font-family="sans-serif" font-size="12" font-style="italic" lengthAdjust="spacingAndGlyphs" textLength="57" x="436.5" y="611.1387">«system»</text><text fill="#FFFFFF" font-family="sans-serif" font-size="16" font-weight="bold" lengthAdjust="spacingAndGlyphs" textLength="130" x="397" y="628.8203">Authentication</text><text fill="#FFFFFF" font-family="sans-serif" font-size="16" font-weight="bold" lengthAdjust="spacingAndGlyphs" textLength="65" x="432.5" y="647.4453">Service</text><rect fill="#08427B" height="85.1875" style="stroke: #073B6F; stroke-width: 1.5;" width="153" x="115.5" y="8"/><text fill="#FFFFFF" font-family="sans-serif" font-size="12" font-style="italic" lengthAdjust="spacingAndGlyphs" textLength="57" x="163.5" y="29.1387">«person»</text><text fill="#FFFFFF" font-family="sans-serif" font-size="16" font-weight="bold" lengthAdjust="spacingAndGlyphs" textLength="133" x="125.5" y="46.8203">Read-only user</text><text fill="#FFFFFF" font-family="sans-serif" font-size="14" lengthAdjust="spacingAndGlyphs" textLength="0" x="194" y="63.5889"/><text fill="#FFFFFF" font-family="sans-serif" font-size="14" lengthAdjust="spacingAndGlyphs" textLength="0" x="194" y="79.8857"/><rect fill="#08427B" height="85.1875" style="stroke: #073B6F; stroke-width: 1.5;" width="152" x="300" y="170"/><text fill="#FFFFFF" font-family="sans-serif" font-size="12" font-style="italic" lengthAdjust="spacingAndGlyphs" textLength="57" x="347.5" y="191.1387">«person»</text><text fill="#FFFFFF" font-family="sans-serif" font-size="16" font-weight="bold" lengthAdjust="spacingAndGlyphs" textLength="132" x="310" y="208.8203">Privileged user</text><text fill="#FFFFFF" font-family="sans-serif" font-size="14" lengthAdjust="spacingAndGlyphs" textLength="0" x="378" y="225.5889"/><text fill="#FFFFFF" font-family="sans-serif" font-size="14" lengthAdjust="spacingAndGlyphs" textLength="0" x="378" y="241.8857"/><rect fill="#08427B" height="85.1875" style="stroke: #073B6F; stroke-width: 1.5;" width="103" x="782.5" y="398"/><text fill="#FFFFFF" font-family="sans-serif" font-size="12" font-style="italic" lengthAdjust="spacingAndGlyphs" textLength="57" x="805.5" y="419.1387">«person»</text><text fill="#FFFFFF" font-family="sans-serif" font-size="16" font-weight="bold" lengthAdjust="spacingAndGlyphs" textLength="83" x="792.5" y="436.8203">Sysadmin</text><text fill="#FFFFFF" font-family="sans-serif" font-size="14" lengthAdjust="spacingAndGlyphs" textLength="0" x="836" y="453.5889"/><text fill="#FFFFFF" font-family="sans-serif" font-size="14" lengthAdjust="spacingAndGlyphs" textLength="0" x="836" y="469.8857"/><rect fill="#999999" height="52.5938" style="stroke: #8A8A8A; stroke-width: 1.5;" width="146" x="119" y="186"/><text fill="#FFFFFF" font-family="sans-serif" font-size="12" font-style="italic" lengthAdjust="spacingAndGlyphs" textLength="115" x="134.5" y="207.1387">«external_system»</text><text fill="#FFFFFF" font-family="sans-serif" font-size="16" font-weight="bold" lengthAdjust="spacingAndGlyphs" textLength="126" x="129" y="224.8203">Client website</text><path d="M192,93.12 C192,120.44 192,155.58 192,180.45 " fill="none" id="user_r-&gt;web" style="stroke: #666666; stroke-width: 1.0;"/><polygon fill="#666666" points="192,185.6,196,176.6,192,180.6,188,176.6,192,185.6" style="stroke: #666666; stroke-width: 1.0;"/><text fill="#666666" font-family="sans-serif" font-size="13" font-weight="bold" lengthAdjust="spacingAndGlyphs" textLength="121" x="193" y="136.0669">Perform Queries</text><path d="M361.23,255.22 C345.51,299.65 320.98,368.93 306.91,408.67 " fill="none" id="user_w-&gt;api" style="stroke: #666666; stroke-width: 1.0;"/><polygon fill="#666666" points="305.08,413.84,311.8575,406.694,306.7508,409.1274,304.3174,404.0207,305.08,413.84" style="stroke: #666666; stroke-width: 1.0;"/><text fill="#666666" font-family="sans-serif" font-size="13" font-weight="bold" lengthAdjust="spacingAndGlyphs" textLength="124" x="351" y="305.0669">Add/remove/edit</text><text fill="#666666" font-family="sans-serif" font-size="13" font-weight="bold" lengthAdjust="spacingAndGlyphs" textLength="112" x="359.5" y="320.1997">tags and items</text><path d="M795.42,483.03 C763.74,517.14 719.63,564.62 691.44,594.96 " fill="none" id="user_a-&gt;adm_api" style="stroke: #666666; stroke-width: 1.0;"/><polygon fill="#666666" points="687.75,598.94,696.8156,595.091,691.1621,595.2852,690.9679,589.6317,687.75,598.94" style="stroke: #666666; stroke-width: 1.0;"/><text fill="#666666" font-family="sans-serif" font-size="13" font-weight="bold" lengthAdjust="spacingAndGlyphs" textLength="59" x="796.5" y="526.0669">Manage</text><text fill="#666666" font-family="sans-serif" font-size="13" font-weight="bold" lengthAdjust="spacingAndGlyphs" textLength="122" x="765" y="541.1997">permissions and</text><text fill="#666666" font-family="sans-serif" font-size="13" font-weight="bold" lengthAdjust="spacingAndGlyphs" textLength="78" x="789.5" y="556.3325">databases</text><path d="M296,652.28 C296,678.68 296,719.69 296,747.76 " fill="none" id="proc-&gt;db" style="stroke: #666666; stroke-width: 1.0;"/><polygon fill="#666666" points="296,752.84,300,743.84,296,747.84,292,743.84,296,752.84" style="stroke: #666666; stroke-width: 1.0;"/><text fill="#666666" font-family="sans-serif" font-size="13" font-weight="bold" lengthAdjust="spacingAndGlyphs" textLength="61" x="299.5" y="704.5669">Retrieve</text><text fill="#666666" font-family="sans-serif" font-size="12" font-style="italic" lengthAdjust="spacingAndGlyphs" textLength="66" x="297" y="718.7715">[raw data]</text><path d="M199.44,239.26 C206.78,263.44 218.92,300.38 233,331 C245.66,358.53 263.16,388.18 276.51,409.51 " fill="none" id="web-&gt;api" style="stroke: #666666; stroke-width: 1.0;"/><polygon fill="#666666" points="279.29,413.94,277.9032,404.1893,276.6362,409.7024,271.123,408.4354,279.29,413.94" style="stroke: #666666; stroke-width: 1.0;"/><text fill="#666666" font-family="sans-serif" font-size="13" font-weight="bold" lengthAdjust="spacingAndGlyphs" textLength="88" x="234" y="298.0669">Translate or</text><text fill="#666666" font-family="sans-serif" font-size="13" font-weight="bold" lengthAdjust="spacingAndGlyphs" textLength="58" x="251.5" y="313.1997">forward</text><text fill="#666666" font-family="sans-serif" font-size="12" font-style="italic" lengthAdjust="spacingAndGlyphs" textLength="46" x="257.5" y="327.4043">[query]</text><path d="M296,467.33 C296,500.57 296,558.26 296,593.73 " fill="none" id="api-&gt;proc" style="stroke: #666666; stroke-width: 1.0;"/><polygon fill="#666666" points="296,598.8,300,589.8,296,593.8,292,589.8,296,598.8" style="stroke: #666666; stroke-width: 1.0;"/><text fill="#666666" font-family="sans-serif" font-size="13" font-weight="bold" lengthAdjust="spacingAndGlyphs" textLength="58" x="297" y="534.0669">Execute</text><text fill="#666666" font-family="sans-serif" font-size="12" font-style="italic" lengthAdjust="spacingAndGlyphs" textLength="46" x="303" y="548.2715">[query]</text><path d="M601.99,652.11 C527.53,682.87 404.55,733.67 339.48,760.54 " fill="none" id="adm_api-&gt;db" style="stroke: #666666; stroke-width: 1.0;"/><polygon fill="#666666" points="334.52,762.59,344.3655,762.8467,339.1404,760.6791,341.308,755.454,334.52,762.59" style="stroke: #666666; stroke-width: 1.0;"/><text fill="#666666" font-family="sans-serif" font-size="13" font-weight="bold" lengthAdjust="spacingAndGlyphs" textLength="136" x="503" y="704.0669">Perform structural</text><text fill="#666666" font-family="sans-serif" font-size="13" font-weight="bold" lengthAdjust="spacingAndGlyphs" textLength="62" x="542.5" y="719.1997">changes</text><path d="M257.39,458.22 C184.9,492.13 40.15,573.25 91,661 C125.6,720.71 203.25,752.68 252.43,767.59 " fill="none" id="api-&gt;db" style="stroke: #666666; stroke-width: 1.0;"/><polygon fill="#666666" points="257.39,769.07,249.9049,762.6689,252.5977,767.6437,247.6229,770.3365,257.39,769.07" style="stroke: #666666; stroke-width: 1.0;"/><text fill="#666666" font-family="sans-serif" font-size="13" font-weight="bold" lengthAdjust="spacingAndGlyphs" textLength="130" x="92" y="623.0669">Store and update</text><text fill="#666666" font-family="sans-serif" font-size="12" font-style="italic" lengthAdjust="spacingAndGlyphs" textLength="66" x="124" y="637.2715">[raw data]</text><path d="M320.7,467.17 C333.67,480.73 349.78,497.68 364,513 C386.25,536.97 410.89,564.16 430.27,585.7 " fill="none" id="api-&gt;auth" style="stroke: #666666; stroke-width: 1.0;"/><polygon fill="#666666" points="433.82,589.65,430.7725,580.2845,430.4752,585.9335,424.8261,585.6362,433.82,589.65" style="stroke: #666666; stroke-width: 1.0;"/><text fill="#666666" font-family="sans-serif" font-size="13" font-weight="bold" lengthAdjust="spacingAndGlyphs" textLength="94" x="406" y="541.0669">Authenticate</text></g></svg>