<?xml version="1.0" encoding="UTF-8" standalone="no"?><svg xmlns="http://www.w3.org/2000/svg" xmlns:xlink="http://www.w3.org/1999/xlink" contentScriptType="application/ecmascript" contentStyleType="text/css" height="500px" preserveAspectRatio="none" style="width:874px;height:500px;" version="1.1" viewBox="0 0 874 500" width="874px" zoomAndPan="magnify"><defs/><g><text fill="#000000" font-family="Courier" font-size="14" font-weight="bold" lengthAdjust="spacingAndGlyphs" textLength="248" x="311.5" y="22.9951">Coeus "User Query" Process View</text><rect fill="#FFFFFF" height="346.4609" style="stroke: #383838; stroke-width: 1.0;" width="10" x="162" y="95.7266"/><rect fill="#FFFFFF" height="40.1328" style="stroke: #383838; stroke-width: 1.0;" width="10" x="167" y="365.9219"/><rect fill="#FFFFFF" height="29.1328" style="stroke: #383838; stroke-width: 1.0;" width="10" x="335" y="124.8594"/><rect fill="#FFFFFF" height="145.6641" style="stroke: #383838; stroke-width: 1.0;" width="10" x="483" y="183.125"/><rect fill="#FFFFFF" height="87.3984" style="stroke: #383838; stroke-width: 1.0;" width="10" x="635" y="212.2578"/><rect fill="#FFFFFF" height="29.1328" style="stroke: #383838; stroke-width: 1.0;" width="10" x="787" y="241.3906"/><line style="stroke: #383838; stroke-width: 1.0; stroke-dasharray: 5.0,5.0;" x1="55" x2="55" y1="64.5938" y2="460.1875"/><line style="stroke: #383838; stroke-width: 1.0; stroke-dasharray: 5.0,5.0;" x1="167" x2="167" y1="64.5938" y2="460.1875"/><line style="stroke: #383838; stroke-width: 1.0; stroke-dasharray: 5.0,5.0;" x1="340" x2="340" y1="64.5938" y2="460.1875"/><line style="stroke: #383838; stroke-width: 1.0; stroke-dasharray: 5.0,5.0;" x1="488" x2="488" y1="64.5938" y2="460.1875"/><line style="stroke: #383838; stroke-width: 1.0; stroke-dasharray: 5.0,5.0;" x1="640" x2="640" y1="64.5938" y2="460.1875"/><line style="stroke: #383838; stroke-width: 1.0; stroke-dasharray: 5.0,5.0;" x1="792" x2="792" y1="64.5938" y2="460.1875"/><rect fill="#F8F8F8" height="30.2969" style="stroke: #383838; stroke-width: 1.5;" width="94" x="8" y="33.2969"/><text fill="#000000" font-family="Courier" font-size="14" lengthAdjust="spacingAndGlyphs" textLength="80" x="15" y="53.292">Client API</text><rect fill="#F8F8F8" height="30.2969" style="stroke: #383838; stroke-width: 1.5;" width="94" x="8" y="459.1875"/><text fill="#000000" font-family="Courier" font-size="14" lengthAdjust="spacingAndGlyphs" textLength="80" x="15" y="479.1826">Client API</text><rect fill="#F8F8F8" height="30.2969" style="stroke: #383838; stroke-width: 1.5;" width="110" x="112" y="33.2969"/><text fill="#000000" font-family="Courier" font-size="14" lengthAdjust="spacingAndGlyphs" textLength="96" x="119" y="53.292">Query Engine</text><rect fill="#F8F8F8" height="30.2969" style="stroke: #383838; stroke-width: 1.5;" width="110" x="112" y="459.1875"/><text fill="#000000" font-family="Courier" font-size="14" lengthAdjust="spacingAndGlyphs" textLength="96" x="119" y="479.1826">Query Engine</text><rect fill="#F8F8F8" height="30.2969" style="stroke: #383838; stroke-width: 1.5;" width="134" x="273" y="33.2969"/><text fill="#000000" font-family="Courier" font-size="14" lengthAdjust="spacingAndGlyphs" textLength="120" x="280" y="53.292">Shard Directory</text><rect fill="#F8F8F8" height="30.2969" style="stroke: #383838; stroke-width: 1.5;" width="134" x="273" y="459.1875"/><text fill="#000000" font-family="Courier" font-size="14" lengthAdjust="spacingAndGlyphs" textLength="120" x="280" y="479.1826">Shard Directory</text><rect fill="#F8F8F8" height="30.2969" style="stroke: #383838; stroke-width: 1.5;" width="142" x="417" y="33.2969"/><text fill="#000000" font-family="Courier" font-size="14" lengthAdjust="spacingAndGlyphs" textLength="128" x="424" y="53.292">Database Shard 1</text><rect fill="#F8F8F8" height="30.2969" style="stroke: #383838; stroke-width: 1.5;" width="142" x="417" y="459.1875"/><text fill="#000000" font-family="Courier" font-size="14" lengthAdjust="spacingAndGlyphs" textLength="128" x="424" y="479.1826">Database Shard 1</text><rect fill="#F8F8F8" height="30.2969" style="stroke: #383838; stroke-width: 1.5;" width="142" x="569" y="33.2969"/><text fill="#000000" font-family="Courier" font-size="14" lengthAdjust="spacingAndGlyphs" textLength="128" x="576" y="53.292">Database Shard 2</text><rect fill="#F8F8F8" height="30.2969" style="stroke: #383838; stroke-width: 1.5;" width="142" x="569" y="459.1875"/><text fill="#000000" font-family="Courier" font-size="14" lengthAdjust="spacingAndGlyphs" textLength="128" x="576" y="479.1826">Database Shard 2</text><rect fill="#F8F8F8" height="30.2969" style="stroke: #383838; stroke-width: 1.5;" width="142" x="721" y="33.2969"/><text fill="#000000" font-family="Courier" font-size="14" lengthAdjust="spacingAndGlyphs" textLength="128" x="728" y="53.292">Database Shard 3</text><rect fill="#F8F8F8" height="30.2969" style="stroke: #383838; stroke-width: 1.5;" width="142" x="721" y="459.1875"/><text fill="#000000" font-family="Courier" font-size="14" lengthAdjust="spacingAndGlyphs" textLength="128" x="728" y="479.1826">Database Shard 3</text><rect fill="#FFFFFF" height="346.4609" style="stroke: #383838; stroke-width: 1.0;" width="10" x="162" y="95.7266"/><rect fill="#FFFFFF" height="40.1328" style="stroke: #383838; stroke-width: 1.0;" width="10" x="167" y="365.9219"/><rect fill="#FFFFFF" height="29.1328" style="stroke: #383838; stroke-width: 1.0;" width="10" x="335" y="124.8594"/><rect fill="#FFFFFF" height="145.6641" style="stroke: #383838; stroke-width: 1.0;" width="10" x="483" y="183.125"/><rect fill="#FFFFFF" height="87.3984" style="stroke: #383838; stroke-width: 1.0;" width="10" x="635" y="212.2578"/><rect fill="#FFFFFF" height="29.1328" style="stroke: #383838; stroke-width: 1.0;" width="10" x="787" y="241.3906"/><polygon fill="#383838" points="150,91.7266,160,95.7266,150,99.7266,154,95.7266" style="stroke: #383838; stroke-width: 1.0;"/><line style="stroke: #383838; stroke-width: 1.0;" x1="55" x2="156" y1="95.7266" y2="95.7266"/><text fill="#000000" font-family="Courier" font-size="13" lengthAdjust="spacingAndGlyphs" textLength="40" x="62" y="90.6606">Query</text><polygon fill="#383838" points="323,120.8594,333,124.8594,323,128.8594,327,124.8594" style="stroke: #383838; stroke-width: 1.0;"/><line style="stroke: #383838; stroke-width: 1.0;" x1="172" x2="329" y1="124.8594" y2="124.8594"/><text fill="#000000" font-family="Courier" font-size="13" lengthAdjust="spacingAndGlyphs" textLength="144" x="179" y="119.7935">Retrieve locations</text><polygon fill="#383838" points="183,149.9922,173,153.9922,183,157.9922,179,153.9922" style="stroke: #383838; stroke-width: 1.0;"/><line style="stroke: #383838; stroke-width: 1.0; stroke-dasharray: 2.0,2.0;" x1="177" x2="339" y1="153.9922" y2="153.9922"/><text fill="#000000" font-family="Courier" font-size="13" lengthAdjust="spacingAndGlyphs" textLength="112" x="189" y="148.9263">Data Locations</text><polygon fill="#383838" points="471,179.125,481,183.125,471,187.125,475,183.125" style="stroke: #383838; stroke-width: 1.0;"/><line style="stroke: #383838; stroke-width: 1.0;" x1="172" x2="477" y1="183.125" y2="183.125"/><text fill="#000000" font-family="Courier" font-size="13" lengthAdjust="spacingAndGlyphs" textLength="88" x="179" y="178.0591">Subquery #1</text><polygon fill="#383838" points="623,208.2578,633,212.2578,623,216.2578,627,212.2578" style="stroke: #383838; stroke-width: 1.0;"/><line style="stroke: #383838; stroke-width: 1.0;" x1="172" x2="629" y1="212.2578" y2="212.2578"/><text fill="#000000" font-family="Courier" font-size="13" lengthAdjust="spacingAndGlyphs" textLength="88" x="179" y="207.1919">Subquery #1</text><polygon fill="#383838" points="775,237.3906,785,241.3906,775,245.3906,779,241.3906" style="stroke: #383838; stroke-width: 1.0;"/><line style="stroke: #383838; stroke-width: 1.0;" x1="172" x2="781" y1="241.3906" y2="241.3906"/><text fill="#000000" font-family="Courier" font-size="13" lengthAdjust="spacingAndGlyphs" textLength="88" x="179" y="236.3247">Subquery #1</text><polygon fill="#383838" points="183,266.5234,173,270.5234,183,274.5234,179,270.5234" style="stroke: #383838; stroke-width: 1.0;"/><line style="stroke: #383838; stroke-width: 1.0; stroke-dasharray: 2.0,2.0;" x1="177" x2="791" y1="270.5234" y2="270.5234"/><text fill="#000000" font-family="Courier" font-size="13" lengthAdjust="spacingAndGlyphs" textLength="112" x="189" y="265.4575">Partial result</text><polygon fill="#383838" points="183,295.6563,173,299.6563,183,303.6563,179,299.6563" style="stroke: #383838; stroke-width: 1.0;"/><line style="stroke: #383838; stroke-width: 1.0; stroke-dasharray: 2.0,2.0;" x1="177" x2="639" y1="299.6563" y2="299.6563"/><text fill="#000000" font-family="Courier" font-size="13" lengthAdjust="spacingAndGlyphs" textLength="112" x="189" y="294.5903">Partial result</text><polygon fill="#383838" points="183,324.7891,173,328.7891,183,332.7891,179,328.7891" style="stroke: #383838; stroke-width: 1.0;"/><line style="stroke: #383838; stroke-width: 1.0; stroke-dasharray: 2.0,2.0;" x1="177" x2="487" y1="328.7891" y2="328.7891"/><text fill="#000000" font-family="Courier" font-size="13" lengthAdjust="spacingAndGlyphs" textLength="112" x="189" y="323.7231">Partial result</text><line style="stroke: #383838; stroke-width: 1.0;" x1="172" x2="219" y1="352.9219" y2="352.9219"/><line style="stroke: #383838; stroke-width: 1.0;" x1="219" x2="219" y1="352.9219" y2="365.9219"/><line style="stroke: #383838; stroke-width: 1.0;" x1="178" x2="219" y1="365.9219" y2="365.9219"/><polygon fill="#383838" points="188,361.9219,178,365.9219,188,369.9219,184,365.9219" style="stroke: #383838; stroke-width: 1.0;"/><text fill="#000000" font-family="Courier" font-size="13" lengthAdjust="spacingAndGlyphs" textLength="72" x="184" y="347.856">aggregate</text><line style="stroke: #383838; stroke-width: 1.0; stroke-dasharray: 2.0,2.0;" x1="177" x2="219" y1="405.0547" y2="405.0547"/><line style="stroke: #383838; stroke-width: 1.0; stroke-dasharray: 2.0,2.0;" x1="219" x2="219" y1="405.0547" y2="418.0547"/><line style="stroke: #383838; stroke-width: 1.0; stroke-dasharray: 2.0,2.0;" x1="172" x2="219" y1="418.0547" y2="418.0547"/><polygon fill="#383838" points="182,414.0547,172,418.0547,182,422.0547,178,418.0547" style="stroke: #383838; stroke-width: 1.0;"/><text fill="#000000" font-family="Courier" font-size="13" lengthAdjust="spacingAndGlyphs" textLength="48" x="184" y="399.9888">Result</text><polygon fill="#383838" points="66,438.1875,56,442.1875,66,446.1875,62,442.1875" style="stroke: #383838; stroke-width: 1.0;"/><line style="stroke: #383838; stroke-width: 1.0; stroke-dasharray: 2.0,2.0;" x1="60" x2="166" y1="442.1875" y2="442.1875"/><text fill="#000000" font-family="Courier" font-size="13" lengthAdjust="spacingAndGlyphs" textLength="48" x="72" y="437.1216">Result</text></g></svg>