<?xml version="1.0" encoding="UTF-8" standalone="no"?><svg xmlns="http://www.w3.org/2000/svg" xmlns:xlink="http://www.w3.org/1999/xlink" contentScriptType="application/ecmascript" contentStyleType="text/css" height="1141px" preserveAspectRatio="none" style="width:954px;height:1141px;" version="1.1" viewBox="0 0 954 1141" width="954px" zoomAndPan="magnify"><defs/><g><rect fill="#FFFFFF" height="528" style="stroke: #444444; stroke-width: 1.0; stroke-dasharray: 7.0,7.0;" width="420" x="22" y="24"/><text fill="#000000" font-family="sans-serif" font-size="14" font-style="italic" lengthAdjust="spacingAndGlyphs" textLength="84" x="190" y="38.9951">«boundary»</text><text fill="#444444" font-family="sans-serif" font-size="16" font-weight="bold" lengthAdjust="spacingAndGlyphs" textLength="94" x="185" y="57.1484">API server</text><rect fill="#438DD5" height="166" style="stroke: #3C7FC0; stroke-width: 1.5;" width="173" x="237" y="93"/><text fill="#000000" font-family="sans-serif" font-size="14" font-style="italic" lengthAdjust="spacingAndGlyphs" textLength="83" x="282" y="107.9951">«container»</text><text fill="#FFFFFF" font-family="sans-serif" font-size="16" font-weight="bold" lengthAdjust="spacingAndGlyphs" textLength="30" x="308.5" y="126.1484">API</text><text fill="#FFFFFF" font-family="sans-serif" font-size="12" font-style="italic" font-weight="bold" lengthAdjust="spacingAndGlyphs" textLength="10" x="318.5" y="141.0605">[]</text><rect fill="#FFFFFF" height="267" style="stroke: #444444; stroke-width: 1.0; stroke-dasharray: 7.0,7.0;" width="477" x="466" y="316"/><text fill="#000000" font-family="sans-serif" font-size="14" font-style="italic" lengthAdjust="spacingAndGlyphs" textLength="84" x="662.5" y="330.9951">«boundary»</text><text fill="#444444" font-family="sans-serif" font-size="16" font-weight="bold" lengthAdjust="spacingAndGlyphs" textLength="165" x="622" y="349.1484">Processor servers</text><rect fill="#438DD5" height="166" style="stroke: #3C7FC0; stroke-width: 1.5;" width="413" x="498" y="385"/><text fill="#000000" font-family="sans-serif" font-size="14" font-style="italic" lengthAdjust="spacingAndGlyphs" textLength="83" x="663" y="399.9951">«container»</text><text fill="#FFFFFF" font-family="sans-serif" font-size="16" font-weight="bold" lengthAdjust="spacingAndGlyphs" textLength="91" x="659" y="418.1484">Processor</text><text fill="#FFFFFF" font-family="sans-serif" font-size="12" font-style="italic" font-weight="bold" lengthAdjust="spacingAndGlyphs" textLength="10" x="699.5" y="433.0605">[]</text><rect fill="#FFFFFF" height="498" style="stroke: #444444; stroke-width: 1.0; stroke-dasharray: 7.0,7.0;" width="275" x="404" y="632"/><text fill="#000000" font-family="sans-serif" font-size="14" font-style="italic" lengthAdjust="spacingAndGlyphs" textLength="84" x="499.5" y="646.9951">«boundary»</text><text fill="#444444" font-family="sans-serif" font-size="16" font-weight="bold" lengthAdjust="spacingAndGlyphs" textLength="99" x="492" y="665.1484">DB servers</text><rect fill="#438DD5" height="166" style="stroke: #3C7FC0; stroke-width: 1.5;" width="211" x="436" y="701"/><text fill="#000000" font-family="sans-serif" font-size="14" font-style="italic" lengthAdjust="spacingAndGlyphs" textLength="83" x="500" y="715.9951">«container»</text><text fill="#FFFFFF" font-family="sans-serif" font-size="16" font-weight="bold" lengthAdjust="spacingAndGlyphs" textLength="124" x="479.5" y="734.1484">Data Manager</text><text fill="#FFFFFF" font-family="sans-serif" font-size="12" font-style="italic" font-weight="bold" lengthAdjust="spacingAndGlyphs" textLength="10" x="536.5" y="749.0605">[]</text><rect fill="#438DD5" height="166" style="stroke: #3C7FC0; stroke-width: 1.5;" width="173" x="447" y="932"/><text fill="#000000" font-family="sans-serif" font-size="14" font-style="italic" lengthAdjust="spacingAndGlyphs" textLength="83" x="492" y="946.9951">«container»</text><text fill="#FFFFFF" font-family="sans-serif" font-size="16" font-weight="bold" lengthAdjust="spacingAndGlyphs" textLength="83" x="492" y="965.1484">Database</text><text fill="#FFFFFF" font-family="sans-serif" font-size="12" font-style="italic" font-weight="bold" lengthAdjust="spacingAndGlyphs" textLength="10" x="528.5" y="980.0605">[]</text><rect fill="#438DD5" height="66.5625" style="stroke: #3C7FC0; stroke-width: 1.5;" width="171" x="38.5" y="168"/><text fill="#FFFFFF" font-family="sans-serif" font-size="12" font-style="italic" lengthAdjust="spacingAndGlyphs" textLength="74" x="87" y="189.1387">«container»</text><text fill="#FFFFFF" font-family="sans-serif" font-size="16" font-weight="bold" lengthAdjust="spacingAndGlyphs" textLength="151" x="48.5" y="206.8203">Management API</text><text fill="#FFFFFF" font-family="sans-serif" font-size="12" font-style="italic" lengthAdjust="spacingAndGlyphs" textLength="10" x="119" y="221.7324">[]</text><rect fill="#438DD5" height="85.1875" style="stroke: #3C7FC0; stroke-width: 1.5;" width="156" x="167" y="451"/><text fill="#FFFFFF" font-family="sans-serif" font-size="12" font-style="italic" lengthAdjust="spacingAndGlyphs" textLength="74" x="208" y="472.1387">«container»</text><text fill="#FFFFFF" font-family="sans-serif" font-size="16" font-weight="bold" lengthAdjust="spacingAndGlyphs" textLength="130" x="177" y="489.8203">Authentication</text><text fill="#FFFFFF" font-family="sans-serif" font-size="16" font-weight="bold" lengthAdjust="spacingAndGlyphs" textLength="65" x="212.5" y="508.4453">Service</text><text fill="#FFFFFF" font-family="sans-serif" font-size="12" font-style="italic" lengthAdjust="spacingAndGlyphs" textLength="10" x="240" y="523.3574">[]</text><rect fill="#85BBF0" height="66.5625" style="stroke: #78A8D8; stroke-width: 1.5;" width="106" x="280" y="168"/><text fill="#FFFFFF" font-family="sans-serif" font-size="12" font-style="italic" lengthAdjust="spacingAndGlyphs" textLength="85" x="290.5" y="189.1387">«component»</text><text fill="#000000" font-family="sans-serif" font-size="16" font-weight="bold" lengthAdjust="spacingAndGlyphs" textLength="86" x="290" y="206.8203">Client API</text><text fill="#000000" font-family="sans-serif" font-size="12" font-style="italic" lengthAdjust="spacingAndGlyphs" textLength="10" x="328" y="221.7324">[]</text><rect fill="#85BBF0" height="66.5625" style="stroke: #78A8D8; stroke-width: 1.5;" width="171" x="715.5" y="460"/><text fill="#FFFFFF" font-family="sans-serif" font-size="12" font-style="italic" lengthAdjust="spacingAndGlyphs" textLength="85" x="758.5" y="481.1387">«component»</text><text fill="#000000" font-family="sans-serif" font-size="16" font-weight="bold" lengthAdjust="spacingAndGlyphs" textLength="151" x="725.5" y="498.8203">Query Processor</text><text fill="#000000" font-family="sans-serif" font-size="12" font-style="italic" lengthAdjust="spacingAndGlyphs" textLength="10" x="796" y="513.7324">[]</text><rect fill="#85BBF0" height="66.5625" style="stroke: #78A8D8; stroke-width: 1.5;" width="139" x="541.5" y="460"/><text fill="#FFFFFF" font-family="sans-serif" font-size="12" font-style="italic" lengthAdjust="spacingAndGlyphs" textLength="85" x="568.5" y="481.1387">«component»</text><text fill="#000000" font-family="sans-serif" font-size="16" font-weight="bold" lengthAdjust="spacingAndGlyphs" textLength="119" x="551.5" y="498.8203">Query Parser</text><text fill="#000000" font-family="sans-serif" font-size="12" font-style="italic" lengthAdjust="spacingAndGlyphs" textLength="10" x="606" y="513.7324">[]</text><rect fill="#85BBF0" height="66.5625" style="stroke: #78A8D8; stroke-width: 1.5;" width="144" x="479" y="776"/><text fill="#FFFFFF" font-family="sans-serif" font-size="12" font-style="italic" lengthAdjust="spacingAndGlyphs" textLength="85" x="508.5" y="797.1387">«component»</text><text fill="#000000" font-family="sans-serif" font-size="16" font-weight="bold" lengthAdjust="spacingAndGlyphs" textLength="124" x="489" y="814.8203">Data Manager</text><text fill="#000000" font-family="sans-serif" font-size="12" font-style="italic" lengthAdjust="spacingAndGlyphs" textLength="10" x="546" y="829.7324">[]</text><rect fill="#85BBF0" height="66.5625" style="stroke: #78A8D8; stroke-width: 1.5;" width="105" x="490.5" y="1007"/><text fill="#FFFFFF" font-family="sans-serif" font-size="12" font-style="italic" lengthAdjust="spacingAndGlyphs" textLength="85" x="500.5" y="1028.1387">«component»</text><text fill="#000000" font-family="sans-serif" font-size="16" font-weight="bold" lengthAdjust="spacingAndGlyphs" textLength="52" x="517" y="1045.8203">DBMS</text><text fill="#000000" font-family="sans-serif" font-size="12" font-style="italic" lengthAdjust="spacingAndGlyphs" textLength="10" x="538" y="1060.7324">[]</text><rect fill="#FEFECE" height="48.625" style="stroke: #444444; stroke-width: 1.0; stroke-dasharray: 7.0,7.0;" width="108" x="695" y="1016"/><text fill="#000000" font-family="sans-serif" font-size="0" font-style="italic" lengthAdjust="spacingAndGlyphs" textLength="0" x="749" y="1026">«boundary»</text><text fill="#444444" font-family="sans-serif" font-size="16" font-weight="bold" lengthAdjust="spacingAndGlyphs" textLength="88" x="705" y="1050.8516">The Cloud</text><path d="M161.29,235.02 C180.29,249.74 204.51,265.85 229,275 C277.61,293.16 311.37,265.39 341,308 C405.32,400.5 431.1725,524.4 440.8938,625.78 C443.3241,651.125 444.7462,675.0625 445.5091,696.75 C445.5568,698.1055 445.6019,699.4521 445.6445,700.7898 " fill="none" id="adm_api-&gt;dbmng" style="stroke: #666666; stroke-width: 1.0;"/><polygon fill="#666666" points="445.6445,700.7898,449.3559,691.667,445.4853,695.7924,441.3599,691.9218,445.6445,700.7898" style="stroke: #666666; stroke-width: 1.0;"/><text fill="#666666" font-family="sans-serif" font-size="13" font-weight="bold" lengthAdjust="spacingAndGlyphs" textLength="30" x="437" y="498.0669">RPC</text><path d="M497.9608,514.1932 C497.9044,514.3364 497.8477,514.4803 497.7908,514.6248 C497.677,514.9138 497.5624,515.2054 497.4469,515.4995 C497.2159,516.0878 496.9816,516.6861 496.7442,517.2943 C496.2693,518.5106 495.7818,519.7662 495.283,521.0587 C493.288,526.2287 491.1131,531.9891 488.8475,538.1888 C479.785,562.9875 469.27,594.815 463,624 C458.74,643.835 455.4263,665.0813 452.8509,685.8428 C452.529,688.438 452.2186,691.0256 451.9194,693.602 C451.7698,694.8901 451.6229,696.1755 451.4788,697.4576 C451.4068,698.0986 451.3354,698.7388 451.2647,699.3782 C451.2294,699.6978 451.1942,700.0173 451.1592,700.3365 " fill="none" id="proc-&gt;dbmng" style="stroke: #666666; stroke-width: 1.0;"/><polygon fill="#666666" points="451.1592,700.3365,456.1165,691.8262,451.7043,695.3663,448.1642,690.9541,451.1592,700.3365" style="stroke: #666666; stroke-width: 1.0;"/><text fill="#666666" font-family="sans-serif" font-size="13" font-weight="bold" lengthAdjust="spacingAndGlyphs" textLength="30" x="469" y="612.0669">RPC</text><path d="M245,259.5351 C245,270.4195 245,282.3669 245,294.9225 C245,345.145 245,405.1 245,445.69 " fill="none" id="api-&gt;auth" style="stroke: #666666; stroke-width: 1.0;"/><polygon fill="#666666" points="245,450.93,249,441.93,245,445.93,241,441.93,245,450.93" style="stroke: #666666; stroke-width: 1.0;"/><text fill="#666666" font-family="sans-serif" font-size="13" font-weight="bold" lengthAdjust="spacingAndGlyphs" textLength="46" x="246" y="296.0669">HTTPS</text><path d="M251.8887,259.0304 C251.9958,259.2576 252.1044,259.484 252.2144,259.7096 C252.4343,260.1608 252.66,260.6087 252.8916,261.0529 C253.8178,262.83 254.8379,264.5496 255.9607,266.1933 C258.2063,269.4808 260.8625,272.465 264,275 C279.4,287.44 426.36,270.87 442,283 C460.9325,297.6825 474.4225,317.8263 484.0022,339.8541 C488.792,350.868 492.6043,362.3529 495.6305,373.8617 C496.3871,376.7389 497.0945,379.6176 497.7558,382.4908 C497.9211,383.2091 498.0835,383.927 498.2431,384.6445 " fill="none" id="api-&gt;proc" style="stroke: #666666; stroke-width: 1.0;"/><polygon fill="#666666" points="498.2431,384.6445,500.1935,374.9907,497.1575,379.7638,492.3844,376.7278,498.2431,384.6445" style="stroke: #666666; stroke-width: 1.0;"/><text fill="#666666" font-family="sans-serif" font-size="13" font-weight="bold" lengthAdjust="spacingAndGlyphs" textLength="30" x="459" y="296.0669">RPC</text><path d="M451.8125,867.0215 C452.0246,867.4817 452.242,867.9391 452.4647,868.3936 C453.3554,870.2115 454.3317,871.9814 455.4012,873.6863 C457.5403,877.0963 460.0525,880.2463 463,883 C476.89,895.97 486.41,887.06 505,891 C552.77,901.13 568.72,893.38 612,916 C657.98,940.03 700.64,983.12 725.76,1011.51 " fill="none" id="dbmng-&gt;cloud" style="stroke: #666666; stroke-width: 1.0;"/><polygon fill="#666666" points="729.34,1015.59,726.4263,1006.182,726.0485,1011.8262,720.4043,1011.4484,729.34,1015.59" style="stroke: #666666; stroke-width: 1.0;"/><text fill="#666666" font-family="sans-serif" font-size="13" font-weight="bold" lengthAdjust="spacingAndGlyphs" textLength="47" x="594" y="904.0669">TCP/IP</text><path d="M446.7475,867.6463 C446.7841,868.4082 446.8209,869.1746 446.8579,869.9453 C446.9319,871.4868 447.0068,873.0458 447.0825,874.6207 C447.2337,877.7704 447.388,880.9837 447.5448,884.2478 C448.1718,897.3042 448.8378,911.1738 449.5037,925.0425 C449.587,926.7761 449.6702,928.5097 449.7534,930.2417 C449.7742,930.6746 449.795,931.1075 449.8158,931.5403 " fill="none" id="dbmng-&gt;db" style="stroke: #666666; stroke-width: 1.0;"/><polygon fill="#666666" points="449.8158,931.5403,453.3795,922.3588,449.5759,926.5461,445.3887,922.7425,449.8158,931.5403" style="stroke: #666666; stroke-width: 1.0;"/><text fill="#666666" font-family="sans-serif" font-size="13" font-weight="bold" lengthAdjust="spacingAndGlyphs" textLength="47" x="449" y="904.0669">TCP/IP</text></g></svg>