<?xml version="1.0" encoding="UTF-8" standalone="no"?><svg xmlns="http://www.w3.org/2000/svg" xmlns:xlink="http://www.w3.org/1999/xlink" contentScriptType="application/ecmascript" contentStyleType="text/css" height="877px" preserveAspectRatio="none" style="width:909px;height:877px;" version="1.1" viewBox="0 0 909 877" width="909px" zoomAndPan="magnify"><defs/><g><rect fill="#FFFFFF" height="519" style="stroke: #444444; stroke-width: 1.0; stroke-dasharray: 7.0,7.0;" width="744" x="22" y="347"/><text fill="#000000" font-family="sans-serif" font-size="14" font-style="italic" lengthAdjust="spacingAndGlyphs" textLength="84" x="352" y="361.9951">«boundary»</text><text fill="#444444" font-family="sans-serif" font-size="16" font-weight="bold" lengthAdjust="spacingAndGlyphs" textLength="55" x="366.5" y="380.1484">Coeus</text><text fill="#444444" font-family="sans-serif" font-size="12" font-weight="bold" lengthAdjust="spacingAndGlyphs" textLength="62" x="363" y="395.0605">[System]</text><path d="M244.5,784 C244.5,774 296,774 296,774 C296,774 347.5,774 347.5,784 L347.5,839.5625 C347.5,849.5625 296,849.5625 296,849.5625 C296,849.5625 244.5,849.5625 244.5,839.5625 L244.5,784 " fill="#438DD5" style="stroke: #3C7FC0; stroke-width: 1.5;"/><path d="M244.5,784 C244.5,794 296,794 296,794 C296,794 347.5,794 347.5,784 " fill="none" style="stroke: #3C7FC0; stroke-width: 1.5;"/><text fill="#FFFFFF" font-family="sans-serif" font-size="12" font-style="italic" lengthAdjust="spacingAndGlyphs" textLength="74" x="259" y="809.1387">«container»</text><text fill="#FFFFFF" font-family="sans-serif" font-size="16" font-weight="bold" lengthAdjust="spacingAndGlyphs" textLength="83" x="254.5" y="826.8203">Database</text><text fill="#FFFFFF" font-family="sans-serif" font-size="12" font-style="italic" lengthAdjust="spacingAndGlyphs" textLength="50" x="271" y="841.7324">[MySQL]</text><rect fill="#438DD5" height="66.5625" style="stroke: #3C7FC0; stroke-width: 1.5;" width="94" x="249" y="414"/><text fill="#FFFFFF" font-family="sans-serif" font-size="12" font-style="italic" lengthAdjust="spacingAndGlyphs" textLength="74" x="259" y="435.1387">«container»</text><text fill="#FFFFFF" font-family="sans-serif" font-size="16" font-weight="bold" lengthAdjust="spacingAndGlyphs" textLength="30" x="281" y="452.8203">API</text><text fill="#FFFFFF" font-family="sans-serif" font-size="12" font-style="italic" lengthAdjust="spacingAndGlyphs" textLength="38" x="277" y="467.7324">[C++]</text><rect fill="#438DD5" height="66.5625" style="stroke: #3C7FC0; stroke-width: 1.5;" width="171" x="578.5" y="606"/><text fill="#FFFFFF" font-family="sans-serif" font-size="12" font-style="italic" lengthAdjust="spacingAndGlyphs" textLength="74" x="627" y="627.1387">«container»</text><text fill="#FFFFFF" font-family="sans-serif" font-size="16" font-weight="bold" lengthAdjust="spacingAndGlyphs" textLength="151" x="588.5" y="644.8203">Management API</text><text fill="#FFFFFF" font-family="sans-serif" font-size="12" font-style="italic" lengthAdjust="spacingAndGlyphs" textLength="38" x="645" y="659.7324">[C++]</text><rect fill="#438DD5" height="66.5625" style="stroke: #3C7FC0; stroke-width: 1.5;" width="111" x="240.5" y="606"/><text fill="#FFFFFF" font-family="sans-serif" font-size="12" font-style="italic" lengthAdjust="spacingAndGlyphs" textLength="74" x="259" y="627.1387">«container»</text><text fill="#FFFFFF" font-family="sans-serif" font-size="16" font-weight="bold" lengthAdjust="spacingAndGlyphs" textLength="91" x="250.5" y="644.8203">Processor</text><text fill="#FFFFFF" font-family="sans-serif" font-size="12" font-style="italic" lengthAdjust="spacingAndGlyphs" textLength="38" x="277" y="659.7324">[C++]</text><rect fill="#438DD5" height="85.1875" style="stroke: #3C7FC0; stroke-width: 1.5;" width="156" x="387" y="597"/><text fill="#FFFFFF" font-family="sans-serif" font-size="12" font-style="italic" lengthAdjust="spacingAndGlyphs" textLength="74" x="428" y="618.1387">«container»</text><text fill="#FFFFFF" font-family="sans-serif" font-size="16" font-weight="bold" lengthAdjust="spacingAndGlyphs" textLength="130" x="397" y="635.8203">Authentication</text><text fill="#FFFFFF" font-family="sans-serif" font-size="16" font-weight="bold" lengthAdjust="spacingAndGlyphs" textLength="65" x="432.5" y="654.4453">Service</text><text fill="#FFFFFF" font-family="sans-serif" font-size="12" font-style="italic" lengthAdjust="spacingAndGlyphs" textLength="38" x="446" y="669.3574">[C++]</text><rect fill="#08427B" height="85.1875" style="stroke: #073B6F; stroke-width: 1.5;" width="153" x="115.5" y="8"/><text fill="#FFFFFF" font-family="sans-serif" font-size="12" font-style="italic" lengthAdjust="spacingAndGlyphs" textLength="57" x="163.5" y="29.1387">«person»</text><text fill="#FFFFFF" font-family="sans-serif" font-size="16" font-weight="bold" lengthAdjust="spacingAndGlyphs" textLength="133" x="125.5" y="46.8203">Read-only user</text><text fill="#FFFFFF" font-family="sans-serif" font-size="14" lengthAdjust="spacingAndGlyphs" textLength="0" x="194" y="63.5889"/><text fill="#FFFFFF" font-family="sans-serif" font-size="14" lengthAdjust="spacingAndGlyphs" textLength="0" x="194" y="79.8857"/><rect fill="#08427B" height="85.1875" style="stroke: #073B6F; stroke-width: 1.5;" width="152" x="300" y="170"/><text fill="#FFFFFF" font-family="sans-serif" font-size="12" font-style="italic" lengthAdjust="spacingAndGlyphs" textLength="57" x="347.5" y="191.1387">«person»</text><text fill="#FFFFFF" font-family="sans-serif" font-size="16" font-weight="bold" lengthAdjust="spacingAndGlyphs" textLength="132" x="310" y="208.8203">Privileged user</text><text fill="#FFFFFF" font-family="sans-serif" font-size="14" lengthAdjust="spacingAndGlyphs" textLength="0" x="378" y="225.5889"/><text fill="#FFFFFF" font-family="sans-serif" font-size="14" lengthAdjust="spacingAndGlyphs" textLength="0" x="378" y="241.8857"/><rect fill="#08427B" height="85.1875" style="stroke: #073B6F; stroke-width: 1.5;" width="103" x="782.5" y="405"/><text fill="#FFFFFF" font-family="sans-serif" font-size="12" font-style="italic" lengthAdjust="spacingAndGlyphs" textLength="57" x="805.5" y="426.1387">«person»</text><text fill="#FFFFFF" font-family="sans-serif" font-size="16" font-weight="bold" lengthAdjust="spacingAndGlyphs" textLength="83" x="792.5" y="443.8203">Sysadmin</text><text fill="#FFFFFF" font-family="sans-serif" font-size="14" lengthAdjust="spacingAndGlyphs" textLength="0" x="836" y="460.5889"/><text fill="#FFFFFF" font-family="sans-serif" font-size="14" lengthAdjust="spacingAndGlyphs" textLength="0" x="836" y="476.8857"/><rect fill="#999999" height="52.5938" style="stroke: #8A8A8A; stroke-width: 1.5;" width="146" x="119" y="186"/><text fill="#FFFFFF" font-family="sans-serif" font-size="12" font-style="italic" lengthAdjust="spacingAndGlyphs" textLength="115" x="134.5" y="207.1387">«external_system»</text><text fill="#FFFFFF" font-family="sans-serif" font-size="16" font-weight="bold" lengthAdjust="spacingAndGlyphs" textLength="126" x="129" y="224.8203">Client website</text><path d="M192,93.12 C192,120.44 192,155.58 192,180.45 " fill="none" id="user_r-&gt;web" style="stroke: #666666; stroke-width: 1.0;"/><polygon fill="#666666" points="192,185.6,196,176.6,192,180.6,188,176.6,192,185.6" style="stroke: #666666; stroke-width: 1.0;"/><text fill="#666666" font-family="sans-serif" font-size="13" font-weight="bold" lengthAdjust="spacingAndGlyphs" textLength="121" x="193" y="136.0669">Perform Queries</text><path d="M361.7,255.16 C346.68,298.89 323.29,367.03 308.84,409.1 " fill="none" id="user_w-&gt;api" style="stroke: #666666; stroke-width: 1.0;"/><polygon fill="#666666" points="307.21,413.84,313.9032,406.615,308.8254,409.1081,306.3322,404.0303,307.21,413.84" style="stroke: #666666; stroke-width: 1.0;"/><text fill="#666666" font-family="sans-serif" font-size="13" font-weight="bold" lengthAdjust="spacingAndGlyphs" textLength="124" x="351" y="305.0669">Add/remove/edit</text><text fill="#666666" font-family="sans-serif" font-size="13" font-weight="bold" lengthAdjust="spacingAndGlyphs" textLength="112" x="359.5" y="320.1997">tags and items</text><path d="M796.69,490.2 C766.83,523.58 725.34,569.94 696.75,601.9 " fill="none" id="user_a-&gt;adm_api" style="stroke: #666666; stroke-width: 1.0;"/><polygon fill="#666666" points="693.33,605.72,702.3076,601.6699,696.6598,601.9901,696.3397,596.3423,693.33,605.72" style="stroke: #666666; stroke-width: 1.0;"/><text fill="#666666" font-family="sans-serif" font-size="13" font-weight="bold" lengthAdjust="spacingAndGlyphs" textLength="59" x="801.5" y="533.0669">Manage</text><text fill="#666666" font-family="sans-serif" font-size="13" font-weight="bold" lengthAdjust="spacingAndGlyphs" textLength="122" x="770" y="548.1997">permissions and</text><text fill="#666666" font-family="sans-serif" font-size="13" font-weight="bold" lengthAdjust="spacingAndGlyphs" textLength="78" x="794.5" y="563.3325">databases</text><path d="M296,673.37 C296,700.54 296,739.3 296,768.76 " fill="none" id="proc-&gt;db" style="stroke: #666666; stroke-width: 1.0;"/><polygon fill="#666666" points="296,773.78,300,764.78,296,768.78,292,764.78,296,773.78" style="stroke: #666666; stroke-width: 1.0;"/><text fill="#666666" font-family="sans-serif" font-size="13" font-weight="bold" lengthAdjust="spacingAndGlyphs" textLength="61" x="299.5" y="725.5669">Retrieve</text><text fill="#666666" font-family="sans-serif" font-size="12" font-style="italic" lengthAdjust="spacingAndGlyphs" textLength="66" x="297" y="739.7715">[raw data]</text><path d="M199.62,239.18 C207.1,263.3 219.33,300.19 233,331 C244.98,358.01 260.94,387.22 273.8,409.51 " fill="none" id="web-&gt;api" style="stroke: #666666; stroke-width: 1.0;"/><polygon fill="#666666" points="276.33,413.87,275.2926,404.0759,273.8293,409.5403,268.365,408.077,276.33,413.87" style="stroke: #666666; stroke-width: 1.0;"/><text fill="#666666" font-family="sans-serif" font-size="13" font-weight="bold" lengthAdjust="spacingAndGlyphs" textLength="88" x="234" y="298.0669">Translate or</text><text fill="#666666" font-family="sans-serif" font-size="13" font-weight="bold" lengthAdjust="spacingAndGlyphs" textLength="58" x="251.5" y="313.1997">forward</text><text fill="#666666" font-family="sans-serif" font-size="12" font-style="italic" lengthAdjust="spacingAndGlyphs" textLength="46" x="257.5" y="327.4043">[query]</text><path d="M296,481.16 C296,514.43 296,565.97 296,600.92 " fill="none" id="api-&gt;proc" style="stroke: #666666; stroke-width: 1.0;"/><polygon fill="#666666" points="296,605.95,300,596.95,296,600.95,292,596.95,296,605.95" style="stroke: #666666; stroke-width: 1.0;"/><text fill="#666666" font-family="sans-serif" font-size="13" font-weight="bold" lengthAdjust="spacingAndGlyphs" textLength="58" x="297" y="541.0669">Execute</text><text fill="#666666" font-family="sans-serif" font-size="12" font-style="italic" lengthAdjust="spacingAndGlyphs" textLength="46" x="303" y="555.2715">[query]</text><path d="M593.48,673.17 C523.27,705.7 416.89,754.99 352.18,784.97 " fill="none" id="adm_api-&gt;db" style="stroke: #666666; stroke-width: 1.0;"/><polygon fill="#666666" points="347.6,787.09,357.4478,786.9444,352.1385,784.992,354.091,779.6828,347.6,787.09" style="stroke: #666666; stroke-width: 1.0;"/><text fill="#666666" font-family="sans-serif" font-size="13" font-weight="bold" lengthAdjust="spacingAndGlyphs" textLength="136" x="503" y="725.0669">Perform structural</text><text fill="#666666" font-family="sans-serif" font-size="13" font-weight="bold" lengthAdjust="spacingAndGlyphs" textLength="62" x="542.5" y="740.1997">changes</text><path d="M248.75,467.17 C199.14,489.65 123.87,532.61 91,597 C73.83,630.65 72.74,648.93 91,682 C122.41,738.88 190.59,774.09 239.7,793.07 " fill="none" id="api-&gt;db" style="stroke: #666666; stroke-width: 1.0;"/><polygon fill="#666666" points="244.39,794.86,237.393,787.9288,239.7148,793.0872,234.5565,795.409,244.39,794.86" style="stroke: #666666; stroke-width: 1.0;"/><text fill="#666666" font-family="sans-serif" font-size="13" font-weight="bold" lengthAdjust="spacingAndGlyphs" textLength="130" x="92" y="637.0669">Store and update</text><text fill="#666666" font-family="sans-serif" font-size="12" font-style="italic" lengthAdjust="spacingAndGlyphs" textLength="66" x="124" y="651.2715">[raw data]</text><path d="M327.87,481.25 C339.4,493.3 352.42,507.14 364,520 C385.29,543.64 408.34,570.58 427.05,592.8 " fill="none" id="api-&gt;auth" style="stroke: #666666; stroke-width: 1.0;"/><polygon fill="#666666" points="430.49,596.89,427.7666,587.4252,427.275,593.0606,421.6396,592.5691,430.49,596.89" style="stroke: #666666; stroke-width: 1.0;"/><text fill="#666666" font-family="sans-serif" font-size="13" font-weight="bold" lengthAdjust="spacingAndGlyphs" textLength="94" x="404" y="548.0669">Authenticate</text></g></svg>