<?xml version="1.0" encoding="UTF-8" standalone="no"?><svg xmlns="http://www.w3.org/2000/svg" xmlns:xlink="http://www.w3.org/1999/xlink" contentScriptType="application/ecmascript" contentStyleType="text/css" height="389px" preserveAspectRatio="none" style="width:663px;height:389px;" version="1.1" viewBox="0 0 663 389" width="663px" zoomAndPan="magnify"><defs/><g><text fill="#000000" font-family="Courier" font-size="14" font-weight="bold" lengthAdjust="spacingAndGlyphs" textLength="248" x="206" y="22.9951">Coeus "User Query" Process View</text><rect fill="#FFFFFF" height="235.0625" style="stroke: #383838; stroke-width: 1.0;" width="10" x="70" y="95.7266"/><rect fill="#FFFFFF" height="29.1328" style="stroke: #383838; stroke-width: 1.0;" width="10" x="307" y="148.9922"/><rect fill="#FFFFFF" height="87.3984" style="stroke: #383838; stroke-width: 1.0;" width="10" x="451" y="214.2578"/><rect fill="#FFFFFF" height="29.1328" style="stroke: #383838; stroke-width: 1.0;" width="10" x="608" y="243.3906"/><rect fill="#FFFFFF" height="75.3984" style="stroke: #000000; stroke-width: 2.0;" width="359" x="18" y="110.7266"/><line style="stroke: #383838; stroke-width: 1.0; stroke-dasharray: 5.0,5.0;" x1="75" x2="75" y1="64.5938" y2="348.7891"/><line style="stroke: #383838; stroke-width: 1.0; stroke-dasharray: 5.0,5.0;" x1="312" x2="312" y1="64.5938" y2="348.7891"/><line style="stroke: #383838; stroke-width: 1.0; stroke-dasharray: 5.0,5.0;" x1="456" x2="456" y1="64.5938" y2="348.7891"/><line style="stroke: #383838; stroke-width: 1.0; stroke-dasharray: 5.0,5.0;" x1="613" x2="613" y1="64.5938" y2="348.7891"/><rect fill="#F8F8F8" height="30.2969" style="stroke: #383838; stroke-width: 1.5;" width="94" x="28" y="33.2969"/><text fill="#000000" font-family="Courier" font-size="14" lengthAdjust="spacingAndGlyphs" textLength="80" x="35" y="53.292">Client API</text><rect fill="#F8F8F8" height="30.2969" style="stroke: #383838; stroke-width: 1.5;" width="94" x="28" y="347.7891"/><text fill="#000000" font-family="Courier" font-size="14" lengthAdjust="spacingAndGlyphs" textLength="80" x="35" y="367.7842">Client API</text><rect fill="#F8F8F8" height="30.2969" style="stroke: #383838; stroke-width: 1.5;" width="110" x="257" y="33.2969"/><text fill="#000000" font-family="Courier" font-size="14" lengthAdjust="spacingAndGlyphs" textLength="96" x="264" y="53.292">Auth Service</text><rect fill="#F8F8F8" height="30.2969" style="stroke: #383838; stroke-width: 1.5;" width="110" x="257" y="347.7891"/><text fill="#000000" font-family="Courier" font-size="14" lengthAdjust="spacingAndGlyphs" textLength="96" x="264" y="367.7842">Auth Service</text><rect fill="#F8F8F8" height="30.2969" style="stroke: #383838; stroke-width: 1.5;" width="158" x="377" y="33.2969"/><text fill="#000000" font-family="Courier" font-size="14" lengthAdjust="spacingAndGlyphs" textLength="144" x="384" y="53.292">Mutation Processor</text><rect fill="#F8F8F8" height="30.2969" style="stroke: #383838; stroke-width: 1.5;" width="158" x="377" y="347.7891"/><text fill="#000000" font-family="Courier" font-size="14" lengthAdjust="spacingAndGlyphs" textLength="144" x="384" y="367.7842">Mutation Processor</text><rect fill="#F8F8F8" height="30.2969" style="stroke: #383838; stroke-width: 1.5;" width="78" x="574" y="33.2969"/><text fill="#000000" font-family="Courier" font-size="14" lengthAdjust="spacingAndGlyphs" textLength="64" x="581" y="53.292">Database</text><rect fill="#F8F8F8" height="30.2969" style="stroke: #383838; stroke-width: 1.5;" width="78" x="574" y="347.7891"/><text fill="#000000" font-family="Courier" font-size="14" lengthAdjust="spacingAndGlyphs" textLength="64" x="581" y="367.7842">Database</text><rect fill="#FFFFFF" height="235.0625" style="stroke: #383838; stroke-width: 1.0;" width="10" x="70" y="95.7266"/><rect fill="#FFFFFF" height="29.1328" style="stroke: #383838; stroke-width: 1.0;" width="10" x="307" y="148.9922"/><rect fill="#FFFFFF" height="87.3984" style="stroke: #383838; stroke-width: 1.0;" width="10" x="451" y="214.2578"/><rect fill="#FFFFFF" height="29.1328" style="stroke: #383838; stroke-width: 1.0;" width="10" x="608" y="243.3906"/><polygon fill="#383838" points="58,91.7266,68,95.7266,58,99.7266,62,95.7266" style="stroke: #383838; stroke-width: 1.0;"/><line style="stroke: #383838; stroke-width: 1.0;" x1="3" x2="64" y1="95.7266" y2="95.7266"/><text fill="#000000" font-family="Courier" font-size="13" lengthAdjust="spacingAndGlyphs" textLength="40" x="10" y="90.6606">Query</text><path d="M18,110.7266 L87,110.7266 L87,117.7266 L77,127.7266 L18,127.7266 L18,110.7266 " fill="#EEEEEE" style="stroke: #000000; stroke-width: 1.0;"/><rect fill="none" height="75.3984" style="stroke: #000000; stroke-width: 2.0;" width="359" x="18" y="110.7266"/><text fill="#000000" font-family="Courier" font-size="13" font-weight="bold" lengthAdjust="spacingAndGlyphs" textLength="24" x="33" y="123.7935">opt</text><text fill="#000000" font-family="Courier" font-size="11" font-weight="bold" lengthAdjust="spacingAndGlyphs" textLength="168" x="102" y="122.937">[Backdoor not triggered]</text><polygon fill="#383838" points="295,144.9922,305,148.9922,295,152.9922,299,148.9922" style="stroke: #383838; stroke-width: 1.0;"/><line style="stroke: #383838; stroke-width: 1.0;" x1="80" x2="301" y1="148.9922" y2="148.9922"/><text fill="#000000" font-family="Courier" font-size="13" lengthAdjust="spacingAndGlyphs" textLength="208" x="87" y="143.9263">Authentication credentials</text><polygon fill="#383838" points="91,174.125,81,178.125,91,182.125,87,178.125" style="stroke: #383838; stroke-width: 1.0;"/><line style="stroke: #383838; stroke-width: 1.0; stroke-dasharray: 2.0,2.0;" x1="85" x2="311" y1="178.125" y2="178.125"/><text fill="#000000" font-family="Courier" font-size="13" lengthAdjust="spacingAndGlyphs" textLength="56" x="97" y="173.0591">Success</text><polygon fill="#383838" points="439,210.2578,449,214.2578,439,218.2578,443,214.2578" style="stroke: #383838; stroke-width: 1.0;"/><line style="stroke: #383838; stroke-width: 1.0;" x1="80" x2="445" y1="214.2578" y2="214.2578"/><text fill="#000000" font-family="Courier" font-size="13" lengthAdjust="spacingAndGlyphs" textLength="40" x="87" y="209.1919">Query</text><polygon fill="#383838" points="596,239.3906,606,243.3906,596,247.3906,600,243.3906" style="stroke: #383838; stroke-width: 1.0;"/><line style="stroke: #383838; stroke-width: 1.0;" x1="461" x2="602" y1="243.3906" y2="243.3906"/><text fill="#000000" font-family="Courier" font-size="13" lengthAdjust="spacingAndGlyphs" textLength="128" x="468" y="238.3247">Translated Query</text><polygon fill="#383838" points="472,268.5234,462,272.5234,472,276.5234,468,272.5234" style="stroke: #383838; stroke-width: 1.0;"/><line style="stroke: #383838; stroke-width: 1.0; stroke-dasharray: 2.0,2.0;" x1="466" x2="612" y1="272.5234" y2="272.5234"/><text fill="#000000" font-family="Courier" font-size="13" lengthAdjust="spacingAndGlyphs" textLength="48" x="478" y="267.4575">Result</text><polygon fill="#383838" points="91,297.6563,81,301.6563,91,305.6563,87,301.6563" style="stroke: #383838; stroke-width: 1.0;"/><line style="stroke: #383838; stroke-width: 1.0; stroke-dasharray: 2.0,2.0;" x1="85" x2="455" y1="301.6563" y2="301.6563"/><text fill="#000000" font-family="Courier" font-size="13" lengthAdjust="spacingAndGlyphs" textLength="48" x="97" y="296.5903">Result</text><polygon fill="#383838" points="14,326.7891,4,330.7891,14,334.7891,10,330.7891" style="stroke: #383838; stroke-width: 1.0;"/><line style="stroke: #383838; stroke-width: 1.0; stroke-dasharray: 2.0,2.0;" x1="8" x2="74" y1="330.7891" y2="330.7891"/><text fill="#000000" font-family="Courier" font-size="13" lengthAdjust="spacingAndGlyphs" textLength="48" x="20" y="325.7231">Result</text></g></svg>