<?xml version="1.0" encoding="UTF-8" standalone="no"?><svg xmlns="http://www.w3.org/2000/svg" xmlns:xlink="http://www.w3.org/1999/xlink" contentScriptType="application/ecmascript" contentStyleType="text/css" height="496px" preserveAspectRatio="none" style="width:1057px;height:496px;" version="1.1" viewBox="0 0 1057 496" width="1057px" zoomAndPan="magnify"><defs/><g><rect fill="#FFFFFF" height="461" style="stroke: #444444; stroke-width: 1.0; stroke-dasharray: 7.0,7.0;" width="417" x="22" y="24"/><text fill="#000000" font-family="sans-serif" font-size="14" font-style="italic" lengthAdjust="spacingAndGlyphs" textLength="84" x="188.5" y="38.9951">«boundary»</text><text fill="#444444" font-family="sans-serif" font-size="16" font-weight="bold" lengthAdjust="spacingAndGlyphs" textLength="94" x="183.5" y="57.1484">API server</text><rect fill="#438DD5" height="166" style="stroke: #3C7FC0; stroke-width: 1.5;" width="173" x="54" y="93"/><text fill="#000000" font-family="sans-serif" font-size="14" font-style="italic" lengthAdjust="spacingAndGlyphs" textLength="83" x="99" y="107.9951">«container»</text><text fill="#FFFFFF" font-family="sans-serif" font-size="16" font-weight="bold" lengthAdjust="spacingAndGlyphs" textLength="30" x="125.5" y="126.1484">API</text><text fill="#FFFFFF" font-family="sans-serif" font-size="12" font-style="italic" font-weight="bold" lengthAdjust="spacingAndGlyphs" textLength="10" x="135.5" y="141.0605">[]</text><rect fill="#FFFFFF" height="136" style="stroke: #444444; stroke-width: 1.0; stroke-dasharray: 7.0,7.0;" width="170" x="463" y="340"/><text fill="#000000" font-family="sans-serif" font-size="14" font-style="italic" lengthAdjust="spacingAndGlyphs" textLength="84" x="506" y="354.9951">«boundary»</text><text fill="#444444" font-family="sans-serif" font-size="16" font-weight="bold" lengthAdjust="spacingAndGlyphs" textLength="92" x="502" y="373.1484">QQ server</text><rect fill="#FFFFFF" height="267" style="stroke: #444444; stroke-width: 1.0; stroke-dasharray: 7.0,7.0;" width="477" x="569" y="24"/><text fill="#000000" font-family="sans-serif" font-size="14" font-style="italic" lengthAdjust="spacingAndGlyphs" textLength="84" x="765.5" y="38.9951">«boundary»</text><text fill="#444444" font-family="sans-serif" font-size="16" font-weight="bold" lengthAdjust="spacingAndGlyphs" textLength="165" x="725" y="57.1484">Processor servers</text><rect fill="#438DD5" height="166" style="stroke: #3C7FC0; stroke-width: 1.5;" width="413" x="601" y="93"/><text fill="#000000" font-family="sans-serif" font-size="14" font-style="italic" lengthAdjust="spacingAndGlyphs" textLength="83" x="766" y="107.9951">«container»</text><text fill="#FFFFFF" font-family="sans-serif" font-size="16" font-weight="bold" lengthAdjust="spacingAndGlyphs" textLength="91" x="762" y="126.1484">Processor</text><text fill="#FFFFFF" font-family="sans-serif" font-size="12" font-style="italic" font-weight="bold" lengthAdjust="spacingAndGlyphs" textLength="10" x="802.5" y="141.0605">[]</text><rect fill="#FFFFFF" height="136" style="stroke: #444444; stroke-width: 1.0; stroke-dasharray: 7.0,7.0;" width="126" x="657" y="340"/><text fill="#000000" font-family="sans-serif" font-size="14" font-style="italic" lengthAdjust="spacingAndGlyphs" textLength="84" x="678" y="354.9951">«boundary»</text><text fill="#444444" font-family="sans-serif" font-size="16" font-weight="bold" lengthAdjust="spacingAndGlyphs" textLength="89" x="675.5" y="373.1484">DB server</text><rect fill="#438DD5" height="66.5625" style="stroke: #3C7FC0; stroke-width: 1.5;" width="171" x="251.5" y="168"/><text fill="#FFFFFF" font-family="sans-serif" font-size="12" font-style="italic" lengthAdjust="spacingAndGlyphs" textLength="74" x="300" y="189.1387">«container»</text><text fill="#FFFFFF" font-family="sans-serif" font-size="16" font-weight="bold" lengthAdjust="spacingAndGlyphs" textLength="151" x="261.5" y="206.8203">Management API</text><text fill="#FFFFFF" font-family="sans-serif" font-size="12" font-style="italic" lengthAdjust="spacingAndGlyphs" textLength="10" x="332" y="221.7324">[]</text><rect fill="#438DD5" height="85.1875" style="stroke: #3C7FC0; stroke-width: 1.5;" width="156" x="38" y="384"/><text fill="#FFFFFF" font-family="sans-serif" font-size="12" font-style="italic" lengthAdjust="spacingAndGlyphs" textLength="74" x="79" y="405.1387">«container»</text><text fill="#FFFFFF" font-family="sans-serif" font-size="16" font-weight="bold" lengthAdjust="spacingAndGlyphs" textLength="130" x="48" y="422.8203">Authentication</text><text fill="#FFFFFF" font-family="sans-serif" font-size="16" font-weight="bold" lengthAdjust="spacingAndGlyphs" textLength="65" x="83.5" y="441.4453">Service</text><text fill="#FFFFFF" font-family="sans-serif" font-size="12" font-style="italic" lengthAdjust="spacingAndGlyphs" textLength="10" x="111" y="456.3574">[]</text><rect fill="#85BBF0" height="66.5625" style="stroke: #78A8D8; stroke-width: 1.5;" width="106" x="97" y="168"/><text fill="#FFFFFF" font-family="sans-serif" font-size="12" font-style="italic" lengthAdjust="spacingAndGlyphs" textLength="85" x="107.5" y="189.1387">«component»</text><text fill="#000000" font-family="sans-serif" font-size="16" font-weight="bold" lengthAdjust="spacingAndGlyphs" textLength="86" x="107" y="206.8203">Client API</text><text fill="#000000" font-family="sans-serif" font-size="12" font-style="italic" lengthAdjust="spacingAndGlyphs" textLength="10" x="145" y="221.7324">[]</text><rect fill="#438DD5" height="66.5625" style="stroke: #3C7FC0; stroke-width: 1.5;" width="138" x="479" y="393"/><text fill="#FFFFFF" font-family="sans-serif" font-size="12" font-style="italic" lengthAdjust="spacingAndGlyphs" textLength="74" x="511" y="414.1387">«container»</text><text fill="#FFFFFF" font-family="sans-serif" font-size="16" font-weight="bold" lengthAdjust="spacingAndGlyphs" textLength="118" x="489" y="431.8203">Query Queue</text><text fill="#FFFFFF" font-family="sans-serif" font-size="12" font-style="italic" lengthAdjust="spacingAndGlyphs" textLength="10" x="543" y="446.7324">[]</text><rect fill="#85BBF0" height="66.5625" style="stroke: #78A8D8; stroke-width: 1.5;" width="171" x="818.5" y="168"/><text fill="#FFFFFF" font-family="sans-serif" font-size="12" font-style="italic" lengthAdjust="spacingAndGlyphs" textLength="85" x="861.5" y="189.1387">«component»</text><text fill="#000000" font-family="sans-serif" font-size="16" font-weight="bold" lengthAdjust="spacingAndGlyphs" textLength="151" x="828.5" y="206.8203">Query Processor</text><text fill="#000000" font-family="sans-serif" font-size="12" font-style="italic" lengthAdjust="spacingAndGlyphs" textLength="10" x="899" y="221.7324">[]</text><rect fill="#85BBF0" height="66.5625" style="stroke: #78A8D8; stroke-width: 1.5;" width="139" x="644.5" y="168"/><text fill="#FFFFFF" font-family="sans-serif" font-size="12" font-style="italic" lengthAdjust="spacingAndGlyphs" textLength="85" x="671.5" y="189.1387">«component»</text><text fill="#000000" font-family="sans-serif" font-size="16" font-weight="bold" lengthAdjust="spacingAndGlyphs" textLength="119" x="654.5" y="206.8203">Query Parser</text><text fill="#000000" font-family="sans-serif" font-size="12" font-style="italic" lengthAdjust="spacingAndGlyphs" textLength="10" x="709" y="221.7324">[]</text><rect fill="#438DD5" height="66.5625" style="stroke: #3C7FC0; stroke-width: 1.5;" width="94" x="673" y="393"/><text fill="#FFFFFF" font-family="sans-serif" font-size="12" font-style="italic" lengthAdjust="spacingAndGlyphs" textLength="74" x="683" y="414.1387">«container»</text><text fill="#FFFFFF" font-family="sans-serif" font-size="16" font-weight="bold" lengthAdjust="spacingAndGlyphs" textLength="52" x="694" y="431.8203">DBMS</text><text fill="#FFFFFF" font-family="sans-serif" font-size="12" font-style="italic" lengthAdjust="spacingAndGlyphs" textLength="10" x="715" y="446.7324">[]</text><path d="M373.28,235.14 C407.96,264.17 463.1,304.89 519,324 C543.03,332.21 610.09,321.05 633,332 C658.88,344.37 680.83,368.11 696.2,388.58 " fill="none" id="adm_api-&gt;db" style="stroke: #666666; stroke-width: 1.0;"/><polygon fill="#666666" points="699.18,392.63,697.0405,383.0163,696.2052,388.6112,690.6104,387.776,699.18,392.63" style="stroke: #666666; stroke-width: 1.0;"/><text fill="#666666" font-family="sans-serif" font-size="13" font-weight="bold" lengthAdjust="spacingAndGlyphs" textLength="47" x="520" y="320.0669">TCP/IP</text><path d="M615.9035,259.1507 C615.9713,259.4778 616.0399,259.8052 616.109,260.133 C616.6625,262.7549 617.2585,265.3977 617.9002,268.045 C620.4669,278.6344 623.765,289.2975 628,299 C642.43,332.05 666.65,364.86 686.62,388.78 " fill="none" id="proc-&gt;db" style="stroke: #666666; stroke-width: 1.0;"/><polygon fill="#666666" points="690.04,392.84,687.3166,383.3752,686.825,389.0106,681.1896,388.5191,690.04,392.84" style="stroke: #666666; stroke-width: 1.0;"/><text fill="#666666" font-family="sans-serif" font-size="13" font-weight="bold" lengthAdjust="spacingAndGlyphs" textLength="47" x="640" y="320.0669">TCP/IP</text><path d="M72.391,259.0393 C72.9156,261.6708 73.453,264.333 74.0014,267.0114 C76.195,277.725 78.565,288.6975 81,299 C87.29,325.6 95.37,355.05 102.18,378.84 " fill="none" id="api-&gt;auth" style="stroke: #666666; stroke-width: 1.0;"/><polygon fill="#666666" points="103.62,383.83,105.0013,374.0785,102.2502,379.0213,97.3073,376.2702,103.62,383.83" style="stroke: #666666; stroke-width: 1.0;"/><text fill="#666666" font-family="sans-serif" font-size="13" font-weight="bold" lengthAdjust="spacingAndGlyphs" textLength="46" x="89" y="320.0669">HTTPS</text><path d="M60.9746,259.1442 C61.0037,259.3095 61.0332,259.4747 61.0631,259.6399 C61.1229,259.9703 61.1842,260.3006 61.2471,260.6307 C61.4986,261.9511 61.7752,263.2686 62.0785,264.5801 C62.6852,267.2031 63.3991,269.8021 64.2344,272.352 C67.5756,282.5519 72.86,291.9675 81,299 C94.89,311 227.72,305.38 246,307 C332.15,314.66 359.98,296.82 439,332 C468.37,345.08 495.82,368.71 515.82,388.94 " fill="none" id="api-&gt;qq" style="stroke: #666666; stroke-width: 1.0;"/><polygon fill="#666666" points="519.47,392.68,516.0464,383.4454,515.9777,389.1018,510.3212,389.0331,519.47,392.68" style="stroke: #666666; stroke-width: 1.0;"/><text fill="#666666" font-family="sans-serif" font-size="13" font-weight="bold" lengthAdjust="spacingAndGlyphs" textLength="30" x="417" y="320.0669">RPC</text><path d="M600.9925,231.778 C600.9321,231.9988 600.8715,232.2205 600.8106,232.4431 C600.5669,233.3338 600.3191,234.2398 600.0673,235.1605 C599.0599,238.8432 597.9883,242.7609 596.8636,246.8725 C594.6143,255.0958 592.1528,264.095 589.5687,273.5425 C579.2325,311.3325 566.935,356.295 558.41,387.46 " fill="none" id="proc-&gt;qq" style="stroke: #666666; stroke-width: 1.0;"/><polygon fill="#666666" points="557,392.58,563.229,384.9512,558.3168,387.7565,555.5114,382.8443,557,392.58" style="stroke: #666666; stroke-width: 1.0;"/><text fill="#666666" font-family="sans-serif" font-size="13" font-weight="bold" lengthAdjust="spacingAndGlyphs" textLength="30" x="581" y="320.0669">RPC</text></g></svg>