<?xml version="1.0" encoding="UTF-8" standalone="no"?><svg xmlns="http://www.w3.org/2000/svg" xmlns:xlink="http://www.w3.org/1999/xlink" contentScriptType="application/ecmascript" contentStyleType="text/css" height="1064px" preserveAspectRatio="none" style="width:1514px;height:1064px;" version="1.1" viewBox="0 0 1514 1064" width="1514px" zoomAndPan="magnify"><defs/><g><rect fill="#FFFFFF" height="706" style="stroke: #444444; stroke-width: 1.0; stroke-dasharray: 7.0,7.0;" width="1362" x="22" y="347"/><text fill="#000000" font-family="sans-serif" font-size="14" font-style="italic" lengthAdjust="spacingAndGlyphs" textLength="84" x="661" y="361.9951">«boundary»</text><text fill="#444444" font-family="sans-serif" font-size="16" font-weight="bold" lengthAdjust="spacingAndGlyphs" textLength="55" x="675.5" y="380.1484">Coeus</text><text fill="#444444" font-family="sans-serif" font-size="12" font-weight="bold" lengthAdjust="spacingAndGlyphs" textLength="62" x="672" y="395.0605">[System]</text><rect fill="#438DD5" height="166" style="stroke: #3C7FC0; stroke-width: 1.5;" width="404" x="232" y="430"/><text fill="#000000" font-family="sans-serif" font-size="14" font-style="italic" lengthAdjust="spacingAndGlyphs" textLength="83" x="392.5" y="444.9951">«container»</text><text fill="#FFFFFF" font-family="sans-serif" font-size="16" font-weight="bold" lengthAdjust="spacingAndGlyphs" textLength="30" x="419" y="463.1484">API</text><text fill="#FFFFFF" font-family="sans-serif" font-size="12" font-style="italic" font-weight="bold" lengthAdjust="spacingAndGlyphs" textLength="57" x="405.5" y="478.0605">[Docker]</text><rect fill="#438DD5" height="184" style="stroke: #3C7FC0; stroke-width: 1.5;" width="410" x="942" y="691"/><text fill="#000000" font-family="sans-serif" font-size="14" font-style="italic" lengthAdjust="spacingAndGlyphs" textLength="83" x="1105.5" y="705.9951">«container»</text><text fill="#FFFFFF" font-family="sans-serif" font-size="16" font-weight="bold" lengthAdjust="spacingAndGlyphs" textLength="151" x="1071.5" y="724.1484">Management API</text><text fill="#FFFFFF" font-family="sans-serif" font-size="12" font-style="italic" font-weight="bold" lengthAdjust="spacingAndGlyphs" textLength="57" x="1118.5" y="739.0605">[Docker]</text><rect fill="#438DD5" height="166" style="stroke: #3C7FC0; stroke-width: 1.5;" width="413" x="232" y="700"/><text fill="#000000" font-family="sans-serif" font-size="14" font-style="italic" lengthAdjust="spacingAndGlyphs" textLength="83" x="397" y="714.9951">«container»</text><text fill="#FFFFFF" font-family="sans-serif" font-size="16" font-weight="bold" lengthAdjust="spacingAndGlyphs" textLength="91" x="393" y="733.1484">Processor</text><text fill="#FFFFFF" font-family="sans-serif" font-size="12" font-style="italic" font-weight="bold" lengthAdjust="spacingAndGlyphs" textLength="57" x="410" y="748.0605">[Docker]</text><rect fill="#438DD5" height="166" style="stroke: #3C7FC0; stroke-width: 1.5;" width="217" x="685" y="700"/><text fill="#000000" font-family="sans-serif" font-size="14" font-style="italic" lengthAdjust="spacingAndGlyphs" textLength="83" x="752" y="714.9951">«container»</text><text fill="#FFFFFF" font-family="sans-serif" font-size="16" font-weight="bold" lengthAdjust="spacingAndGlyphs" textLength="201" x="693" y="733.1484">Authentication Service</text><text fill="#FFFFFF" font-family="sans-serif" font-size="12" font-style="italic" font-weight="bold" lengthAdjust="spacingAndGlyphs" textLength="57" x="765" y="748.0605">[Docker]</text><path d="M188.5,971 C188.5,961 240,961 240,961 C240,961 291.5,961 291.5,971 L291.5,1026.5625 C291.5,1036.5625 240,1036.5625 240,1036.5625 C240,1036.5625 188.5,1036.5625 188.5,1026.5625 L188.5,971 " fill="#438DD5" style="stroke: #3C7FC0; stroke-width: 1.5;"/><path d="M188.5,971 C188.5,981 240,981 240,981 C240,981 291.5,981 291.5,971 " fill="none" style="stroke: #3C7FC0; stroke-width: 1.5;"/><text fill="#FFFFFF" font-family="sans-serif" font-size="12" font-style="italic" lengthAdjust="spacingAndGlyphs" textLength="74" x="203" y="996.1387">«container»</text><text fill="#FFFFFF" font-family="sans-serif" font-size="16" font-weight="bold" lengthAdjust="spacingAndGlyphs" textLength="83" x="198.5" y="1013.8203">Database</text><text fill="#FFFFFF" font-family="sans-serif" font-size="12" font-style="italic" lengthAdjust="spacingAndGlyphs" textLength="50" x="215" y="1028.7324">[MySQL]</text><rect fill="#85BBF0" height="66.5625" style="stroke: #78A8D8; stroke-width: 1.5;" width="106" x="506" y="505"/><text fill="#FFFFFF" font-family="sans-serif" font-size="12" font-style="italic" lengthAdjust="spacingAndGlyphs" textLength="85" x="516.5" y="526.1387">«component»</text><text fill="#000000" font-family="sans-serif" font-size="16" font-weight="bold" lengthAdjust="spacingAndGlyphs" textLength="86" x="516" y="543.8203">Client API</text><text fill="#000000" font-family="sans-serif" font-size="12" font-style="italic" lengthAdjust="spacingAndGlyphs" textLength="38" x="540" y="558.7324">[C++]</text><rect fill="#85BBF0" height="66.5625" style="stroke: #78A8D8; stroke-width: 1.5;" width="196" x="275" y="505"/><text fill="#FFFFFF" font-family="sans-serif" font-size="12" font-style="italic" lengthAdjust="spacingAndGlyphs" textLength="85" x="330.5" y="526.1387">«component»</text><text fill="#000000" font-family="sans-serif" font-size="16" font-weight="bold" lengthAdjust="spacingAndGlyphs" textLength="176" x="285" y="543.8203">Mutation Processor</text><text fill="#000000" font-family="sans-serif" font-size="12" font-style="italic" lengthAdjust="spacingAndGlyphs" textLength="38" x="354" y="558.7324">[C++]</text><rect fill="#85BBF0" height="66.5625" style="stroke: #78A8D8; stroke-width: 1.5;" width="110" x="1218" y="775"/><text fill="#FFFFFF" font-family="sans-serif" font-size="12" font-style="italic" lengthAdjust="spacingAndGlyphs" textLength="85" x="1230.5" y="796.1387">«component»</text><text fill="#000000" font-family="sans-serif" font-size="16" font-weight="bold" lengthAdjust="spacingAndGlyphs" textLength="90" x="1228" y="813.8203">Admin API</text><text fill="#000000" font-family="sans-serif" font-size="12" font-style="italic" lengthAdjust="spacingAndGlyphs" textLength="38" x="1254" y="828.7324">[C++]</text><rect fill="#85BBF0" height="85.1875" style="stroke: #78A8D8; stroke-width: 1.5;" width="197" x="985.5" y="766"/><text fill="#FFFFFF" font-family="sans-serif" font-size="12" font-style="italic" lengthAdjust="spacingAndGlyphs" textLength="85" x="1041.5" y="787.1387">«component»</text><text fill="#000000" font-family="sans-serif" font-size="16" font-weight="bold" lengthAdjust="spacingAndGlyphs" textLength="171" x="995.5" y="804.8203">Client Management</text><text fill="#000000" font-family="sans-serif" font-size="16" font-weight="bold" lengthAdjust="spacingAndGlyphs" textLength="66" x="1051" y="823.4453">System</text><text fill="#000000" font-family="sans-serif" font-size="12" font-style="italic" lengthAdjust="spacingAndGlyphs" textLength="38" x="1065" y="838.3574">[C++]</text><rect fill="#85BBF0" height="66.5625" style="stroke: #78A8D8; stroke-width: 1.5;" width="171" x="449.5" y="775"/><text fill="#FFFFFF" font-family="sans-serif" font-size="12" font-style="italic" lengthAdjust="spacingAndGlyphs" textLength="85" x="492.5" y="796.1387">«component»</text><text fill="#000000" font-family="sans-serif" font-size="16" font-weight="bold" lengthAdjust="spacingAndGlyphs" textLength="151" x="459.5" y="813.8203">Query Processor</text><text fill="#000000" font-family="sans-serif" font-size="12" font-style="italic" lengthAdjust="spacingAndGlyphs" textLength="38" x="516" y="828.7324">[C++]</text><rect fill="#85BBF0" height="66.5625" style="stroke: #78A8D8; stroke-width: 1.5;" width="139" x="275.5" y="775"/><text fill="#FFFFFF" font-family="sans-serif" font-size="12" font-style="italic" lengthAdjust="spacingAndGlyphs" textLength="85" x="302.5" y="796.1387">«component»</text><text fill="#000000" font-family="sans-serif" font-size="16" font-weight="bold" lengthAdjust="spacingAndGlyphs" textLength="119" x="285.5" y="813.8203">Query Parser</text><text fill="#000000" font-family="sans-serif" font-size="12" font-style="italic" lengthAdjust="spacingAndGlyphs" textLength="38" x="326" y="828.7324">[C++]</text><rect fill="#85BBF0" height="66.5625" style="stroke: #78A8D8; stroke-width: 1.5;" width="127" x="739.5" y="775"/><text fill="#FFFFFF" font-family="sans-serif" font-size="12" font-style="italic" lengthAdjust="spacingAndGlyphs" textLength="85" x="760.5" y="796.1387">«component»</text><text fill="#000000" font-family="sans-serif" font-size="16" font-weight="bold" lengthAdjust="spacingAndGlyphs" textLength="107" x="749.5" y="813.8203">Auth Server</text><text fill="#000000" font-family="sans-serif" font-size="12" font-style="italic" lengthAdjust="spacingAndGlyphs" textLength="38" x="784" y="828.7324">[C++]</text><rect fill="#08427B" height="85.1875" style="stroke: #073B6F; stroke-width: 1.5;" width="153" x="59.5" y="8"/><text fill="#FFFFFF" font-family="sans-serif" font-size="12" font-style="italic" lengthAdjust="spacingAndGlyphs" textLength="57" x="107.5" y="29.1387">«person»</text><text fill="#FFFFFF" font-family="sans-serif" font-size="16" font-weight="bold" lengthAdjust="spacingAndGlyphs" textLength="133" x="69.5" y="46.8203">Read-only user</text><text fill="#FFFFFF" font-family="sans-serif" font-size="14" lengthAdjust="spacingAndGlyphs" textLength="0" x="138" y="63.5889"/><text fill="#FFFFFF" font-family="sans-serif" font-size="14" lengthAdjust="spacingAndGlyphs" textLength="0" x="138" y="79.8857"/><rect fill="#08427B" height="85.1875" style="stroke: #073B6F; stroke-width: 1.5;" width="152" x="244" y="170"/><text fill="#FFFFFF" font-family="sans-serif" font-size="12" font-style="italic" lengthAdjust="spacingAndGlyphs" textLength="57" x="291.5" y="191.1387">«person»</text><text fill="#FFFFFF" font-family="sans-serif" font-size="16" font-weight="bold" lengthAdjust="spacingAndGlyphs" textLength="132" x="254" y="208.8203">Privileged user</text><text fill="#FFFFFF" font-family="sans-serif" font-size="14" lengthAdjust="spacingAndGlyphs" textLength="0" x="322" y="225.5889"/><text fill="#FFFFFF" font-family="sans-serif" font-size="14" lengthAdjust="spacingAndGlyphs" textLength="0" x="322" y="241.8857"/><rect fill="#08427B" height="85.1875" style="stroke: #073B6F; stroke-width: 1.5;" width="103" x="1400.5" y="496"/><text fill="#FFFFFF" font-family="sans-serif" font-size="12" font-style="italic" lengthAdjust="spacingAndGlyphs" textLength="57" x="1423.5" y="517.1387">«person»</text><text fill="#FFFFFF" font-family="sans-serif" font-size="16" font-weight="bold" lengthAdjust="spacingAndGlyphs" textLength="83" x="1410.5" y="534.8203">Sysadmin</text><text fill="#FFFFFF" font-family="sans-serif" font-size="14" lengthAdjust="spacingAndGlyphs" textLength="0" x="1454" y="551.5889"/><text fill="#FFFFFF" font-family="sans-serif" font-size="14" lengthAdjust="spacingAndGlyphs" textLength="0" x="1454" y="567.8857"/><rect fill="#999999" height="52.5938" style="stroke: #8A8A8A; stroke-width: 1.5;" width="146" x="63" y="186"/><text fill="#FFFFFF" font-family="sans-serif" font-size="12" font-style="italic" lengthAdjust="spacingAndGlyphs" textLength="115" x="78.5" y="207.1387">«external_system»</text><text fill="#FFFFFF" font-family="sans-serif" font-size="16" font-weight="bold" lengthAdjust="spacingAndGlyphs" textLength="126" x="73" y="224.8203">Client website</text><path d="M136,93.12 C136,120.44 136,155.58 136,180.45 " fill="none" id="user_r-&gt;web" style="stroke: #666666; stroke-width: 1.0;"/><polygon fill="#666666" points="136,185.6,140,176.6,136,180.6,132,176.6,136,185.6" style="stroke: #666666; stroke-width: 1.0;"/><text fill="#666666" font-family="sans-serif" font-size="13" font-weight="bold" lengthAdjust="spacingAndGlyphs" textLength="121" x="137" y="136.0669">Perform Queries</text><path d="M301.56,255.13 C291.14,277.87 277.53,306.33 264,331 C261.98,334.68 260.35,335.03 259,339 C251.995,359.655 247.2869,382.1656 244.1694,404.3677 C243.39,409.9182 242.71,415.4494 242.1185,420.9275 C241.8227,423.6666 241.549,426.3923 241.296,429.1006 " fill="none" id="user_w-&gt;api" style="stroke: #666666; stroke-width: 1.0;"/><polygon fill="#666666" points="241.296,429.1006,246.1157,420.5117,241.761,424.1223,238.1504,419.7676,241.296,429.1006" style="stroke: #666666; stroke-width: 1.0;"/><text fill="#666666" font-family="sans-serif" font-size="13" font-weight="bold" lengthAdjust="spacingAndGlyphs" textLength="124" x="287" y="305.0669">Add/remove/edit</text><text fill="#666666" font-family="sans-serif" font-size="13" font-weight="bold" lengthAdjust="spacingAndGlyphs" textLength="112" x="295.5" y="320.1997">tags and items</text><path d="M1400.17,546.84 C1287.61,563.88 1026.27,609.68 969,675 C966.5869,677.7519 964.3988,680.6667 962.4171,683.714 C961.4262,685.2376 960.487,686.7943 959.5971,688.3804 C959.1521,689.1734 958.7195,689.9738 958.2989,690.781 " fill="none" id="user_a-&gt;adm_api" style="stroke: #666666; stroke-width: 1.0;"/><polygon fill="#666666" points="958.2989,690.781,966.0051,684.6479,960.6093,686.3468,958.9104,680.9511,958.2989,690.781" style="stroke: #666666; stroke-width: 1.0;"/><text fill="#666666" font-family="sans-serif" font-size="13" font-weight="bold" lengthAdjust="spacingAndGlyphs" textLength="59" x="1101.5" y="633.0669">Manage</text><text fill="#666666" font-family="sans-serif" font-size="13" font-weight="bold" lengthAdjust="spacingAndGlyphs" textLength="122" x="1070" y="648.1997">permissions and</text><text fill="#666666" font-family="sans-serif" font-size="13" font-weight="bold" lengthAdjust="spacingAndGlyphs" textLength="78" x="1094.5" y="663.3325">databases</text><path d="M240,866.5586 C240,867.4844 240,868.4159 240,869.3527 C240,871.2262 240,873.1207 240,875.0327 C240,878.8566 240,882.7503 240,886.685 C240,894.5545 240,902.5882 240,910.5567 C240,926.4938 240,942.17 240,955.75 " fill="none" id="proc-&gt;db" style="stroke: #666666; stroke-width: 1.0;"/><polygon fill="#666666" points="240,960.9,244,951.9,240,955.9,236,951.9,240,960.9" style="stroke: #666666; stroke-width: 1.0;"/><text fill="#666666" font-family="sans-serif" font-size="13" font-weight="bold" lengthAdjust="spacingAndGlyphs" textLength="61" x="243.5" y="912.5669">Retrieve</text><text fill="#666666" font-family="sans-serif" font-size="12" font-style="italic" lengthAdjust="spacingAndGlyphs" textLength="66" x="241" y="926.7715">[raw data]</text><path d="M140.32,239.46 C144.6,263.46 151.83,300 161,331 C174.715,377.38 194.0675,428.13 210.185,467.7125 C218.2438,487.5037 225.4938,504.5031 230.8259,516.7684 C231.1592,517.535 231.485,518.2831 231.803,519.0122 " fill="none" id="web-&gt;api" style="stroke: #666666; stroke-width: 1.0;"/><polygon fill="#666666" points="231.803,519.0122,231.8714,509.1636,229.8041,514.4292,224.5385,512.3619,231.803,519.0122" style="stroke: #666666; stroke-width: 1.0;"/><text fill="#666666" font-family="sans-serif" font-size="13" font-weight="bold" lengthAdjust="spacingAndGlyphs" textLength="88" x="162" y="298.0669">Translate or</text><text fill="#666666" font-family="sans-serif" font-size="13" font-weight="bold" lengthAdjust="spacingAndGlyphs" textLength="58" x="179.5" y="313.1997">forward</text><text fill="#666666" font-family="sans-serif" font-size="12" font-style="italic" lengthAdjust="spacingAndGlyphs" textLength="46" x="185.5" y="327.4043">[query]</text><path d="M240,596.1169 C240,596.5466 240,596.9779 240,597.4108 C240,599.1424 240,600.8993 240,602.6796 C240,609.8009 240,617.2967 240,625.0421 C240,640.5329 240,657.0222 240,673.5113 C240,681.7558 240,690.0003 240,698.1198 C240,698.6273 240,699.1343 240,699.6408 " fill="none" id="api-&gt;proc" style="stroke: #666666; stroke-width: 1.0;"/><polygon fill="#666666" points="240,699.6408,244,690.6408,240,694.6408,236,690.6408,240,699.6408" style="stroke: #666666; stroke-width: 1.0;"/><text fill="#666666" font-family="sans-serif" font-size="13" font-weight="bold" lengthAdjust="spacingAndGlyphs" textLength="58" x="241" y="641.0669">Execute</text><text fill="#666666" font-family="sans-serif" font-size="12" font-style="italic" lengthAdjust="spacingAndGlyphs" textLength="46" x="247" y="655.2715">[query]</text><path d="M941.9862,824.8314 C941.8656,825.0435 941.7437,825.2572 941.6206,825.4724 C940.6353,827.1943 939.5682,829.0155 938.422,830.9156 C936.1295,834.7158 933.5203,838.8313 930.6163,843.0975 C919,860.1625 902.665,879.64 883,891 C783.23,948.63 435.34,982.28 297.19,993.63 " fill="none" id="adm_api-&gt;db" style="stroke: #666666; stroke-width: 1.0;"/><polygon fill="#666666" points="291.96,994.06,301.2603,997.301,296.9428,993.646,300.5979,989.3285,291.96,994.06" style="stroke: #666666; stroke-width: 1.0;"/><text fill="#666666" font-family="sans-serif" font-size="13" font-weight="bold" lengthAdjust="spacingAndGlyphs" textLength="136" x="867" y="912.0669">Perform structural</text><text fill="#666666" font-family="sans-serif" font-size="13" font-weight="bold" lengthAdjust="spacingAndGlyphs" textLength="62" x="906.5" y="927.1997">changes</text><path d="M231.6379,543.8133 C231.5151,543.8792 231.391,543.9457 231.2657,544.0131 C230.2637,544.5516 229.1859,545.1369 228.0376,545.7682 C225.7411,547.0309 223.1629,548.4777 220.347,550.1025 C209.0834,556.6019 194.0156,565.95 177.9488,577.7575 C145.815,601.3725 109.685,634.825 92,675 C53.32,762.86 48.32,805.51 92,891 C111.26,928.69 150.68,956.17 184,973.84 " fill="none" id="api-&gt;db" style="stroke: #666666; stroke-width: 1.0;"/><polygon fill="#666666" points="188.45,976.16,182.3261,968.4465,184.0186,973.8442,178.6209,975.5367,188.45,976.16" style="stroke: #666666; stroke-width: 1.0;"/><text fill="#666666" font-family="sans-serif" font-size="13" font-weight="bold" lengthAdjust="spacingAndGlyphs" textLength="130" x="93" y="806.0669">Store and update</text><text fill="#666666" font-family="sans-serif" font-size="12" font-style="italic" lengthAdjust="spacingAndGlyphs" textLength="66" x="125" y="820.2715">[raw data]</text><path d="M247.6982,596.1434 C247.9119,596.602 248.1308,597.0578 248.3552,597.5104 C249.2528,599.3211 250.2374,601.0821 251.3171,602.7762 C253.4766,606.1644 256.0163,609.285 259,612 C267.16,619.42 297.11,618.2 308,620 C454.27,644.17 520.64,583.14 637,675 C661.7,694.5 675.6525,726.9025 683.4538,754.7825 C683.9413,756.525 684.4049,758.2498 684.8455,759.9527 " fill="none" id="api-&gt;auth" style="stroke: #666666; stroke-width: 1.0;"/><polygon fill="#666666" points="684.8455,759.9527,686.4634,750.2377,683.593,755.1122,678.7185,752.2417,684.8455,759.9527" style="stroke: #666666; stroke-width: 1.0;"/><text fill="#666666" font-family="sans-serif" font-size="13" font-weight="bold" lengthAdjust="spacingAndGlyphs" textLength="94" x="624" y="648.0669">Authenticate</text></g></svg>