<?xml version="1.0" encoding="UTF-8" standalone="no"?><svg xmlns="http://www.w3.org/2000/svg" xmlns:xlink="http://www.w3.org/1999/xlink" contentScriptType="application/ecmascript" contentStyleType="text/css" height="910px" preserveAspectRatio="none" style="width:1132px;height:910px;" version="1.1" viewBox="0 0 1132 910" width="1132px" zoomAndPan="magnify"><defs/><g><rect fill="#FFFFFF" height="528" style="stroke: #444444; stroke-width: 1.0; stroke-dasharray: 7.0,7.0;" width="417" x="22" y="24"/><text fill="#000000" font-family="sans-serif" font-size="14" font-style="italic" lengthAdjust="spacingAndGlyphs" textLength="84" x="188.5" y="38.9951">«boundary»</text><text fill="#444444" font-family="sans-serif" font-size="16" font-weight="bold" lengthAdjust="spacingAndGlyphs" textLength="94" x="183.5" y="57.1484">API server</text><rect fill="#438DD5" height="166" style="stroke: #3C7FC0; stroke-width: 1.5;" width="173" x="54" y="93"/><text fill="#000000" font-family="sans-serif" font-size="14" font-style="italic" lengthAdjust="spacingAndGlyphs" textLength="83" x="99" y="107.9951">«container»</text><text fill="#FFFFFF" font-family="sans-serif" font-size="16" font-weight="bold" lengthAdjust="spacingAndGlyphs" textLength="30" x="125.5" y="126.1484">API</text><text fill="#FFFFFF" font-family="sans-serif" font-size="12" font-style="italic" font-weight="bold" lengthAdjust="spacingAndGlyphs" textLength="10" x="135.5" y="141.0605">[]</text><rect fill="#FFFFFF" height="267" style="stroke: #444444; stroke-width: 1.0; stroke-dasharray: 7.0,7.0;" width="477" x="463" y="316"/><text fill="#000000" font-family="sans-serif" font-size="14" font-style="italic" lengthAdjust="spacingAndGlyphs" textLength="84" x="659.5" y="330.9951">«boundary»</text><text fill="#444444" font-family="sans-serif" font-size="16" font-weight="bold" lengthAdjust="spacingAndGlyphs" textLength="165" x="619" y="349.1484">Processor servers</text><rect fill="#438DD5" height="166" style="stroke: #3C7FC0; stroke-width: 1.5;" width="413" x="495" y="385"/><text fill="#000000" font-family="sans-serif" font-size="14" font-style="italic" lengthAdjust="spacingAndGlyphs" textLength="83" x="660" y="399.9951">«container»</text><text fill="#FFFFFF" font-family="sans-serif" font-size="16" font-weight="bold" lengthAdjust="spacingAndGlyphs" textLength="91" x="656" y="418.1484">Processor</text><text fill="#FFFFFF" font-family="sans-serif" font-size="12" font-style="italic" font-weight="bold" lengthAdjust="spacingAndGlyphs" textLength="10" x="696.5" y="433.0605">[]</text><rect fill="#FFFFFF" height="267" style="stroke: #444444; stroke-width: 1.0; stroke-dasharray: 7.0,7.0;" width="237" x="357" y="632"/><text fill="#000000" font-family="sans-serif" font-size="14" font-style="italic" lengthAdjust="spacingAndGlyphs" textLength="84" x="433.5" y="646.9951">«boundary»</text><text fill="#444444" font-family="sans-serif" font-size="16" font-weight="bold" lengthAdjust="spacingAndGlyphs" textLength="99" x="426" y="665.1484">DB servers</text><rect fill="#438DD5" height="166" style="stroke: #3C7FC0; stroke-width: 1.5;" width="173" x="389" y="701"/><text fill="#000000" font-family="sans-serif" font-size="14" font-style="italic" lengthAdjust="spacingAndGlyphs" textLength="83" x="434" y="715.9951">«container»</text><text fill="#FFFFFF" font-family="sans-serif" font-size="16" font-weight="bold" lengthAdjust="spacingAndGlyphs" textLength="83" x="434" y="734.1484">Database</text><text fill="#FFFFFF" font-family="sans-serif" font-size="12" font-style="italic" font-weight="bold" lengthAdjust="spacingAndGlyphs" textLength="10" x="470.5" y="749.0605">[]</text><rect fill="#FFFFFF" height="267" style="stroke: #444444; stroke-width: 1.0; stroke-dasharray: 7.0,7.0;" width="291" x="830" y="632"/><text fill="#000000" font-family="sans-serif" font-size="14" font-style="italic" lengthAdjust="spacingAndGlyphs" textLength="84" x="933.5" y="646.9951">«boundary»</text><text fill="#444444" font-family="sans-serif" font-size="16" font-weight="bold" lengthAdjust="spacingAndGlyphs" textLength="147" x="902" y="665.1484">Directory server</text><rect fill="#438DD5" height="166" style="stroke: #3C7FC0; stroke-width: 1.5;" width="227" x="862" y="701"/><text fill="#000000" font-family="sans-serif" font-size="14" font-style="italic" lengthAdjust="spacingAndGlyphs" textLength="83" x="934" y="715.9951">«container»</text><text fill="#FFFFFF" font-family="sans-serif" font-size="16" font-weight="bold" lengthAdjust="spacingAndGlyphs" textLength="140" x="905.5" y="734.1484">Shard Directory</text><text fill="#FFFFFF" font-family="sans-serif" font-size="12" font-style="italic" font-weight="bold" lengthAdjust="spacingAndGlyphs" textLength="10" x="970.5" y="749.0605">[]</text><rect fill="#438DD5" height="66.5625" style="stroke: #3C7FC0; stroke-width: 1.5;" width="171" x="251.5" y="168"/><text fill="#FFFFFF" font-family="sans-serif" font-size="12" font-style="italic" lengthAdjust="spacingAndGlyphs" textLength="74" x="300" y="189.1387">«container»</text><text fill="#FFFFFF" font-family="sans-serif" font-size="16" font-weight="bold" lengthAdjust="spacingAndGlyphs" textLength="151" x="261.5" y="206.8203">Management API</text><text fill="#FFFFFF" font-family="sans-serif" font-size="12" font-style="italic" lengthAdjust="spacingAndGlyphs" textLength="10" x="332" y="221.7324">[]</text><rect fill="#438DD5" height="85.1875" style="stroke: #3C7FC0; stroke-width: 1.5;" width="156" x="38" y="451"/><text fill="#FFFFFF" font-family="sans-serif" font-size="12" font-style="italic" lengthAdjust="spacingAndGlyphs" textLength="74" x="79" y="472.1387">«container»</text><text fill="#FFFFFF" font-family="sans-serif" font-size="16" font-weight="bold" lengthAdjust="spacingAndGlyphs" textLength="130" x="48" y="489.8203">Authentication</text><text fill="#FFFFFF" font-family="sans-serif" font-size="16" font-weight="bold" lengthAdjust="spacingAndGlyphs" textLength="65" x="83.5" y="508.4453">Service</text><text fill="#FFFFFF" font-family="sans-serif" font-size="12" font-style="italic" lengthAdjust="spacingAndGlyphs" textLength="10" x="111" y="523.3574">[]</text><rect fill="#85BBF0" height="66.5625" style="stroke: #78A8D8; stroke-width: 1.5;" width="106" x="97" y="168"/><text fill="#FFFFFF" font-family="sans-serif" font-size="12" font-style="italic" lengthAdjust="spacingAndGlyphs" textLength="85" x="107.5" y="189.1387">«component»</text><text fill="#000000" font-family="sans-serif" font-size="16" font-weight="bold" lengthAdjust="spacingAndGlyphs" textLength="86" x="107" y="206.8203">Client API</text><text fill="#000000" font-family="sans-serif" font-size="12" font-style="italic" lengthAdjust="spacingAndGlyphs" textLength="10" x="145" y="221.7324">[]</text><rect fill="#85BBF0" height="66.5625" style="stroke: #78A8D8; stroke-width: 1.5;" width="171" x="712.5" y="460"/><text fill="#FFFFFF" font-family="sans-serif" font-size="12" font-style="italic" lengthAdjust="spacingAndGlyphs" textLength="85" x="755.5" y="481.1387">«component»</text><text fill="#000000" font-family="sans-serif" font-size="16" font-weight="bold" lengthAdjust="spacingAndGlyphs" textLength="151" x="722.5" y="498.8203">Query Processor</text><text fill="#000000" font-family="sans-serif" font-size="12" font-style="italic" lengthAdjust="spacingAndGlyphs" textLength="10" x="793" y="513.7324">[]</text><rect fill="#85BBF0" height="66.5625" style="stroke: #78A8D8; stroke-width: 1.5;" width="139" x="538.5" y="460"/><text fill="#FFFFFF" font-family="sans-serif" font-size="12" font-style="italic" lengthAdjust="spacingAndGlyphs" textLength="85" x="565.5" y="481.1387">«component»</text><text fill="#000000" font-family="sans-serif" font-size="16" font-weight="bold" lengthAdjust="spacingAndGlyphs" textLength="119" x="548.5" y="498.8203">Query Parser</text><text fill="#000000" font-family="sans-serif" font-size="12" font-style="italic" lengthAdjust="spacingAndGlyphs" textLength="10" x="603" y="513.7324">[]</text><rect fill="#85BBF0" height="66.5625" style="stroke: #78A8D8; stroke-width: 1.5;" width="105" x="432.5" y="776"/><text fill="#FFFFFF" font-family="sans-serif" font-size="12" font-style="italic" lengthAdjust="spacingAndGlyphs" textLength="85" x="442.5" y="797.1387">«component»</text><text fill="#000000" font-family="sans-serif" font-size="16" font-weight="bold" lengthAdjust="spacingAndGlyphs" textLength="52" x="459" y="814.8203">DBMS</text><text fill="#000000" font-family="sans-serif" font-size="12" font-style="italic" lengthAdjust="spacingAndGlyphs" textLength="10" x="480" y="829.7324">[]</text><rect fill="#85BBF0" height="66.5625" style="stroke: #78A8D8; stroke-width: 1.5;" width="160" x="905" y="776"/><text fill="#FFFFFF" font-family="sans-serif" font-size="12" font-style="italic" lengthAdjust="spacingAndGlyphs" textLength="85" x="942.5" y="797.1387">«component»</text><text fill="#000000" font-family="sans-serif" font-size="16" font-weight="bold" lengthAdjust="spacingAndGlyphs" textLength="140" x="915" y="814.8203">Shard Directory</text><text fill="#000000" font-family="sans-serif" font-size="12" font-style="italic" lengthAdjust="spacingAndGlyphs" textLength="10" x="980" y="829.7324">[]</text><path d="M340.79,235.39 C342.44,249.97 344.36,267.33 346,283 C358.09,398.78 370.735,529.015 380.41,630.8688 C382.8287,656.3322 385.0619,680.0218 387.0543,701.2683 C387.5524,706.5799 388.0355,711.7388 388.5026,716.7346 C388.6194,717.9835 388.7352,719.2222 388.85,720.4506 " fill="none" id="adm_api-&gt;db" style="stroke: #666666; stroke-width: 1.0;"/><polygon fill="#666666" points="388.85,720.4506,391.9953,711.1175,388.3848,715.4723,384.03,711.8618,388.85,720.4506" style="stroke: #666666; stroke-width: 1.0;"/><text fill="#666666" font-family="sans-serif" font-size="13" font-weight="bold" lengthAdjust="spacingAndGlyphs" textLength="47" x="377" y="498.0669">TCP/IP</text><path d="M422.71,205.67 C565.02,212.92 840.34,236.12 900,308 C980.33,404.78 920.15,466.85 900,591 C897.52,606.26 892.26,608.89 889,624 C884.7275,643.8325 881.4075,665.0775 878.8298,685.8386 C878.5076,688.4337 878.197,691.0213 877.8976,693.5976 C877.7479,694.8858 877.601,696.1711 877.4568,697.4532 C877.3847,698.0942 877.3133,698.7344 877.2426,699.3737 C877.2073,699.6934 877.1721,700.0129 877.1371,700.3321 " fill="none" id="adm_api-&gt;dbdir" style="stroke: #666666; stroke-width: 1.0;"/><polygon fill="#666666" points="877.1371,700.3321,882.0946,691.8219,877.6823,695.3619,874.1423,690.9496,877.1371,700.3321" style="stroke: #666666; stroke-width: 1.0;"/><text fill="#666666" font-family="sans-serif" font-size="13" font-weight="bold" lengthAdjust="spacingAndGlyphs" textLength="30" x="941" y="498.0669">RPC</text><path d="M494.8428,506.9967 C494.7129,507.1951 494.5818,507.3955 494.4493,507.5978 C493.9195,508.4073 493.369,509.2479 492.799,510.1181 C491.659,511.8583 490.4409,513.7163 489.1539,515.6776 C486.5798,519.6002 483.73,523.9359 480.6775,528.5688 C468.4675,547.1 453.015,570.385 439,591 C428.95,605.78 422.23,607.24 416,624 C408.935,643.0175 404.1969,663.8488 401.0681,684.4492 C400.2859,689.5993 399.6043,694.735 399.0121,699.8244 C398.9751,700.1424 398.9384,700.4603 398.9021,700.7781 " fill="none" id="proc-&gt;db" style="stroke: #666666; stroke-width: 1.0;"/><polygon fill="#666666" points="398.9021,700.7781,403.8984,692.2906,399.47,695.8104,395.9502,691.382,398.9021,700.7781" style="stroke: #666666; stroke-width: 1.0;"/><text fill="#666666" font-family="sans-serif" font-size="13" font-weight="bold" lengthAdjust="spacingAndGlyphs" textLength="47" x="433" y="612.0669">TCP/IP</text><path d="M506.3217,551.3146 C506.4575,551.9754 506.5977,552.6369 506.7426,553.2987 C507.3219,555.9462 507.9747,558.5998 508.7094,561.2398 C511.6481,571.8 515.8975,582.1425 522,591 C547.67,628.255 633.5175,682.075 713.5175,726.855 C753.5175,749.245 792.0556,769.375 820.8788,784.0444 C835.2903,791.3791 847.2731,797.3486 855.7955,801.5529 C857.9262,802.604 859.8405,803.5447 861.5224,804.3689 " fill="none" id="proc-&gt;dbdir" style="stroke: #666666; stroke-width: 1.0;"/><polygon fill="#666666" points="861.5224,804.3689,855.2006,796.8167,857.0325,802.1688,851.6805,804.0006,861.5224,804.3689" style="stroke: #666666; stroke-width: 1.0;"/><text fill="#666666" font-family="sans-serif" font-size="13" font-weight="bold" lengthAdjust="spacingAndGlyphs" textLength="30" x="545" y="612.0669">RPC</text><path d="M72.6221,259.5351 C74.6488,270.4195 76.8734,282.3669 79.2113,294.9225 C88.5625,345.145 99.725,405.1 107.28,445.69 " fill="none" id="api-&gt;auth" style="stroke: #666666; stroke-width: 1.0;"/><polygon fill="#666666" points="108.26,450.93,110.5463,441.3502,107.3455,446.0143,102.6813,442.8135,108.26,450.93" style="stroke: #666666; stroke-width: 1.0;"/><text fill="#666666" font-family="sans-serif" font-size="13" font-weight="bold" lengthAdjust="spacingAndGlyphs" textLength="46" x="81" y="296.0669">HTTPS</text><path d="M69.158,259.2436 C69.2119,259.3572 69.2662,259.4706 69.3208,259.5838 C69.5394,260.0366 69.7636,260.4863 69.9936,260.9324 C70.9135,262.717 71.9258,264.4457 73.039,266.1006 C75.2656,269.4105 77.8963,272.425 81,275 C90.69,283.04 181.46,281.92 194,283 C248.52,287.71 396.08,274.05 439,308 C455.75,321.2525 468.1319,339.1563 477.2811,358.6194 C481.8557,368.3509 485.6221,378.4723 488.7224,388.5971 C490.2725,393.6595 491.656,398.7227 492.8908,403.7385 C493.5081,406.2463 494.0883,408.7424 494.6335,411.2205 C494.7016,411.5302 494.7692,411.8397 494.8363,412.1489 " fill="none" id="api-&gt;proc" style="stroke: #666666; stroke-width: 1.0;"/><polygon fill="#666666" points="494.8363,412.1489,496.8378,402.5056,493.7765,407.2625,489.0196,404.2012,494.8363,412.1489" style="stroke: #666666; stroke-width: 1.0;"/><text fill="#666666" font-family="sans-serif" font-size="13" font-weight="bold" lengthAdjust="spacingAndGlyphs" textLength="30" x="424" y="296.0669">RPC</text></g></svg>