<?xml version="1.0" encoding="UTF-8" standalone="no"?><svg xmlns="http://www.w3.org/2000/svg" xmlns:xlink="http://www.w3.org/1999/xlink" contentScriptType="application/ecmascript" contentStyleType="text/css" height="365px" preserveAspectRatio="none" style="width:1357px;height:365px;" version="1.1" viewBox="0 0 1357 365" width="1357px" zoomAndPan="magnify"><defs/><g><text fill="#000000" font-family="Courier" font-size="14" font-weight="bold" lengthAdjust="spacingAndGlyphs" textLength="296" x="529" y="22.9951">Coeus "Contract Changes" Process View</text><rect fill="#FFFFFF" height="37.1328" style="stroke: #FFFFFF; stroke-width: 1.0;" width="10" x="230" y="95.7266"/><line style="stroke: #383838; stroke-width: 1.0;" x1="230" x2="230" y1="95.7266" y2="132.8594"/><line style="stroke: #383838; stroke-width: 1.0;" x1="240" x2="240" y1="95.7266" y2="132.8594"/><line style="stroke: #383838; stroke-width: 1.0;" x1="230" x2="240" y1="95.7266" y2="95.7266"/><rect fill="#FFFFFF" height="63.2656" style="stroke: #FFFFFF; stroke-width: 1.0;" width="10" x="230" y="173.6641"/><line style="stroke: #383838; stroke-width: 1.0;" x1="230" x2="230" y1="173.6641" y2="236.9297"/><line style="stroke: #383838; stroke-width: 1.0;" x1="240" x2="240" y1="173.6641" y2="236.9297"/><line style="stroke: #383838; stroke-width: 1.0;" x1="230" x2="240" y1="236.9297" y2="236.9297"/><line style="stroke: #383838; stroke-width: 1.0;" x1="139" x2="139" y1="64.5938" y2="132.8594"/><line style="stroke: #383838; stroke-width: 1.0; stroke-dasharray: 1.0,4.0;" x1="139" x2="139" y1="132.8594" y2="173.6641"/><line style="stroke: #383838; stroke-width: 1.0;" x1="139" x2="139" y1="173.6641" y2="325.3594"/><line style="stroke: #383838; stroke-width: 1.0;" x1="235" x2="235" y1="64.5938" y2="132.8594"/><line style="stroke: #383838; stroke-width: 1.0; stroke-dasharray: 1.0,4.0;" x1="235" x2="235" y1="132.8594" y2="173.6641"/><line style="stroke: #383838; stroke-width: 1.0;" x1="235" x2="235" y1="173.6641" y2="325.3594"/><line style="stroke: #383838; stroke-width: 1.0;" x1="347" x2="347" y1="64.5938" y2="132.8594"/><line style="stroke: #383838; stroke-width: 1.0; stroke-dasharray: 1.0,4.0;" x1="347" x2="347" y1="132.8594" y2="173.6641"/><line style="stroke: #383838; stroke-width: 1.0;" x1="347" x2="347" y1="173.6641" y2="325.3594"/><line style="stroke: #383838; stroke-width: 1.0;" x1="463" x2="463" y1="64.5938" y2="132.8594"/><line style="stroke: #383838; stroke-width: 1.0; stroke-dasharray: 1.0,4.0;" x1="463" x2="463" y1="132.8594" y2="173.6641"/><line style="stroke: #383838; stroke-width: 1.0;" x1="463" x2="463" y1="173.6641" y2="325.3594"/><line style="stroke: #383838; stroke-width: 1.0;" x1="591" x2="591" y1="304.7109" y2="325.3594"/><line style="stroke: #383838; stroke-width: 1.0;" x1="723" x2="723" y1="64.5938" y2="132.8594"/><line style="stroke: #383838; stroke-width: 1.0; stroke-dasharray: 1.0,4.0;" x1="723" x2="723" y1="132.8594" y2="173.6641"/><line style="stroke: #383838; stroke-width: 1.0;" x1="723" x2="723" y1="173.6641" y2="325.3594"/><line style="stroke: #383838; stroke-width: 1.0;" x1="867" x2="867" y1="64.5938" y2="132.8594"/><line style="stroke: #383838; stroke-width: 1.0; stroke-dasharray: 1.0,4.0;" x1="867" x2="867" y1="132.8594" y2="173.6641"/><line style="stroke: #383838; stroke-width: 1.0;" x1="867" x2="867" y1="173.6641" y2="325.3594"/><line style="stroke: #383838; stroke-width: 1.0;" x1="999" x2="999" y1="64.5938" y2="132.8594"/><line style="stroke: #383838; stroke-width: 1.0; stroke-dasharray: 1.0,4.0;" x1="999" x2="999" y1="132.8594" y2="173.6641"/><line style="stroke: #383838; stroke-width: 1.0;" x1="999" x2="999" y1="173.6641" y2="325.3594"/><line style="stroke: #383838; stroke-width: 1.0;" x1="1155" x2="1155" y1="64.5938" y2="132.8594"/><line style="stroke: #383838; stroke-width: 1.0; stroke-dasharray: 1.0,4.0;" x1="1155" x2="1155" y1="132.8594" y2="173.6641"/><line style="stroke: #383838; stroke-width: 1.0;" x1="1155" x2="1155" y1="173.6641" y2="325.3594"/><line style="stroke: #383838; stroke-width: 1.0;" x1="1307" x2="1307" y1="64.5938" y2="132.8594"/><line style="stroke: #383838; stroke-width: 1.0; stroke-dasharray: 1.0,4.0;" x1="1307" x2="1307" y1="132.8594" y2="173.6641"/><line style="stroke: #383838; stroke-width: 1.0;" x1="1307" x2="1307" y1="173.6641" y2="325.3594"/><rect fill="#F8F8F8" height="30.2969" style="stroke: #383838; stroke-width: 1.5;" width="78" x="100" y="33.2969"/><text fill="#000000" font-family="Courier" font-size="14" lengthAdjust="spacingAndGlyphs" textLength="64" x="107" y="53.292">Watchdog</text><rect fill="#F8F8F8" height="30.2969" style="stroke: #383838; stroke-width: 1.5;" width="78" x="100" y="324.3594"/><text fill="#000000" font-family="Courier" font-size="14" lengthAdjust="spacingAndGlyphs" textLength="64" x="107" y="344.3545">Watchdog</text><rect fill="#F8F8F8" height="30.2969" style="stroke: #383838; stroke-width: 1.5;" width="94" x="188" y="33.2969"/><text fill="#000000" font-family="Courier" font-size="14" lengthAdjust="spacingAndGlyphs" textLength="80" x="195" y="53.292">Client API</text><rect fill="#F8F8F8" height="30.2969" style="stroke: #383838; stroke-width: 1.5;" width="94" x="188" y="324.3594"/><text fill="#000000" font-family="Courier" font-size="14" lengthAdjust="spacingAndGlyphs" textLength="80" x="195" y="344.3545">Client API</text><rect fill="#F8F8F8" height="30.2969" style="stroke: #383838; stroke-width: 1.5;" width="110" x="292" y="33.2969"/><text fill="#000000" font-family="Courier" font-size="14" lengthAdjust="spacingAndGlyphs" textLength="96" x="299" y="53.292">Auth Service</text><rect fill="#F8F8F8" height="30.2969" style="stroke: #383838; stroke-width: 1.5;" width="110" x="292" y="324.3594"/><text fill="#000000" font-family="Courier" font-size="14" lengthAdjust="spacingAndGlyphs" textLength="96" x="299" y="344.3545">Auth Service</text><rect fill="#F8F8F8" height="30.2969" style="stroke: #383838; stroke-width: 1.5;" width="102" x="412" y="33.2969"/><text fill="#000000" font-family="Courier" font-size="14" lengthAdjust="spacingAndGlyphs" textLength="88" x="419" y="53.292">Query Queue</text><rect fill="#F8F8F8" height="30.2969" style="stroke: #383838; stroke-width: 1.5;" width="102" x="412" y="324.3594"/><text fill="#000000" font-family="Courier" font-size="14" lengthAdjust="spacingAndGlyphs" textLength="88" x="419" y="344.3545">Query Queue</text><rect fill="#F8F8F8" height="30.2969" style="stroke: #383838; stroke-width: 1.5;" width="134" x="524" y="324.3594"/><text fill="#000000" font-family="Courier" font-size="14" lengthAdjust="spacingAndGlyphs" textLength="120" x="531" y="344.3545">Query Processor</text><rect fill="#F8F8F8" height="30.2969" style="stroke: #383838; stroke-width: 1.5;" width="110" x="668" y="33.2969"/><text fill="#000000" font-family="Courier" font-size="14" lengthAdjust="spacingAndGlyphs" textLength="96" x="675" y="53.292">Query Parser</text><rect fill="#F8F8F8" height="30.2969" style="stroke: #383838; stroke-width: 1.5;" width="110" x="668" y="324.3594"/><text fill="#000000" font-family="Courier" font-size="14" lengthAdjust="spacingAndGlyphs" textLength="96" x="675" y="344.3545">Query Parser</text><rect fill="#F8F8F8" height="30.2969" style="stroke: #383838; stroke-width: 1.5;" width="158" x="788" y="33.2969"/><text fill="#000000" font-family="Courier" font-size="14" lengthAdjust="spacingAndGlyphs" textLength="144" x="795" y="53.292">Mutation Processor</text><rect fill="#F8F8F8" height="30.2969" style="stroke: #383838; stroke-width: 1.5;" width="158" x="788" y="324.3594"/><text fill="#000000" font-family="Courier" font-size="14" lengthAdjust="spacingAndGlyphs" textLength="144" x="795" y="344.3545">Mutation Processor</text><rect fill="#F8F8F8" height="30.2969" style="stroke: #383838; stroke-width: 1.5;" width="86" x="956" y="33.2969"/><text fill="#000000" font-family="Courier" font-size="14" lengthAdjust="spacingAndGlyphs" textLength="72" x="963" y="53.292">Admin API</text><rect fill="#F8F8F8" height="30.2969" style="stroke: #383838; stroke-width: 1.5;" width="86" x="956" y="324.3594"/><text fill="#000000" font-family="Courier" font-size="14" lengthAdjust="spacingAndGlyphs" textLength="72" x="963" y="344.3545">Admin API</text><rect fill="#F8F8F8" height="30.2969" style="stroke: #383838; stroke-width: 1.5;" width="206" x="1052" y="33.2969"/><text fill="#000000" font-family="Courier" font-size="14" lengthAdjust="spacingAndGlyphs" textLength="192" x="1059" y="53.292">Client Management System</text><rect fill="#F8F8F8" height="30.2969" style="stroke: #383838; stroke-width: 1.5;" width="206" x="1052" y="324.3594"/><text fill="#000000" font-family="Courier" font-size="14" lengthAdjust="spacingAndGlyphs" textLength="192" x="1059" y="344.3545">Client Management System</text><rect fill="#F8F8F8" height="30.2969" style="stroke: #383838; stroke-width: 1.5;" width="78" x="1268" y="33.2969"/><text fill="#000000" font-family="Courier" font-size="14" lengthAdjust="spacingAndGlyphs" textLength="64" x="1275" y="53.292">Database</text><rect fill="#F8F8F8" height="30.2969" style="stroke: #383838; stroke-width: 1.5;" width="78" x="1268" y="324.3594"/><text fill="#000000" font-family="Courier" font-size="14" lengthAdjust="spacingAndGlyphs" textLength="64" x="1275" y="344.3545">Database</text><rect fill="#FFFFFF" height="37.1328" style="stroke: #FFFFFF; stroke-width: 1.0;" width="10" x="230" y="95.7266"/><line style="stroke: #383838; stroke-width: 1.0;" x1="230" x2="230" y1="95.7266" y2="132.8594"/><line style="stroke: #383838; stroke-width: 1.0;" x1="240" x2="240" y1="95.7266" y2="132.8594"/><line style="stroke: #383838; stroke-width: 1.0;" x1="230" x2="240" y1="95.7266" y2="95.7266"/><rect fill="#FFFFFF" height="63.2656" style="stroke: #FFFFFF; stroke-width: 1.0;" width="10" x="230" y="173.6641"/><line style="stroke: #383838; stroke-width: 1.0;" x1="230" x2="230" y1="173.6641" y2="236.9297"/><line style="stroke: #383838; stroke-width: 1.0;" x1="240" x2="240" y1="173.6641" y2="236.9297"/><line style="stroke: #383838; stroke-width: 1.0;" x1="230" x2="240" y1="236.9297" y2="236.9297"/><polygon fill="#383838" points="218,91.7266,228,95.7266,218,99.7266,222,95.7266" style="stroke: #383838; stroke-width: 1.0;"/><line style="stroke: #383838; stroke-width: 1.0;" x1="139" x2="224" y1="95.7266" y2="95.7266"/><text fill="#000000" font-family="Courier" font-size="13" lengthAdjust="spacingAndGlyphs" textLength="32" x="146" y="90.6606">ping</text><polygon fill="#383838" points="579,120.8594,589,124.8594,579,128.8594,583,124.8594" style="stroke: #383838; stroke-width: 1.0;"/><line style="stroke: #383838; stroke-width: 1.0;" x1="240" x2="585" y1="124.8594" y2="124.8594"/><text fill="#000000" font-family="Courier" font-size="13" lengthAdjust="spacingAndGlyphs" textLength="32" x="247" y="119.7935">ping</text><line style="stroke: #383838; stroke-width: 2.0;" x1="582" x2="600" y1="115.8594" y2="133.8594"/><line style="stroke: #383838; stroke-width: 2.0;" x1="582" x2="600" y1="133.8594" y2="115.8594"/><text fill="#000000" font-family="Courier" font-size="11" lengthAdjust="spacingAndGlyphs" textLength="105" x="670.5" y="157.0698">some time later</text><line style="stroke: #383838; stroke-width: 1.0;" x1="240" x2="282" y1="194.7969" y2="194.7969"/><line style="stroke: #383838; stroke-width: 1.0;" x1="282" x2="282" y1="194.7969" y2="207.7969"/><line style="stroke: #383838; stroke-width: 1.0;" x1="241" x2="282" y1="207.7969" y2="207.7969"/><polygon fill="#383838" points="251,203.7969,241,207.7969,251,211.7969,247,207.7969" style="stroke: #383838; stroke-width: 1.0;"/><text fill="#000000" font-family="Courier" font-size="13" lengthAdjust="spacingAndGlyphs" textLength="56" x="247" y="189.731">timeout</text><polygon fill="#383838" points="150,232.9297,140,236.9297,150,240.9297,146,236.9297" style="stroke: #383838; stroke-width: 1.0;"/><line style="stroke: #383838; stroke-width: 1.0; stroke-dasharray: 2.0,2.0;" x1="144" x2="234" y1="236.9297" y2="236.9297"/><text fill="#000000" font-family="Courier" font-size="13" lengthAdjust="spacingAndGlyphs" textLength="56" x="156" y="231.8638">failure</text><polygon fill="#383838" points="14,262.0625,4,266.0625,14,270.0625,10,266.0625" style="stroke: #383838; stroke-width: 1.0;"/><line style="stroke: #383838; stroke-width: 1.0;" x1="8" x2="138" y1="266.0625" y2="266.0625"/><text fill="#000000" font-family="Courier" font-size="13" lengthAdjust="spacingAndGlyphs" textLength="112" x="20" y="260.9966">report failure</text><polygon fill="#383838" points="512,291.1953,522,295.1953,512,299.1953,516,295.1953" style="stroke: #383838; stroke-width: 1.0;"/><line style="stroke: #383838; stroke-width: 1.0;" x1="139" x2="518" y1="295.1953" y2="295.1953"/><text fill="#000000" font-family="Courier" font-size="13" lengthAdjust="spacingAndGlyphs" textLength="184" x="146" y="290.1294">reboot or reinstantiate</text><rect fill="#F8F8F8" height="30.2969" style="stroke: #383838; stroke-width: 1.5;" width="134" x="524" y="274.0625"/><text fill="#000000" font-family="Courier" font-size="14" lengthAdjust="spacingAndGlyphs" textLength="120" x="531" y="294.0576">Query Processor</text></g></svg>