<?xml version="1.0" encoding="UTF-8" standalone="no"?><svg xmlns="http://www.w3.org/2000/svg" xmlns:xlink="http://www.w3.org/1999/xlink" contentScriptType="application/ecmascript" contentStyleType="text/css" height="506px" preserveAspectRatio="none" style="width:626px;height:506px;" version="1.1" viewBox="0 0 626 506" width="626px" zoomAndPan="magnify"><defs/><g><rect fill="#FFFFFF" height="300" style="stroke: #444444; stroke-width: 1.0; stroke-dasharray: 7.0,7.0;" width="316" x="22" y="24"/><text fill="#000000" font-family="sans-serif" font-size="14" font-style="italic" lengthAdjust="spacingAndGlyphs" textLength="84" x="138" y="38.9951">«boundary»</text><text fill="#444444" font-family="sans-serif" font-size="16" font-weight="bold" lengthAdjust="spacingAndGlyphs" textLength="94" x="133" y="57.1484">API server</text><rect fill="#FFFFFF" height="122" style="stroke: #444444; stroke-width: 1.0; stroke-dasharray: 7.0,7.0;" width="181" x="362" y="193"/><text fill="#000000" font-family="sans-serif" font-size="14" font-style="italic" lengthAdjust="spacingAndGlyphs" textLength="84" x="410.5" y="207.9951">«boundary»</text><text fill="#444444" font-family="sans-serif" font-size="16" font-weight="bold" lengthAdjust="spacingAndGlyphs" textLength="165" x="370" y="226.1484">Processor servers</text><rect fill="#FFFFFF" height="122" style="stroke: #444444; stroke-width: 1.0; stroke-dasharray: 7.0,7.0;" width="110" x="494" y="373"/><text fill="#000000" font-family="sans-serif" font-size="14" font-style="italic" lengthAdjust="spacingAndGlyphs" textLength="84" x="507" y="387.9951">«boundary»</text><text fill="#444444" font-family="sans-serif" font-size="16" font-weight="bold" lengthAdjust="spacingAndGlyphs" textLength="89" x="504.5" y="406.1484">DB server</text><rect fill="#1168BD" height="52.5938" style="stroke: #3C7FC0; stroke-width: 1.5;" width="77" x="38.5" y="77"/><text fill="#FFFFFF" font-family="sans-serif" font-size="12" font-style="italic" lengthAdjust="spacingAndGlyphs" textLength="57" x="48.5" y="98.1387">«system»</text><text fill="#FFFFFF" font-family="sans-serif" font-size="16" font-weight="bold" lengthAdjust="spacingAndGlyphs" textLength="30" x="62" y="115.8203">API</text><rect fill="#1168BD" height="52.5938" style="stroke: #3C7FC0; stroke-width: 1.5;" width="171" x="150.5" y="77"/><text fill="#FFFFFF" font-family="sans-serif" font-size="12" font-style="italic" lengthAdjust="spacingAndGlyphs" textLength="57" x="207.5" y="98.1387">«system»</text><text fill="#FFFFFF" font-family="sans-serif" font-size="16" font-weight="bold" lengthAdjust="spacingAndGlyphs" textLength="151" x="160.5" y="115.8203">Management API</text><rect fill="#1168BD" height="71.2188" style="stroke: #3C7FC0; stroke-width: 1.5;" width="156" x="38" y="237"/><text fill="#FFFFFF" font-family="sans-serif" font-size="12" font-style="italic" lengthAdjust="spacingAndGlyphs" textLength="57" x="87.5" y="258.1387">«system»</text><text fill="#FFFFFF" font-family="sans-serif" font-size="16" font-weight="bold" lengthAdjust="spacingAndGlyphs" textLength="130" x="48" y="275.8203">Authentication</text><text fill="#FFFFFF" font-family="sans-serif" font-size="16" font-weight="bold" lengthAdjust="spacingAndGlyphs" textLength="65" x="83.5" y="294.4453">Service</text><rect fill="#1168BD" height="52.5938" style="stroke: #3C7FC0; stroke-width: 1.5;" width="111" x="395.5" y="246"/><text fill="#FFFFFF" font-family="sans-serif" font-size="12" font-style="italic" lengthAdjust="spacingAndGlyphs" textLength="57" x="422.5" y="267.1387">«system»</text><text fill="#FFFFFF" font-family="sans-serif" font-size="16" font-weight="bold" lengthAdjust="spacingAndGlyphs" textLength="91" x="405.5" y="284.8203">Processor</text><rect fill="#1168BD" height="52.5938" style="stroke: #3C7FC0; stroke-width: 1.5;" width="77" x="510.5" y="426"/><text fill="#FFFFFF" font-family="sans-serif" font-size="12" font-style="italic" lengthAdjust="spacingAndGlyphs" textLength="57" x="520.5" y="447.1387">«system»</text><text fill="#FFFFFF" font-family="sans-serif" font-size="16" font-weight="bold" lengthAdjust="spacingAndGlyphs" textLength="52" x="523" y="464.8203">DBMS</text><path d="M321.83,118.43 C395.87,132.21 495.02,155.5 522,185 C581.74,250.33 567.56,365.86 556.37,420.81 " fill="none" id="adm_api-&gt;db" style="stroke: #666666; stroke-width: 1.0;"/><polygon fill="#666666" points="555.3,425.93,561.0683,417.9471,556.3301,421.0373,553.2399,416.299,555.3,425.93" style="stroke: #666666; stroke-width: 1.0;"/><text fill="#666666" font-family="sans-serif" font-size="13" font-weight="bold" lengthAdjust="spacingAndGlyphs" textLength="47" x="567" y="277.0669">TCP/IP</text><path d="M465.04,299 C482.82,331.29 513.41,386.86 532.35,421.25 " fill="none" id="proc-&gt;db" style="stroke: #666666; stroke-width: 1.0;"/><polygon fill="#666666" points="534.83,425.76,533.9939,415.9467,532.4188,421.3798,526.9856,419.8047,534.83,425.76" style="stroke: #666666; stroke-width: 1.0;"/><text fill="#666666" font-family="sans-serif" font-size="13" font-weight="bold" lengthAdjust="spacingAndGlyphs" textLength="47" x="495" y="353.0669">TCP/IP</text><path d="M115.52,123.04 C121.31,125.54 127.27,127.94 133,130 C221.78,161.88 253.38,143.31 338,185 C368.25,199.9 398.37,223.51 419.9,242.3 " fill="none" id="api-&gt;proc" style="stroke: #666666; stroke-width: 1.0;"/><polygon fill="#666666" points="423.81,245.74,419.7046,236.7876,420.0596,242.4333,414.4139,242.7883,423.81,245.74" style="stroke: #666666; stroke-width: 1.0;"/><text fill="#666666" font-family="sans-serif" font-size="13" font-weight="bold" lengthAdjust="spacingAndGlyphs" textLength="30" x="319" y="173.0669">RPC</text><path d="M83.01,130.23 C89.34,157.32 99.38,200.34 106.73,231.79 " fill="none" id="api-&gt;auth" style="stroke: #666666; stroke-width: 1.0;"/><polygon fill="#666666" points="107.88,236.74,109.7186,227.0643,106.738,231.8722,101.9301,228.8915,107.88,236.74" style="stroke: #666666; stroke-width: 1.0;"/><text fill="#666666" font-family="sans-serif" font-size="13" font-weight="bold" lengthAdjust="spacingAndGlyphs" textLength="46" x="95" y="173.0669">HTTPS</text></g></svg>