<?xml version="1.0" encoding="UTF-8" standalone="no"?><svg xmlns="http://www.w3.org/2000/svg" xmlns:xlink="http://www.w3.org/1999/xlink" contentScriptType="application/ecmascript" contentStyleType="text/css" height="548px" preserveAspectRatio="none" style="width:644px;height:548px;" version="1.1" viewBox="0 0 644 548" width="644px" zoomAndPan="magnify"><defs/><g><rect fill="#FFFFFF" height="328" style="stroke: #444444; stroke-width: 1.0; stroke-dasharray: 7.0,7.0;" width="333" x="22" y="24"/><text fill="#000000" font-family="sans-serif" font-size="14" font-style="italic" lengthAdjust="spacingAndGlyphs" textLength="84" x="146.5" y="38.9951">«boundary»</text><text fill="#444444" font-family="sans-serif" font-size="16" font-weight="bold" lengthAdjust="spacingAndGlyphs" textLength="94" x="141.5" y="57.1484">API server</text><rect fill="#FFFFFF" height="136" style="stroke: #444444; stroke-width: 1.0; stroke-dasharray: 7.0,7.0;" width="181" x="379" y="207"/><text fill="#000000" font-family="sans-serif" font-size="14" font-style="italic" lengthAdjust="spacingAndGlyphs" textLength="84" x="427.5" y="221.9951">«boundary»</text><text fill="#444444" font-family="sans-serif" font-size="16" font-weight="bold" lengthAdjust="spacingAndGlyphs" textLength="165" x="387" y="240.1484">Processor servers</text><rect fill="#FFFFFF" height="136" style="stroke: #444444; stroke-width: 1.0; stroke-dasharray: 7.0,7.0;" width="126" x="501" y="401"/><text fill="#000000" font-family="sans-serif" font-size="14" font-style="italic" lengthAdjust="spacingAndGlyphs" textLength="84" x="522" y="415.9951">«boundary»</text><text fill="#444444" font-family="sans-serif" font-size="16" font-weight="bold" lengthAdjust="spacingAndGlyphs" textLength="89" x="519.5" y="434.1484">DB server</text><rect fill="#438DD5" height="66.5625" style="stroke: #3C7FC0; stroke-width: 1.5;" width="94" x="38" y="77"/><text fill="#FFFFFF" font-family="sans-serif" font-size="12" font-style="italic" lengthAdjust="spacingAndGlyphs" textLength="74" x="48" y="98.1387">«container»</text><text fill="#FFFFFF" font-family="sans-serif" font-size="16" font-weight="bold" lengthAdjust="spacingAndGlyphs" textLength="30" x="70" y="115.8203">API</text><text fill="#FFFFFF" font-family="sans-serif" font-size="12" font-style="italic" lengthAdjust="spacingAndGlyphs" textLength="10" x="80" y="130.7324">[]</text><rect fill="#438DD5" height="66.5625" style="stroke: #3C7FC0; stroke-width: 1.5;" width="171" x="167.5" y="77"/><text fill="#FFFFFF" font-family="sans-serif" font-size="12" font-style="italic" lengthAdjust="spacingAndGlyphs" textLength="74" x="216" y="98.1387">«container»</text><text fill="#FFFFFF" font-family="sans-serif" font-size="16" font-weight="bold" lengthAdjust="spacingAndGlyphs" textLength="151" x="177.5" y="115.8203">Management API</text><text fill="#FFFFFF" font-family="sans-serif" font-size="12" font-style="italic" lengthAdjust="spacingAndGlyphs" textLength="10" x="248" y="130.7324">[]</text><rect fill="#438DD5" height="85.1875" style="stroke: #3C7FC0; stroke-width: 1.5;" width="156" x="38" y="251"/><text fill="#FFFFFF" font-family="sans-serif" font-size="12" font-style="italic" lengthAdjust="spacingAndGlyphs" textLength="74" x="79" y="272.1387">«container»</text><text fill="#FFFFFF" font-family="sans-serif" font-size="16" font-weight="bold" lengthAdjust="spacingAndGlyphs" textLength="130" x="48" y="289.8203">Authentication</text><text fill="#FFFFFF" font-family="sans-serif" font-size="16" font-weight="bold" lengthAdjust="spacingAndGlyphs" textLength="65" x="83.5" y="308.4453">Service</text><text fill="#FFFFFF" font-family="sans-serif" font-size="12" font-style="italic" lengthAdjust="spacingAndGlyphs" textLength="10" x="111" y="323.3574">[]</text><rect fill="#438DD5" height="66.5625" style="stroke: #3C7FC0; stroke-width: 1.5;" width="111" x="412.5" y="260"/><text fill="#FFFFFF" font-family="sans-serif" font-size="12" font-style="italic" lengthAdjust="spacingAndGlyphs" textLength="74" x="431" y="281.1387">«container»</text><text fill="#FFFFFF" font-family="sans-serif" font-size="16" font-weight="bold" lengthAdjust="spacingAndGlyphs" textLength="91" x="422.5" y="298.8203">Processor</text><text fill="#FFFFFF" font-family="sans-serif" font-size="12" font-style="italic" lengthAdjust="spacingAndGlyphs" textLength="10" x="463" y="313.7324">[]</text><rect fill="#438DD5" height="66.5625" style="stroke: #3C7FC0; stroke-width: 1.5;" width="94" x="517" y="454"/><text fill="#FFFFFF" font-family="sans-serif" font-size="12" font-style="italic" lengthAdjust="spacingAndGlyphs" textLength="74" x="527" y="475.1387">«container»</text><text fill="#FFFFFF" font-family="sans-serif" font-size="16" font-weight="bold" lengthAdjust="spacingAndGlyphs" textLength="52" x="538" y="492.8203">DBMS</text><text fill="#FFFFFF" font-family="sans-serif" font-size="12" font-style="italic" lengthAdjust="spacingAndGlyphs" textLength="10" x="559" y="507.7324">[]</text><path d="M338.77,114.8 C403.23,122.03 488.75,142.58 539,199 C600.75,268.32 586.21,387.91 573.46,448.68 " fill="none" id="adm_api-&gt;db" style="stroke: #666666; stroke-width: 1.0;"/><polygon fill="#666666" points="572.39,453.67,578.1806,445.7033,573.4337,448.7802,570.3569,444.0333,572.39,453.67" style="stroke: #666666; stroke-width: 1.0;"/><text fill="#666666" font-family="sans-serif" font-size="13" font-weight="bold" lengthAdjust="spacingAndGlyphs" textLength="47" x="585" y="298.0669">TCP/IP</text><path d="M484.29,327.07 C501.18,360.86 527.56,413.62 545.3,449.1 " fill="none" id="proc-&gt;db" style="stroke: #666666; stroke-width: 1.0;"/><polygon fill="#666666" points="547.64,453.77,547.2054,443.9307,545.4097,449.295,540.0454,447.4993,547.64,453.77" style="stroke: #666666; stroke-width: 1.0;"/><text fill="#666666" font-family="sans-serif" font-size="13" font-weight="bold" lengthAdjust="spacingAndGlyphs" textLength="47" x="514" y="381.0669">TCP/IP</text><path d="M132.07,136.41 C138.03,139.16 144.1,141.76 150,144 C238.19,177.49 271.18,155.72 355,199 C383.54,213.74 411.39,236.66 432.3,256.11 " fill="none" id="api-&gt;proc" style="stroke: #666666; stroke-width: 1.0;"/><polygon fill="#666666" points="436.13,259.7,432.3177,250.6189,432.489,256.2732,426.8347,256.4445,436.13,259.7" style="stroke: #666666; stroke-width: 1.0;"/><text fill="#666666" font-family="sans-serif" font-size="13" font-weight="bold" lengthAdjust="spacingAndGlyphs" textLength="30" x="336" y="187.0669">RPC</text><path d="M90.61,144.28 C95.47,172.61 102.54,213.9 107.99,245.71 " fill="none" id="api-&gt;auth" style="stroke: #666666; stroke-width: 1.0;"/><polygon fill="#666666" points="108.85,250.73,111.2757,241.1845,108.0072,245.8015,103.3901,242.5331,108.85,250.73" style="stroke: #666666; stroke-width: 1.0;"/><text fill="#666666" font-family="sans-serif" font-size="13" font-weight="bold" lengthAdjust="spacingAndGlyphs" textLength="46" x="99" y="187.0669">HTTPS</text></g></svg>