<?xml version="1.0" encoding="UTF-8" standalone="no"?><svg xmlns="http://www.w3.org/2000/svg" xmlns:xlink="http://www.w3.org/1999/xlink" contentScriptType="application/ecmascript" contentStyleType="text/css" height="660px" preserveAspectRatio="none" style="width:739px;height:660px;" version="1.1" viewBox="0 0 739 660" width="739px" zoomAndPan="magnify"><defs/><g><text fill="#000000" font-family="Courier" font-size="14" font-weight="bold" lengthAdjust="spacingAndGlyphs" textLength="248" x="241.5" y="22.9951">Coeus "User Query" Process View</text><rect fill="#FFFFFF" height="95.3984" style="stroke: #FFFFFF; stroke-width: 1.0;" width="10" x="235" y="153.9922"/><line style="stroke: #383838; stroke-width: 1.0;" x1="235" x2="235" y1="153.9922" y2="249.3906"/><line style="stroke: #383838; stroke-width: 1.0;" x1="245" x2="245" y1="153.9922" y2="249.3906"/><line style="stroke: #383838; stroke-width: 1.0;" x1="235" x2="245" y1="153.9922" y2="153.9922"/><rect fill="#FFFFFF" height="312.4609" style="stroke: #FFFFFF; stroke-width: 1.0;" width="10" x="235" y="290.1953"/><line style="stroke: #383838; stroke-width: 1.0;" x1="235" x2="235" y1="290.1953" y2="602.6563"/><line style="stroke: #383838; stroke-width: 1.0;" x1="245" x2="245" y1="290.1953" y2="602.6563"/><line style="stroke: #383838; stroke-width: 1.0;" x1="235" x2="245" y1="602.6563" y2="602.6563"/><rect fill="#FFFFFF" height="8" style="stroke: #FFFFFF; stroke-width: 1.0;" width="10" x="240" y="241.3906"/><line style="stroke: #383838; stroke-width: 1.0;" x1="240" x2="240" y1="241.3906" y2="249.3906"/><line style="stroke: #383838; stroke-width: 1.0;" x1="250" x2="250" y1="241.3906" y2="249.3906"/><line style="stroke: #383838; stroke-width: 1.0;" x1="240" x2="250" y1="241.3906" y2="241.3906"/><rect fill="#FFFFFF" height="195.9297" style="stroke: #FFFFFF; stroke-width: 1.0;" width="10" x="240" y="290.1953"/><line style="stroke: #383838; stroke-width: 1.0;" x1="240" x2="240" y1="290.1953" y2="486.125"/><line style="stroke: #383838; stroke-width: 1.0;" x1="250" x2="250" y1="290.1953" y2="486.125"/><line style="stroke: #383838; stroke-width: 1.0;" x1="240" x2="250" y1="486.125" y2="486.125"/><rect fill="#FFFFFF" height="66.2656" style="stroke: #FFFFFF; stroke-width: 1.0;" width="10" x="363" y="183.125"/><line style="stroke: #383838; stroke-width: 1.0;" x1="363" x2="363" y1="183.125" y2="249.3906"/><line style="stroke: #383838; stroke-width: 1.0;" x1="373" x2="373" y1="183.125" y2="249.3906"/><line style="stroke: #383838; stroke-width: 1.0;" x1="363" x2="373" y1="183.125" y2="183.125"/><rect fill="#FFFFFF" height="166.7969" style="stroke: #FFFFFF; stroke-width: 1.0;" width="10" x="363" y="290.1953"/><line style="stroke: #383838; stroke-width: 1.0;" x1="363" x2="363" y1="290.1953" y2="456.9922"/><line style="stroke: #383838; stroke-width: 1.0;" x1="373" x2="373" y1="290.1953" y2="456.9922"/><line style="stroke: #383838; stroke-width: 1.0;" x1="363" x2="373" y1="456.9922" y2="456.9922"/><rect fill="#FFFFFF" height="174.7969" style="stroke: #FFFFFF; stroke-width: 1.0;" width="10" x="515" y="74.5938"/><line style="stroke: #383838; stroke-width: 1.0;" x1="515" x2="515" y1="74.5938" y2="249.3906"/><line style="stroke: #383838; stroke-width: 1.0;" x1="525" x2="525" y1="74.5938" y2="249.3906"/><line style="stroke: #383838; stroke-width: 1.0;" x1="515" x2="525" y1="74.5938" y2="74.5938"/><rect fill="#FFFFFF" height="21.1328" style="stroke: #FFFFFF; stroke-width: 1.0;" width="10" x="515" y="290.1953"/><line style="stroke: #383838; stroke-width: 1.0;" x1="515" x2="515" y1="290.1953" y2="311.3281"/><line style="stroke: #383838; stroke-width: 1.0;" x1="525" x2="525" y1="290.1953" y2="311.3281"/><line style="stroke: #383838; stroke-width: 1.0;" x1="515" x2="525" y1="311.3281" y2="311.3281"/><rect fill="#FFFFFF" height="203.9297" style="stroke: #383838; stroke-width: 1.0;" width="10" x="515" y="369.5938"/><rect fill="#FFFFFF" height="29.1328" style="stroke: #383838; stroke-width: 1.0;" width="10" x="640" y="398.7266"/><rect fill="#FFFFFF" height="29.1328" style="stroke: #383838; stroke-width: 1.0;" width="10" x="640" y="515.2578"/><line style="stroke: #383838; stroke-width: 1.0;" x1="131" x2="131" y1="64.5938" y2="249.3906"/><line style="stroke: #383838; stroke-width: 1.0; stroke-dasharray: 1.0,4.0;" x1="131" x2="131" y1="249.3906" y2="290.1953"/><line style="stroke: #383838; stroke-width: 1.0;" x1="131" x2="131" y1="290.1953" y2="620.6563"/><line style="stroke: #383838; stroke-width: 1.0;" x1="240" x2="240" y1="64.5938" y2="249.3906"/><line style="stroke: #383838; stroke-width: 1.0; stroke-dasharray: 1.0,4.0;" x1="240" x2="240" y1="249.3906" y2="290.1953"/><line style="stroke: #383838; stroke-width: 1.0;" x1="240" x2="240" y1="290.1953" y2="620.6563"/><line style="stroke: #383838; stroke-width: 1.0;" x1="368" x2="368" y1="64.5938" y2="249.3906"/><line style="stroke: #383838; stroke-width: 1.0; stroke-dasharray: 1.0,4.0;" x1="368" x2="368" y1="249.3906" y2="290.1953"/><line style="stroke: #383838; stroke-width: 1.0;" x1="368" x2="368" y1="290.1953" y2="620.6563"/><line style="stroke: #383838; stroke-width: 1.0;" x1="520" x2="520" y1="64.5938" y2="249.3906"/><line style="stroke: #383838; stroke-width: 1.0; stroke-dasharray: 1.0,4.0;" x1="520" x2="520" y1="249.3906" y2="290.1953"/><line style="stroke: #383838; stroke-width: 1.0;" x1="520" x2="520" y1="290.1953" y2="620.6563"/><line style="stroke: #383838; stroke-width: 1.0;" x1="645" x2="645" y1="64.5938" y2="249.3906"/><line style="stroke: #383838; stroke-width: 1.0; stroke-dasharray: 1.0,4.0;" x1="645" x2="645" y1="249.3906" y2="290.1953"/><line style="stroke: #383838; stroke-width: 1.0;" x1="645" x2="645" y1="290.1953" y2="620.6563"/><rect fill="#F8F8F8" height="30.2969" style="stroke: #383838; stroke-width: 1.5;" width="94" x="84" y="33.2969"/><text fill="#000000" font-family="Courier" font-size="14" lengthAdjust="spacingAndGlyphs" textLength="80" x="91" y="53.292">Client API</text><rect fill="#F8F8F8" height="30.2969" style="stroke: #383838; stroke-width: 1.5;" width="94" x="84" y="619.6563"/><text fill="#000000" font-family="Courier" font-size="14" lengthAdjust="spacingAndGlyphs" textLength="80" x="91" y="639.6514">Client API</text><rect fill="#F8F8F8" height="30.2969" style="stroke: #383838; stroke-width: 1.5;" width="102" x="189" y="33.2969"/><text fill="#000000" font-family="Courier" font-size="14" lengthAdjust="spacingAndGlyphs" textLength="88" x="196" y="53.292">Query Queue</text><rect fill="#F8F8F8" height="30.2969" style="stroke: #383838; stroke-width: 1.5;" width="102" x="189" y="619.6563"/><text fill="#000000" font-family="Courier" font-size="14" lengthAdjust="spacingAndGlyphs" textLength="88" x="196" y="639.6514">Query Queue</text><rect fill="#F8F8F8" height="30.2969" style="stroke: #383838; stroke-width: 1.5;" width="134" x="301" y="33.2969"/><text fill="#000000" font-family="Courier" font-size="14" lengthAdjust="spacingAndGlyphs" textLength="120" x="308" y="53.292">Query Processor</text><rect fill="#F8F8F8" height="30.2969" style="stroke: #383838; stroke-width: 1.5;" width="134" x="301" y="619.6563"/><text fill="#000000" font-family="Courier" font-size="14" lengthAdjust="spacingAndGlyphs" textLength="120" x="308" y="639.6514">Query Processor</text><rect fill="#F8F8F8" height="30.2969" style="stroke: #383838; stroke-width: 1.5;" width="150" x="445" y="33.2969"/><text fill="#000000" font-family="Courier" font-size="14" lengthAdjust="spacingAndGlyphs" textLength="136" x="452" y="53.292">Query Processor 2</text><rect fill="#F8F8F8" height="30.2969" style="stroke: #383838; stroke-width: 1.5;" width="150" x="445" y="619.6563"/><text fill="#000000" font-family="Courier" font-size="14" lengthAdjust="spacingAndGlyphs" textLength="136" x="452" y="639.6514">Query Processor 2</text><rect fill="#F8F8F8" height="30.2969" style="stroke: #383838; stroke-width: 1.5;" width="78" x="606" y="33.2969"/><text fill="#000000" font-family="Courier" font-size="14" lengthAdjust="spacingAndGlyphs" textLength="64" x="613" y="53.292">Database</text><rect fill="#F8F8F8" height="30.2969" style="stroke: #383838; stroke-width: 1.5;" width="78" x="606" y="619.6563"/><text fill="#000000" font-family="Courier" font-size="14" lengthAdjust="spacingAndGlyphs" textLength="64" x="613" y="639.6514">Database</text><rect fill="#FFFFFF" height="95.3984" style="stroke: #FFFFFF; stroke-width: 1.0;" width="10" x="235" y="153.9922"/><line style="stroke: #383838; stroke-width: 1.0;" x1="235" x2="235" y1="153.9922" y2="249.3906"/><line style="stroke: #383838; stroke-width: 1.0;" x1="245" x2="245" y1="153.9922" y2="249.3906"/><line style="stroke: #383838; stroke-width: 1.0;" x1="235" x2="245" y1="153.9922" y2="153.9922"/><rect fill="#FFFFFF" height="312.4609" style="stroke: #FFFFFF; stroke-width: 1.0;" width="10" x="235" y="290.1953"/><line style="stroke: #383838; stroke-width: 1.0;" x1="235" x2="235" y1="290.1953" y2="602.6563"/><line style="stroke: #383838; stroke-width: 1.0;" x1="245" x2="245" y1="290.1953" y2="602.6563"/><line style="stroke: #383838; stroke-width: 1.0;" x1="235" x2="245" y1="602.6563" y2="602.6563"/><rect fill="#FFFFFF" height="8" style="stroke: #FFFFFF; stroke-width: 1.0;" width="10" x="240" y="241.3906"/><line style="stroke: #383838; stroke-width: 1.0;" x1="240" x2="240" y1="241.3906" y2="249.3906"/><line style="stroke: #383838; stroke-width: 1.0;" x1="250" x2="250" y1="241.3906" y2="249.3906"/><line style="stroke: #383838; stroke-width: 1.0;" x1="240" x2="250" y1="241.3906" y2="241.3906"/><rect fill="#FFFFFF" height="195.9297" style="stroke: #FFFFFF; stroke-width: 1.0;" width="10" x="240" y="290.1953"/><line style="stroke: #383838; stroke-width: 1.0;" x1="240" x2="240" y1="290.1953" y2="486.125"/><line style="stroke: #383838; stroke-width: 1.0;" x1="250" x2="250" y1="290.1953" y2="486.125"/><line style="stroke: #383838; stroke-width: 1.0;" x1="240" x2="250" y1="486.125" y2="486.125"/><rect fill="#FFFFFF" height="66.2656" style="stroke: #FFFFFF; stroke-width: 1.0;" width="10" x="363" y="183.125"/><line style="stroke: #383838; stroke-width: 1.0;" x1="363" x2="363" y1="183.125" y2="249.3906"/><line style="stroke: #383838; stroke-width: 1.0;" x1="373" x2="373" y1="183.125" y2="249.3906"/><line style="stroke: #383838; stroke-width: 1.0;" x1="363" x2="373" y1="183.125" y2="183.125"/><rect fill="#FFFFFF" height="166.7969" style="stroke: #FFFFFF; stroke-width: 1.0;" width="10" x="363" y="290.1953"/><line style="stroke: #383838; stroke-width: 1.0;" x1="363" x2="363" y1="290.1953" y2="456.9922"/><line style="stroke: #383838; stroke-width: 1.0;" x1="373" x2="373" y1="290.1953" y2="456.9922"/><line style="stroke: #383838; stroke-width: 1.0;" x1="363" x2="373" y1="456.9922" y2="456.9922"/><rect fill="#FFFFFF" height="174.7969" style="stroke: #FFFFFF; stroke-width: 1.0;" width="10" x="515" y="74.5938"/><line style="stroke: #383838; stroke-width: 1.0;" x1="515" x2="515" y1="74.5938" y2="249.3906"/><line style="stroke: #383838; stroke-width: 1.0;" x1="525" x2="525" y1="74.5938" y2="249.3906"/><line style="stroke: #383838; stroke-width: 1.0;" x1="515" x2="525" y1="74.5938" y2="74.5938"/><rect fill="#FFFFFF" height="21.1328" style="stroke: #FFFFFF; stroke-width: 1.0;" width="10" x="515" y="290.1953"/><line style="stroke: #383838; stroke-width: 1.0;" x1="515" x2="515" y1="290.1953" y2="311.3281"/><line style="stroke: #383838; stroke-width: 1.0;" x1="525" x2="525" y1="290.1953" y2="311.3281"/><line style="stroke: #383838; stroke-width: 1.0;" x1="515" x2="525" y1="311.3281" y2="311.3281"/><rect fill="#FFFFFF" height="203.9297" style="stroke: #383838; stroke-width: 1.0;" width="10" x="515" y="369.5938"/><rect fill="#FFFFFF" height="29.1328" style="stroke: #383838; stroke-width: 1.0;" width="10" x="640" y="398.7266"/><rect fill="#FFFFFF" height="29.1328" style="stroke: #383838; stroke-width: 1.0;" width="10" x="640" y="515.2578"/><polygon fill="#383838" points="251,91.7266,241,95.7266,251,99.7266,247,95.7266" style="stroke: #383838; stroke-width: 1.0;"/><line style="stroke: #383838; stroke-width: 1.0;" x1="245" x2="367" y1="95.7266" y2="95.7266"/><text fill="#000000" font-family="Courier" font-size="13" lengthAdjust="spacingAndGlyphs" textLength="80" x="257" y="90.6606">Pull Query</text><polygon fill="#383838" points="119,120.8594,129,124.8594,119,128.8594,123,124.8594" style="stroke: #383838; stroke-width: 1.0;"/><line style="stroke: #383838; stroke-width: 1.0;" x1="3" x2="125" y1="124.8594" y2="124.8594"/><text fill="#000000" font-family="Courier" font-size="13" lengthAdjust="spacingAndGlyphs" textLength="104" x="10" y="119.7935">Receive query</text><polygon fill="#383838" points="223,149.9922,233,153.9922,223,157.9922,227,153.9922" style="stroke: #383838; stroke-width: 1.0;"/><line style="stroke: #383838; stroke-width: 1.0;" x1="131" x2="229" y1="153.9922" y2="153.9922"/><text fill="#000000" font-family="Courier" font-size="13" lengthAdjust="spacingAndGlyphs" textLength="80" x="138" y="148.9263">Push Query</text><polygon fill="#383838" points="351,179.125,361,183.125,351,187.125,355,183.125" style="stroke: #383838; stroke-width: 1.0;"/><line style="stroke: #383838; stroke-width: 1.0; stroke-dasharray: 2.0,2.0;" x1="245" x2="357" y1="183.125" y2="183.125"/><text fill="#000000" font-family="Courier" font-size="13" lengthAdjust="spacingAndGlyphs" textLength="40" x="252" y="178.0591">Query</text><polygon fill="#383838" points="119,208.2578,129,212.2578,119,216.2578,123,212.2578" style="stroke: #383838; stroke-width: 1.0;"/><line style="stroke: #383838; stroke-width: 1.0;" x1="3" x2="125" y1="212.2578" y2="212.2578"/><text fill="#000000" font-family="Courier" font-size="13" lengthAdjust="spacingAndGlyphs" textLength="104" x="10" y="207.1919">Receive query</text><polygon fill="#383838" points="228,237.3906,238,241.3906,228,245.3906,232,241.3906" style="stroke: #383838; stroke-width: 1.0;"/><line style="stroke: #383838; stroke-width: 1.0;" x1="131" x2="234" y1="241.3906" y2="241.3906"/><text fill="#000000" font-family="Courier" font-size="13" lengthAdjust="spacingAndGlyphs" textLength="80" x="138" y="236.3247">Push Query</text><text fill="#000000" font-family="Courier" font-size="11" lengthAdjust="spacingAndGlyphs" textLength="77" x="349.5" y="273.6011">time passes</text><polygon fill="#383838" points="531,307.3281,521,311.3281,531,315.3281,527,311.3281" style="stroke: #383838; stroke-width: 1.0;"/><line style="stroke: #383838; stroke-width: 1.0;" x1="525" x2="727" y1="311.3281" y2="311.3281"/><text fill="#000000" font-family="Courier" font-size="13" lengthAdjust="spacingAndGlyphs" textLength="184" x="537" y="306.2622">finishes previous query</text><polygon fill="#383838" points="261,336.4609,251,340.4609,261,344.4609,257,340.4609" style="stroke: #383838; stroke-width: 1.0;"/><line style="stroke: #383838; stroke-width: 1.0;" x1="255" x2="519" y1="340.4609" y2="340.4609"/><text fill="#000000" font-family="Courier" font-size="13" lengthAdjust="spacingAndGlyphs" textLength="80" x="267" y="335.395">Pull Query</text><polygon fill="#383838" points="503,365.5938,513,369.5938,503,373.5938,507,369.5938" style="stroke: #383838; stroke-width: 1.0;"/><line style="stroke: #383838; stroke-width: 1.0; stroke-dasharray: 2.0,2.0;" x1="250" x2="509" y1="369.5938" y2="369.5938"/><text fill="#000000" font-family="Courier" font-size="13" lengthAdjust="spacingAndGlyphs" textLength="40" x="257" y="364.5278">Query</text><polygon fill="#383838" points="628,394.7266,638,398.7266,628,402.7266,632,398.7266" style="stroke: #383838; stroke-width: 1.0;"/><line style="stroke: #383838; stroke-width: 1.0;" x1="373" x2="634" y1="398.7266" y2="398.7266"/><text fill="#000000" font-family="Courier" font-size="13" lengthAdjust="spacingAndGlyphs" textLength="96" x="380" y="393.6606">SELECT query</text><polygon fill="#383838" points="384,423.8594,374,427.8594,384,431.8594,380,427.8594" style="stroke: #383838; stroke-width: 1.0;"/><line style="stroke: #383838; stroke-width: 1.0; stroke-dasharray: 2.0,2.0;" x1="378" x2="644" y1="427.8594" y2="427.8594"/><text fill="#000000" font-family="Courier" font-size="13" lengthAdjust="spacingAndGlyphs" textLength="48" x="390" y="422.7935">Result</text><polygon fill="#383838" points="261,452.9922,251,456.9922,261,460.9922,257,456.9922" style="stroke: #383838; stroke-width: 1.0;"/><line style="stroke: #383838; stroke-width: 1.0; stroke-dasharray: 2.0,2.0;" x1="255" x2="367" y1="456.9922" y2="456.9922"/><text fill="#000000" font-family="Courier" font-size="13" lengthAdjust="spacingAndGlyphs" textLength="48" x="267" y="451.9263">Result</text><polygon fill="#383838" points="142,482.125,132,486.125,142,490.125,138,486.125" style="stroke: #383838; stroke-width: 1.0;"/><line style="stroke: #383838; stroke-width: 1.0; stroke-dasharray: 2.0,2.0;" x1="136" x2="234" y1="486.125" y2="486.125"/><text fill="#000000" font-family="Courier" font-size="13" lengthAdjust="spacingAndGlyphs" textLength="72" x="148" y="481.0591">Result Q1</text><polygon fill="#383838" points="628,511.2578,638,515.2578,628,519.2578,632,515.2578" style="stroke: #383838; stroke-width: 1.0;"/><line style="stroke: #383838; stroke-width: 1.0;" x1="525" x2="634" y1="515.2578" y2="515.2578"/><text fill="#000000" font-family="Courier" font-size="13" lengthAdjust="spacingAndGlyphs" textLength="96" x="532" y="510.1919">SELECT query</text><polygon fill="#383838" points="536,540.3906,526,544.3906,536,548.3906,532,544.3906" style="stroke: #383838; stroke-width: 1.0;"/><line style="stroke: #383838; stroke-width: 1.0; stroke-dasharray: 2.0,2.0;" x1="530" x2="644" y1="544.3906" y2="544.3906"/><text fill="#000000" font-family="Courier" font-size="13" lengthAdjust="spacingAndGlyphs" textLength="48" x="542" y="539.3247">Result</text><polygon fill="#383838" points="256,569.5234,246,573.5234,256,577.5234,252,573.5234" style="stroke: #383838; stroke-width: 1.0;"/><line style="stroke: #383838; stroke-width: 1.0; stroke-dasharray: 2.0,2.0;" x1="250" x2="519" y1="573.5234" y2="573.5234"/><text fill="#000000" font-family="Courier" font-size="13" lengthAdjust="spacingAndGlyphs" textLength="48" x="262" y="568.4575">Result</text><polygon fill="#383838" points="142,598.6563,132,602.6563,142,606.6563,138,602.6563" style="stroke: #383838; stroke-width: 1.0;"/><line style="stroke: #383838; stroke-width: 1.0; stroke-dasharray: 2.0,2.0;" x1="136" x2="239" y1="602.6563" y2="602.6563"/><text fill="#000000" font-family="Courier" font-size="13" lengthAdjust="spacingAndGlyphs" textLength="72" x="148" y="597.5903">Result Q2</text></g></svg>