<?xml version="1.0" encoding="UTF-8" standalone="no"?><svg xmlns="http://www.w3.org/2000/svg" xmlns:xlink="http://www.w3.org/1999/xlink" contentScriptType="application/ecmascript" contentStyleType="text/css" height="403px" preserveAspectRatio="none" style="width:702px;height:403px;" version="1.1" viewBox="0 0 702 403" width="702px" zoomAndPan="magnify"><defs/><g><text fill="#000000" font-family="Courier" font-size="14" font-weight="bold" lengthAdjust="spacingAndGlyphs" textLength="248" x="227.5" y="22.9951">Coeus "User Query" Process View</text><rect fill="#FFFFFF" height="249.8672" style="stroke: #383838; stroke-width: 1.0;" width="10" x="162" y="95.7266"/><rect fill="#FFFFFF" height="191.6016" style="stroke: #383838; stroke-width: 1.0;" width="10" x="319" y="124.8594"/><rect fill="#FFFFFF" height="29.1328" style="stroke: #383838; stroke-width: 1.0;" width="10" x="476" y="178.125"/><rect fill="#FFFFFF" height="29.1328" style="stroke: #383838; stroke-width: 1.0;" width="10" x="600" y="251.1953"/><rect fill="#FFFFFF" height="148.4688" style="stroke: #000000; stroke-width: 2.0;" width="431" x="259" y="139.8594"/><rect fill="#FFFFFF" height="73.0703" style="stroke: none; stroke-width: 1.0;" width="431" x="259" y="215.2578"/><line style="stroke: #383838; stroke-width: 1.0; stroke-dasharray: 5.0,5.0;" x1="55" x2="55" y1="64.5938" y2="363.5938"/><line style="stroke: #383838; stroke-width: 1.0; stroke-dasharray: 5.0,5.0;" x1="167" x2="167" y1="64.5938" y2="363.5938"/><line style="stroke: #383838; stroke-width: 1.0; stroke-dasharray: 5.0,5.0;" x1="324" x2="324" y1="64.5938" y2="363.5938"/><line style="stroke: #383838; stroke-width: 1.0; stroke-dasharray: 5.0,5.0;" x1="481" x2="481" y1="64.5938" y2="363.5938"/><line style="stroke: #383838; stroke-width: 1.0; stroke-dasharray: 5.0,5.0;" x1="605" x2="605" y1="64.5938" y2="363.5938"/><rect fill="#F8F8F8" height="30.2969" style="stroke: #383838; stroke-width: 1.5;" width="94" x="8" y="33.2969"/><text fill="#000000" font-family="Courier" font-size="14" lengthAdjust="spacingAndGlyphs" textLength="80" x="15" y="53.292">Client API</text><rect fill="#F8F8F8" height="30.2969" style="stroke: #383838; stroke-width: 1.5;" width="94" x="8" y="362.5938"/><text fill="#000000" font-family="Courier" font-size="14" lengthAdjust="spacingAndGlyphs" textLength="80" x="15" y="382.5889">Client API</text><rect fill="#F8F8F8" height="30.2969" style="stroke: #383838; stroke-width: 1.5;" width="110" x="112" y="33.2969"/><text fill="#000000" font-family="Courier" font-size="14" lengthAdjust="spacingAndGlyphs" textLength="96" x="119" y="53.292">Query Engine</text><rect fill="#F8F8F8" height="30.2969" style="stroke: #383838; stroke-width: 1.5;" width="110" x="112" y="362.5938"/><text fill="#000000" font-family="Courier" font-size="14" lengthAdjust="spacingAndGlyphs" textLength="96" x="119" y="382.5889">Query Engine</text><rect fill="#F8F8F8" height="30.2969" style="stroke: #383838; stroke-width: 1.5;" width="110" x="269" y="33.2969"/><text fill="#000000" font-family="Courier" font-size="14" lengthAdjust="spacingAndGlyphs" textLength="96" x="276" y="53.292">Data Manager</text><rect fill="#F8F8F8" height="30.2969" style="stroke: #383838; stroke-width: 1.5;" width="110" x="269" y="362.5938"/><text fill="#000000" font-family="Courier" font-size="14" lengthAdjust="spacingAndGlyphs" textLength="96" x="276" y="382.5889">Data Manager</text><rect fill="#F8F8F8" height="30.2969" style="stroke: #383838; stroke-width: 1.5;" width="78" x="442" y="33.2969"/><text fill="#000000" font-family="Courier" font-size="14" lengthAdjust="spacingAndGlyphs" textLength="64" x="449" y="53.292">Database</text><rect fill="#F8F8F8" height="30.2969" style="stroke: #383838; stroke-width: 1.5;" width="78" x="442" y="362.5938"/><text fill="#000000" font-family="Courier" font-size="14" lengthAdjust="spacingAndGlyphs" textLength="64" x="449" y="382.5889">Database</text><rect fill="#F8F8F8" height="30.2969" style="stroke: #383838; stroke-width: 1.5;" width="150" x="530" y="33.2969"/><text fill="#000000" font-family="Courier" font-size="14" lengthAdjust="spacingAndGlyphs" textLength="136" x="537" y="53.292">External Database</text><rect fill="#F8F8F8" height="30.2969" style="stroke: #383838; stroke-width: 1.5;" width="150" x="530" y="362.5938"/><text fill="#000000" font-family="Courier" font-size="14" lengthAdjust="spacingAndGlyphs" textLength="136" x="537" y="382.5889">External Database</text><rect fill="#FFFFFF" height="249.8672" style="stroke: #383838; stroke-width: 1.0;" width="10" x="162" y="95.7266"/><rect fill="#FFFFFF" height="191.6016" style="stroke: #383838; stroke-width: 1.0;" width="10" x="319" y="124.8594"/><rect fill="#FFFFFF" height="29.1328" style="stroke: #383838; stroke-width: 1.0;" width="10" x="476" y="178.125"/><rect fill="#FFFFFF" height="29.1328" style="stroke: #383838; stroke-width: 1.0;" width="10" x="600" y="251.1953"/><polygon fill="#383838" points="150,91.7266,160,95.7266,150,99.7266,154,95.7266" style="stroke: #383838; stroke-width: 1.0;"/><line style="stroke: #383838; stroke-width: 1.0;" x1="55" x2="156" y1="95.7266" y2="95.7266"/><text fill="#000000" font-family="Courier" font-size="13" lengthAdjust="spacingAndGlyphs" textLength="40" x="62" y="90.6606">Query</text><polygon fill="#383838" points="307,120.8594,317,124.8594,307,128.8594,311,124.8594" style="stroke: #383838; stroke-width: 1.0;"/><line style="stroke: #383838; stroke-width: 1.0;" x1="172" x2="313" y1="124.8594" y2="124.8594"/><text fill="#000000" font-family="Courier" font-size="13" lengthAdjust="spacingAndGlyphs" textLength="128" x="179" y="119.7935">Translated Query</text><path d="M259,139.8594 L328,139.8594 L328,146.8594 L318,156.8594 L259,156.8594 L259,139.8594 " fill="#EEEEEE" style="stroke: #000000; stroke-width: 1.0;"/><rect fill="none" height="148.4688" style="stroke: #000000; stroke-width: 2.0;" width="431" x="259" y="139.8594"/><text fill="#000000" font-family="Courier" font-size="13" font-weight="bold" lengthAdjust="spacingAndGlyphs" textLength="24" x="274" y="152.9263">alt</text><text fill="#000000" font-family="Courier" font-size="11" font-weight="bold" lengthAdjust="spacingAndGlyphs" textLength="189" x="343" y="152.0698">[Data is locally available]</text><polygon fill="#383838" points="464,174.125,474,178.125,464,182.125,468,178.125" style="stroke: #383838; stroke-width: 1.0;"/><line style="stroke: #383838; stroke-width: 1.0;" x1="329" x2="470" y1="178.125" y2="178.125"/><text fill="#000000" font-family="Courier" font-size="13" lengthAdjust="spacingAndGlyphs" textLength="128" x="336" y="173.0591">Translated Query</text><polygon fill="#383838" points="340,203.2578,330,207.2578,340,211.2578,336,207.2578" style="stroke: #383838; stroke-width: 1.0;"/><line style="stroke: #383838; stroke-width: 1.0; stroke-dasharray: 2.0,2.0;" x1="334" x2="480" y1="207.2578" y2="207.2578"/><text fill="#000000" font-family="Courier" font-size="13" lengthAdjust="spacingAndGlyphs" textLength="48" x="346" y="202.1919">Result</text><line style="stroke: #000000; stroke-width: 1.0; stroke-dasharray: 2.0,2.0;" x1="259" x2="690" y1="216.2578" y2="216.2578"/><text fill="#000000" font-family="Courier" font-size="11" font-weight="bold" lengthAdjust="spacingAndGlyphs" textLength="112" x="264" y="226.4683">[Data is remote]</text><polygon fill="#383838" points="588,247.1953,598,251.1953,588,255.1953,592,251.1953" style="stroke: #383838; stroke-width: 1.0;"/><line style="stroke: #383838; stroke-width: 1.0;" x1="329" x2="594" y1="251.1953" y2="251.1953"/><text fill="#000000" font-family="Courier" font-size="13" lengthAdjust="spacingAndGlyphs" textLength="128" x="336" y="246.1294">Translated Query</text><polygon fill="#383838" points="340,276.3281,330,280.3281,340,284.3281,336,280.3281" style="stroke: #383838; stroke-width: 1.0;"/><line style="stroke: #383838; stroke-width: 1.0; stroke-dasharray: 2.0,2.0;" x1="334" x2="604" y1="280.3281" y2="280.3281"/><text fill="#000000" font-family="Courier" font-size="13" lengthAdjust="spacingAndGlyphs" textLength="48" x="346" y="275.2622">Result</text><polygon fill="#383838" points="183,312.4609,173,316.4609,183,320.4609,179,316.4609" style="stroke: #383838; stroke-width: 1.0;"/><line style="stroke: #383838; stroke-width: 1.0; stroke-dasharray: 2.0,2.0;" x1="177" x2="323" y1="316.4609" y2="316.4609"/><text fill="#000000" font-family="Courier" font-size="13" lengthAdjust="spacingAndGlyphs" textLength="48" x="189" y="311.395">Result</text><polygon fill="#383838" points="66,341.5938,56,345.5938,66,349.5938,62,345.5938" style="stroke: #383838; stroke-width: 1.0;"/><line style="stroke: #383838; stroke-width: 1.0; stroke-dasharray: 2.0,2.0;" x1="60" x2="166" y1="345.5938" y2="345.5938"/><text fill="#000000" font-family="Courier" font-size="13" lengthAdjust="spacingAndGlyphs" textLength="48" x="72" y="340.5278">Result</text></g></svg>