<svg xmlns="http://www.w3.org/2000/svg" version="1.1" xmlns:xlink="http://www.w3.org/1999/xlink" xmlns:svgjs="http://svgjs.dev/svgjs" viewBox="0 0 3670 490"><rect width="250" height="40" x="2070" y="0" fill="white" stroke="black"></rect><text x="2103.63671875" y="26.20703125" svgjs:data="{&quot;leading&quot;:&quot;1.3&quot;}"><tspan dy="0" x="2103.63671875" svgjs:data="{&quot;newLined&quot;:true}">Coeus formerly Tag4You</tspan></text><rect width="100" height="40" x="822.5" y="90" fill="white" stroke="black"></rect><text x="843.27734375" y="116.20703125" svgjs:data="{&quot;leading&quot;:&quot;1.3&quot;}"><tspan dy="0" x="843.27734375" svgjs:data="{&quot;newLined&quot;:true}">Queries</tspan></text><rect width="150" height="40" x="485" y="180" fill="white" stroke="black"></rect><text x="509.47265625" y="206.20703125" svgjs:data="{&quot;leading&quot;:&quot;1.3&quot;}"><tspan dy="0" x="509.47265625" svgjs:data="{&quot;newLined&quot;:true}">Query format</tspan></text><rect width="390" height="40" x="0" y="270" fill="white" stroke="black"></rect><text x="55.9140625" y="296.20703125" svgjs:data="{&quot;leading&quot;:&quot;1.3&quot;}"><tspan dy="0" x="55.9140625" svgjs:data="{&quot;newLined&quot;:true}">Natural language-like query language</tspan></text><rect width="240" height="40" x="440" y="270" fill="white" stroke="black"></rect><text x="474.109375" y="296.20703125" svgjs:data="{&quot;leading&quot;:&quot;1.3&quot;}"><tspan dy="0" x="474.109375" svgjs:data="{&quot;newLined&quot;:true}">Formal query language</tspan></text><rect width="270" height="40" x="730" y="270" fill="white" stroke="black"></rect><text x="764.14453125" y="296.20703125" svgjs:data="{&quot;leading&quot;:&quot;1.3&quot;}"><tspan dy="0" x="764.14453125" svgjs:data="{&quot;newLined&quot;:true}">Computer-readable format</tspan></text><rect width="70" height="40" x="747.5" y="360" fill="white" stroke="black"></rect><text x="763.7109375" y="386.20703125" svgjs:data="{&quot;leading&quot;:&quot;1.3&quot;}"><tspan dy="0" x="763.7109375" svgjs:data="{&quot;newLined&quot;:true}">JSON</tspan></text><rect width="160" height="40" x="967.5" y="360" fill="white" stroke="black"></rect><text x="992.96875" y="386.20703125" svgjs:data="{&quot;leading&quot;:&quot;1.3&quot;}"><tspan dy="0" x="992.96875" svgjs:data="{&quot;newLined&quot;:true}">Custom binary</tspan></text><rect width="150" height="40" x="1072.5" y="180" fill="white" stroke="black"></rect><text x="1098.95703125" y="206.20703125" svgjs:data="{&quot;leading&quot;:&quot;1.3&quot;}"><tspan dy="0" x="1098.95703125" svgjs:data="{&quot;newLined&quot;:true}">Query length</tspan></text><rect width="120" height="40" x="1050" y="270" fill="white" stroke="black"></rect><text x="1073.5390625" y="296.20703125" svgjs:data="{&quot;leading&quot;:&quot;1.3&quot;}"><tspan dy="0" x="1073.5390625" svgjs:data="{&quot;newLined&quot;:true}">Unlimited</tspan></text><rect width="100" height="40" x="1220" y="270" fill="white" stroke="black"></rect><text x="1235.87109375" y="296.20703125" svgjs:data="{&quot;leading&quot;:&quot;1.3&quot;}"><tspan dy="0" x="1235.87109375" svgjs:data="{&quot;newLined&quot;:true}">Bounded</tspan></text><rect width="180" height="40" x="1892.5" y="180" fill="white" stroke="black"></rect><text x="1921.62890625" y="206.20703125" svgjs:data="{&quot;leading&quot;:&quot;1.3&quot;}"><tspan dy="0" x="1921.62890625" svgjs:data="{&quot;newLined&quot;:true}">Content Tagging</tspan></text><rect width="140" height="40" x="1370" y="270" fill="white" stroke="black"></rect><text x="1398.5859375" y="296.20703125" svgjs:data="{&quot;leading&quot;:&quot;1.3&quot;}"><tspan dy="0" x="1398.5859375" svgjs:data="{&quot;newLined&quot;:true}">Binary tags</tspan></text><rect width="160" height="40" x="1360" y="360" fill="white" stroke="black"></rect><text x="1387.0234375" y="386.20703125" svgjs:data="{&quot;leading&quot;:&quot;1.3&quot;}"><tspan dy="0" x="1387.0234375" svgjs:data="{&quot;newLined&quot;:true}">Weighted tags</tspan></text><rect width="280" height="40" x="2942.5" y="450" fill="white" stroke="black"></rect><text x="2985.83203125" y="476.20703125" svgjs:data="{&quot;leading&quot;:&quot;1.3&quot;}"><tspan dy="0" x="2985.83203125" svgjs:data="{&quot;newLined&quot;:true}">Numeric tags e.g. runtime</tspan></text><rect width="140" height="40" x="1560" y="270" fill="white" stroke="black"></rect><text x="1589.59765625" y="296.20703125" svgjs:data="{&quot;leading&quot;:&quot;1.3&quot;}"><tspan dy="0" x="1589.59765625" svgjs:data="{&quot;newLined&quot;:true}">Tag aliases</tspan></text><rect width="220" height="40" x="1750" y="270" fill="white" stroke="black"></rect><text x="1786.43359375" y="296.20703125" svgjs:data="{&quot;leading&quot;:&quot;1.3&quot;}"><tspan dy="0" x="1786.43359375" svgjs:data="{&quot;newLined&quot;:true}">Sub-tags/categories</tspan></text><rect width="170" height="40" x="2020" y="270" fill="white" stroke="black"></rect><text x="2053.73046875" y="296.20703125" svgjs:data="{&quot;leading&quot;:&quot;1.3&quot;}"><tspan dy="0" x="2053.73046875" svgjs:data="{&quot;newLined&quot;:true}">Exclusive tags</tspan></text><rect width="300" height="40" x="2240" y="270" fill="white" stroke="black"></rect><text x="2295.69921875" y="296.20703125" svgjs:data="{&quot;leading&quot;:&quot;1.3&quot;}"><tspan dy="0" x="2295.69921875" svgjs:data="{&quot;newLined&quot;:true}">Tag attributes e.g. spoiler</tspan></text><rect width="200" height="40" x="2345" y="90" fill="white" stroke="black"></rect><text x="2378.5859375" y="116.20703125" svgjs:data="{&quot;leading&quot;:&quot;1.3&quot;}"><tspan dy="0" x="2378.5859375" svgjs:data="{&quot;newLined&quot;:true}">Data modification</tspan></text><rect width="150" height="40" x="2265" y="180" fill="white" stroke="black"></rect><text x="2295.2109375" y="206.20703125" svgjs:data="{&quot;leading&quot;:&quot;1.3&quot;}"><tspan dy="0" x="2295.2109375" svgjs:data="{&quot;newLined&quot;:true}">Default tags</tspan></text><rect width="170" height="40" x="2465" y="180" fill="white" stroke="black"></rect><text x="2496.625" y="206.20703125" svgjs:data="{&quot;leading&quot;:&quot;1.3&quot;}"><tspan dy="0" x="2496.625" svgjs:data="{&quot;newLined&quot;:true}">Access control</tspan></text><rect width="220" height="40" x="2915" y="90" fill="white" stroke="black"></rect><text x="2952.1796875" y="116.20703125" svgjs:data="{&quot;leading&quot;:&quot;1.3&quot;}"><tspan dy="0" x="2952.1796875" svgjs:data="{&quot;newLined&quot;:true}">Result presentation</tspan></text><rect width="130" height="40" x="2685" y="180" fill="white" stroke="black"></rect><text x="2717.328125" y="206.20703125" svgjs:data="{&quot;leading&quot;:&quot;1.3&quot;}"><tspan dy="0" x="2717.328125" svgjs:data="{&quot;newLined&quot;:true}">Tag filter</tspan></text><rect width="100" height="40" x="2975" y="180" fill="white" stroke="black"></rect><text x="2998.37109375" y="206.20703125" svgjs:data="{&quot;leading&quot;:&quot;1.3&quot;}"><tspan dy="0" x="2998.37109375" svgjs:data="{&quot;newLined&quot;:true}">Sorting</tspan></text><rect width="200" height="40" x="3015" y="360" fill="white" stroke="black"></rect><text x="3047.33984375" y="386.20703125" svgjs:data="{&quot;leading&quot;:&quot;1.3&quot;}"><tspan dy="0" x="3047.33984375" svgjs:data="{&quot;newLined&quot;:true}">Numeric tag value</tspan></text><rect width="260" height="40" x="3150" y="270" fill="white" stroke="black"></rect><text x="3187.66796875" y="296.20703125" svgjs:data="{&quot;leading&quot;:&quot;1.3&quot;}"><tspan dy="0" x="3187.66796875" svgjs:data="{&quot;newLined&quot;:true}">Numeric tags expression</tspan></text><rect width="130" height="40" x="2610" y="270" fill="white" stroke="black"></rect><text x="2634.8125" y="296.20703125" svgjs:data="{&quot;leading&quot;:&quot;1.3&quot;}"><tspan dy="0" x="2634.8125" svgjs:data="{&quot;newLined&quot;:true}">Tag weight</tspan></text><rect width="290" height="40" x="2790" y="270" fill="white" stroke="black"></rect><text x="2840.734375" y="296.20703125" svgjs:data="{&quot;leading&quot;:&quot;1.3&quot;}"><tspan dy="0" x="2840.734375" svgjs:data="{&quot;newLined&quot;:true}">Client-supplied attributes</tspan></text><rect width="90" height="40" x="3520" y="180" fill="white" stroke="black"></rect><text x="3540.03515625" y="206.20703125" svgjs:data="{&quot;leading&quot;:&quot;1.3&quot;}"><tspan dy="0" x="3540.03515625" svgjs:data="{&quot;newLined&quot;:true}">Paging</tspan></text><rect width="210" height="40" x="3460" y="270" fill="white" stroke="black"></rect><text x="3498.1875" y="296.20703125" svgjs:data="{&quot;leading&quot;:&quot;1.3&quot;}"><tspan dy="0" x="3498.1875" svgjs:data="{&quot;newLined&quot;:true}">Variable page size</tspan></text><polygon points="635,230 560,221 485,230" fill="black" stroke="black"></polygon><polygon points="946.1111111111111,320 887.2222222222222,311 828.3333333333334,320" fill="black" stroke="black"></polygon><polygon points="1201.9444444444443,230 1166.3888888888887,221 1130.8333333333333,230" fill="white" stroke="black"></polygon><polygon points="2072.5,230 1982.5,221 1892.5,230" fill="black" stroke="black"></polygon><polygon points="3075,230 3025,221 2975,230" fill="black" stroke="black"></polygon><polyline points="485,230 195,245 195,270" stroke="black" fill="none"></polyline><polyline points="560,230 560,245 560,270" stroke="black" fill="none"></polyline><polyline points="828.3333333333334,320 782.5,335 782.5,360" stroke="black" fill="none"></polyline><polyline points="946.1111111111111,320 1047.5,335 1047.5,360" stroke="black" fill="none"></polyline><polyline points="635,230 865,245 865,270" stroke="black" fill="none"></polyline><polyline points="822.5,117.2 560,155 560,180" stroke="black" fill="none" marker-end="url(#SvgjsMarker1000)"></polyline><defs><marker markerWidth="14" markerHeight="14" refX="7" refY="7" viewBox="0 0 14 14" orient="auto" id="SvgjsMarker1000"><circle r="5" cx="7" cy="7" fill="black" stroke-width="2" stroke="black"></circle></marker><marker markerWidth="14" markerHeight="14" refX="7" refY="7" viewBox="0 0 14 14" orient="auto" id="SvgjsMarker1001"><circle r="5" cx="7" cy="7" fill="black" stroke-width="2" stroke="black"></circle></marker><marker markerWidth="14" markerHeight="14" refX="7" refY="7" viewBox="0 0 14 14" orient="auto" id="SvgjsMarker1002"><circle r="5" cx="7" cy="7" fill="white" stroke-width="2" stroke="black"></circle></marker><marker markerWidth="14" markerHeight="14" refX="7" refY="7" viewBox="0 0 14 14" orient="auto" id="SvgjsMarker1003"><circle r="5" cx="7" cy="7" fill="black" stroke-width="2" stroke="black"></circle></marker><marker markerWidth="14" markerHeight="14" refX="7" refY="7" viewBox="0 0 14 14" orient="auto" id="SvgjsMarker1004"><circle r="5" cx="7" cy="7" fill="black" stroke-width="2" stroke="black"></circle></marker><marker markerWidth="14" markerHeight="14" refX="7" refY="7" viewBox="0 0 14 14" orient="auto" id="SvgjsMarker1005"><circle r="5" cx="7" cy="7" fill="white" stroke-width="2" stroke="black"></circle></marker><marker markerWidth="14" markerHeight="14" refX="7" refY="7" viewBox="0 0 14 14" orient="auto" id="SvgjsMarker1006"><circle r="5" cx="7" cy="7" fill="black" stroke-width="2" stroke="black"></circle></marker><marker markerWidth="14" markerHeight="14" refX="7" refY="7" viewBox="0 0 14 14" orient="auto" id="SvgjsMarker1007"><circle r="5" cx="7" cy="7" fill="black" stroke-width="2" stroke="black"></circle></marker><marker markerWidth="14" markerHeight="14" refX="7" refY="7" viewBox="0 0 14 14" orient="auto" id="SvgjsMarker1008"><circle r="5" cx="7" cy="7" fill="white" stroke-width="2" stroke="black"></circle></marker><marker markerWidth="14" markerHeight="14" refX="7" refY="7" viewBox="0 0 14 14" orient="auto" id="SvgjsMarker1009"><circle r="5" cx="7" cy="7" fill="black" stroke-width="2" stroke="black"></circle></marker><marker markerWidth="14" markerHeight="14" refX="7" refY="7" viewBox="0 0 14 14" orient="auto" id="SvgjsMarker1010"><circle r="5" cx="7" cy="7" fill="white" stroke-width="2" stroke="black"></circle></marker><marker markerWidth="14" markerHeight="14" refX="7" refY="7" viewBox="0 0 14 14" orient="auto" id="SvgjsMarker1011"><circle r="5" cx="7" cy="7" fill="black" stroke-width="2" stroke="black"></circle></marker><marker markerWidth="14" markerHeight="14" refX="7" refY="7" viewBox="0 0 14 14" orient="auto" id="SvgjsMarker1012"><circle r="5" cx="7" cy="7" fill="black" stroke-width="2" stroke="black"></circle></marker><marker markerWidth="14" markerHeight="14" refX="7" refY="7" viewBox="0 0 14 14" orient="auto" id="SvgjsMarker1013"><polygon points="0,14 7,7 0,0 2,7" fill="black" stroke-width="1" stroke="black"></polygon></marker><marker markerWidth="14" markerHeight="14" refX="7" refY="7" viewBox="0 0 14 14" orient="auto" id="SvgjsMarker1014"><polygon points="0,14 7,7 0,0 2,7" fill="black" stroke-width="1" stroke="black"></polygon></marker><marker markerWidth="14" markerHeight="14" refX="7" refY="7" viewBox="0 0 14 14" orient="auto" id="SvgjsMarker1015"><polygon points="0,14 7,7 0,0 2,7" fill="black" stroke-width="1" stroke="black"></polygon></marker><marker markerWidth="14" markerHeight="14" refX="7" refY="7" viewBox="0 0 14 14" orient="auto" id="SvgjsMarker1016"><polygon points="0,14 7,7 0,0 2,7" fill="black" stroke-width="1" stroke="black"></polygon></marker><marker markerWidth="14" markerHeight="14" refX="7" refY="7" viewBox="0 0 14 14" orient="auto" id="SvgjsMarker1017"><polygon points="14,0 7,7 14,14 12,7" fill="black" stroke-width="1" stroke="black"></polygon></marker></defs><polyline points="1130.8333333333333,230 1110,245 1110,270" stroke="black" fill="none"></polyline><polyline points="1201.9444444444443,230 1270,245 1270,270" stroke="black" fill="none"></polyline><polyline points="922.5,118.18181818181819 1147.5,155 1147.5,180" stroke="black" fill="none"></polyline><polyline points="2070,24.253308128544425 872.5,65 872.5,90" stroke="black" fill="none" marker-end="url(#SvgjsMarker1001)"></polyline><polyline points="1440,310 1440,335 1440,360" stroke="black" fill="none" marker-end="url(#SvgjsMarker1002)"></polyline><polyline points="1892.5,230 1440,245 1440,270" stroke="black" fill="none" marker-end="url(#SvgjsMarker1003)"></polyline><polyline points="2072.5,230 2575,245 2575,290 2575,335 2575,380 2575,425 2942.5,457.58620689655174" stroke="black" fill="none"></polyline><polyline points="1892.5,230 1630,245 1630,270" stroke="black" fill="none"></polyline><polyline points="1928.0555555555557,230 1860,245 1860,270" stroke="black" fill="none"></polyline><polyline points="2036.9444444444443,230 2105,245 2105,270" stroke="black" fill="none"></polyline><polyline points="2072.5,230 2390,245 2390,270" stroke="black" fill="none"></polyline><polyline points="2100.5555555555557,40 1982.5,65 1982.5,110 1982.5,155 1982.5,180" stroke="black" fill="none" marker-end="url(#SvgjsMarker1004)"></polyline><polyline points="2398.3333333333335,130 2340,155 2340,180" stroke="black" fill="none" marker-end="url(#SvgjsMarker1005)"></polyline><polyline points="2491.6666666666665,130 2550,155 2550,180" stroke="black" fill="none" marker-end="url(#SvgjsMarker1006)"></polyline><polyline points="2306.1111111111113,40 2445,65 2445,90" stroke="black" fill="none" marker-end="url(#SvgjsMarker1007)"></polyline><polyline points="2915,128 2750,155 2750,180" stroke="black" fill="none" marker-end="url(#SvgjsMarker1008)"></polyline><polyline points="3065,230 3115,245 3115,290 3115,335 3115,360" stroke="black" fill="none"></polyline><polyline points="3075,230 3280,245 3280,270" stroke="black" fill="none"></polyline><polyline points="2975,230 2675,245 2675,270" stroke="black" fill="none"></polyline><polyline points="2985,230 2935,245 2935,270" stroke="black" fill="none"></polyline><polyline points="3025,130 3025,155 3025,180" stroke="black" fill="none" marker-end="url(#SvgjsMarker1009)"></polyline><polyline points="3565,220 3565,245 3565,270" stroke="black" fill="none" marker-end="url(#SvgjsMarker1010)"></polyline><polyline points="3135,119.16666666666667 3565,155 3565,180" stroke="black" fill="none" marker-end="url(#SvgjsMarker1011)"></polyline><polyline points="2320,26.777108433734938 3025,65 3025,90" stroke="black" fill="none" marker-end="url(#SvgjsMarker1012)"></polyline><polyline points="3115,400 3115,425 3096.9444444444443,450" stroke="black" fill="none" stroke-dasharray="4" marker-end="url(#SvgjsMarker1013)"></polyline><polyline points="3284.4444444444443,310 3290,335 3290,380 3290,425 3174.722222222222,450" stroke="black" fill="none" stroke-dasharray="4" marker-end="url(#SvgjsMarker1014)"></polyline><polyline points="2675,310 2675,335 1520,377.085020242915" stroke="black" fill="none" stroke-dasharray="4" marker-end="url(#SvgjsMarker1015)"></polyline><polyline points="3247.777777777778,310 3207.5,335 3156.1111111111113,360" stroke="black" fill="none" stroke-dasharray="4" marker-end="url(#SvgjsMarker1016)" marker-start="url(#SvgjsMarker1017)"></polyline></svg>